<?xml version="1.0" encoding="UTF-8" standalone="no"?>
<!DOCTYPE svg PUBLIC "-//W3C//DTD SVG 1.1//EN" "http://www.w3.org/Graphics/SVG/1.1/DTD/svg11.dtd">
<!-- Created with Vectornator (http://vectornator.io/) -->
<svg height="100%" stroke-miterlimit="10" style="fill-rule:nonzero;clip-rule:evenodd;stroke-linecap:round;stroke-linejoin:round;" version="1.1" viewBox="12.7403 8.34621 34.2137 17.1164" width="100%" xml:space="preserve" xmlns="http://www.w3.org/2000/svg" xmlns:vectornator="http://vectornator.io" xmlns:xlink="http://www.w3.org/1999/xlink">
<defs/>
<clipPath id="ArtboardFrame">
<rect height="17.1164" width="34.2137" x="12.7403" y="8.34621"/>
</clipPath>
<g clip-path="url(#ArtboardFrame)" id="Layer" vectornator:layerName="Layer">
<g opacity="1" vectornator:layerName="Group 2">
<g opacity="1" vectornator:layerName="Group 1">
<g opacity="1" vectornator:layerName="path">
<clipPath clip-rule="nonzero" id="ClipPath">
<path d="M14.9699 22.7899L44.6912 22.7899L44.6912 10.7586L14.9699 10.7586L14.9699 22.7899Z"/>
</clipPath>
<g clip-path="url(#ClipPath)">
<clipPath clip-rule="nonzero" id="ClipPath_2">
<path d="M14.9699 22.7899L44.6912 22.7899L44.6912 10.7586L14.9699 10.7586L14.9699 22.7899Z"/>
</clipPath>
<g clip-path="url(#ClipPath_2)">
<path d="M15.6753 11.4684L43.9843 11.464L43.9859 22.0802L15.6769 22.0846L15.6753 11.4684" fill="none" opacity="1" stroke="#ffffff" stroke-linecap="round" stroke-linejoin="round" stroke-width="1.29316" vectornator:layerName="path"/>
</g>
</g>
</g>
<g opacity="1" vectornator:layerName="path 1">
<clipPath clip-rule="nonzero" id="ClipPath_3">
<path d="M15.3231 22.4556L44.5083 22.4556L44.5083 10.75L15.3231 10.75L15.3231 22.4556Z"/>
</clipPath>
<g clip-path="url(#ClipPath_3)">
<clipPath clip-rule="nonzero" id="ClipPath_4">
<path d="M15.3231 22.4556L44.5083 22.4556L44.5083 10.75L15.3231 10.75L15.3231 22.4556Z"/>
</clipPath>
<g clip-path="url(#ClipPath_4)">
<path d="M18.6686 16.885C18.6677 16.8136 18.7632 16.6113 18.9551 16.2783C19.067 16.0842 19.1612 15.9305 19.2379 15.8171C19.3145 15.7037 19.4261 15.5461 19.5728 15.3441C19.7194 15.1421 19.8196 15.0031 19.8733 14.9272C19.927 14.8514 19.9843 14.7626 20.0454 14.661C20.1064 14.5593 20.1422 14.4956 20.1528 14.4699C20.1633 14.4442 20.1487 14.4418 20.1092 14.4628C20.0696 14.4837 19.9765 14.5487 19.8301 14.6576C19.6837 14.7665 19.5675 14.8557 19.4815 14.9249C19.3955 14.9942 19.2854 15.094 19.1512 15.2244C19.017 15.3547 18.9055 15.4683 18.8168 15.565C18.7281 15.6617 18.6678 15.7251 18.6359 15.7551C18.604 15.7852 18.5894 15.7944 18.5922 15.7827C18.595 15.771 18.602 15.7417 18.6132 15.695C18.6245 15.6482 18.6713 15.5416 18.7538 15.3753C18.8362 15.2089 18.931 15.03 19.0381 14.8385C19.1452 14.647 19.2256 14.5051 19.2794 14.4128C19.3333 14.3205 19.3809 14.2355 19.4224 14.1579C19.4639 14.0803 19.5033 13.9934 19.5406 13.8973C19.578 13.8012 19.598 13.7414 19.6006 13.7178C19.6033 13.6943 19.5828 13.6782 19.5389 13.6695C19.4951 13.6609 19.449 13.6655 19.4007 13.6834C19.3524 13.7013 19.2709 13.747 19.1562 13.8204C19.0415 13.8938 18.9272 13.9791 18.8132 14.0762C18.6993 14.1734 18.5889 14.2643 18.482 14.349C18.3752 14.4337 18.3015 14.4889 18.2608 14.5146C18.2202 14.5402 18.1737 14.5594 18.1215 14.5721C18.0693 14.5848 18.0372 14.571 18.0251 14.5307C18.013 14.4903 18.0069 14.4452 18.0068 14.3952C18.0066 14.3453 18.0333 14.2327 18.0868 14.0575C18.1403 13.8822 18.1796 13.7443 18.2045 13.6438C18.2295 13.5433 18.2466 13.4516 18.2557 13.3688C18.2648 13.2859 18.2667 13.2139 18.2616 13.1527C18.2564 13.0914 18.2346 13.0393 18.1963 12.9962C18.158 12.9531 18.1106 12.9208 18.0542 12.8992C17.9977 12.8777 17.9535 12.8677 17.9214 12.8693C17.8892 12.8709 17.8485 12.8994 17.7992 12.9548C17.7499 13.0103 17.7104 13.0382 17.6805 13.0387C17.6507 13.0392 17.6313 13.0281 17.6223 13.0055C17.6134 12.9829 17.6373 12.9595 17.6941 12.9353C17.751 12.911 17.8196 12.8926 17.9002 12.8801C17.9807 12.8675 18.1106 12.8544 18.2898 12.8406C18.4691 12.8269 18.6747 12.8005 18.9066 12.7615C19.1385 12.7224 19.3469 12.6926 19.5317 12.672C19.7165 12.6514 19.9734 12.6318 20.3024 12.6132C20.6314 12.5946 20.9472 12.5851 21.2498 12.5846C21.5523 12.5841 21.7625 12.5942 21.8804 12.6148C21.9982 12.6353 22.111 12.6577 22.2186 12.6818C22.3263 12.7059 22.4485 12.7387 22.5854 12.7803C22.7221 12.8219 22.8665 12.8756 23.0183 12.9415C23.1702 13.0074 23.2907 13.0498 23.3798 13.0687C23.4689 13.0875 23.581 13.1049 23.7161 13.1208C23.8512 13.1367 23.9806 13.1575 24.1041 13.1831C24.2276 13.2087 24.3577 13.2393 24.4945 13.2747C24.6313 13.3102 24.7273 13.3313 24.7827 13.338C24.838 13.3447 24.9366 13.3484 25.0784 13.3492C25.2202 13.3499 25.3317 13.3483 25.4129 13.3445C25.4941 13.3407 25.6176 13.3291 25.7834 13.3096C25.9493 13.2901 26.0712 13.2782 26.1492 13.2739C26.2271 13.2696 26.3327 13.2672 26.4659 13.2667C26.5991 13.2662 26.6969 13.2696 26.7594 13.2769C26.8219 13.2841 26.9168 13.3003 27.0442 13.3255C27.1715 13.3506 27.2936 13.3706 27.4104 13.3854C27.5271 13.4003 27.6703 13.409 27.84 13.4116C28.0097 13.4142 28.2112 13.4076 28.4445 13.3919C28.6778 13.3762 28.8638 13.3663 29.0027 13.3622C29.1415 13.3581 29.2855 13.3521 29.4347 13.3443C29.5839 13.3365 29.7335 13.3249 29.8835 13.3095C30.0336 13.2941 30.227 13.2648 30.4639 13.2216C30.7007 13.1783 30.8618 13.1478 30.9473 13.1299C31.0329 13.1121 31.1539 13.0918 31.3105 13.069C31.467 13.0463 31.681 13.0206 31.9523 12.9922C32.2236 12.9637 32.4397 12.9451 32.6006 12.9366C32.7615 12.9281 32.9583 12.9237 33.1912 12.9234C33.4241 12.9231 33.6313 12.9182 33.813 12.9086C33.9947 12.899 34.1762 12.8865 34.3576 12.8709C34.539 12.8553 34.7582 12.8393 35.015 12.823C35.2719 12.8067 35.5288 12.7944 35.7858 12.7861C36.0428 12.7778 36.2513 12.7716 36.4113 12.7677C36.5713 12.7638 36.7305 12.7569 36.8888 12.7469C37.047 12.7369 37.1876 12.7318 37.3106 12.7316C37.4335 12.7313 37.5569 12.7418 37.6807 12.763C37.8045 12.7842 37.9382 12.8058 38.0819 12.8279C38.2256 12.85 38.3704 12.8624 38.5163 12.8651C38.6622 12.8678 38.8342 12.8759 39.0321 12.8892C39.2299 12.9026 39.4326 12.9095 39.64 12.9099C39.8474 12.9102 39.9953 12.9055 40.0837 12.8958C40.1722 12.886 40.3204 12.881 40.5283 12.8808C40.7362 12.8805 40.8962 12.8822 41.0082 12.8858C41.1202 12.8894 41.2196 12.8999 41.3062 12.9173C41.3929 12.9346 41.4596 12.9569 41.5064 12.984C41.5532 13.0111 41.5975 13.049 41.6393 13.0976C41.6812 13.1462 41.7511 13.253 41.8492 13.4181C41.9472 13.5831 42.0135 13.6996 42.048 13.7676C42.0825 13.8355 42.1092 13.9061 42.1282 13.9794C42.1473 14.0526 42.1573 14.1546 42.1584 14.2852C42.1596 14.4158 42.1256 14.5594 42.0564 14.7159C41.9873 14.8723 41.9222 15.0287 41.861 15.185C41.7999 15.3413 41.7462 15.465 41.6999 15.556C41.6535 15.6471 41.6068 15.7201 41.5595 15.7752C41.5123 15.8303 41.4567 15.8738 41.3927 15.9059C41.3288 15.938 41.2523 15.9654 41.1634 15.9881C41.0745 16.0109 40.8873 16.0372 40.602 16.0673C40.3166 16.0973 40.0713 16.1157 39.8662 16.1225C39.661 16.1293 39.2301 16.1329 38.5735 16.1333C37.9169 16.1337 37.343 16.1301 36.8519 16.1225C36.3608 16.115 35.9791 16.1101 35.7069 16.1081C35.4347 16.106 35.1764 16.1083 34.9321 16.1151C34.6878 16.1218 34.3478 16.1492 33.9122 16.1973C33.4766 16.2453 33.1846 16.2761 33.0364 16.2895C32.8883 16.303 32.7296 16.3105 32.5603 16.312C32.3911 16.3135 32.289 16.3106 32.2538 16.3034C32.2187 16.2962 32.1914 16.2752 32.1719 16.2405C32.1524 16.2058 32.1432 16.1759 32.1444 16.1508C32.1455 16.1257 32.1625 16.0984 32.1953 16.0689C32.228 16.0395 32.2802 16.0043 32.3517 15.9633C32.4232 15.9224 32.5226 15.8765 32.65 15.8258C32.7773 15.775 32.9373 15.7156 33.1301 15.6476C33.3228 15.5797 33.5329 15.5072 33.7604 15.4303C33.9879 15.3533 34.23 15.275 34.4866 15.1955C34.7432 15.1159 35.0137 15.0406 35.2981 14.9698C35.5824 14.8989 35.8466 14.8392 36.0906 14.7906C36.3347 14.742 36.5696 14.701 36.7953 14.6674C37.0209 14.6338 37.2314 14.6072 37.4266 14.5876C37.6217 14.568 37.7884 14.5555 37.9267 14.55C38.0649 14.5446 38.2122 14.5424 38.3687 14.5436C38.5252 14.5447 38.6191 14.5534 38.6503 14.5698C38.6815 14.5862 38.6929 14.6149 38.6844 14.656C38.6757 14.6971 38.6356 14.7297 38.5638 14.7538C38.4921 14.7779 38.3933 14.801 38.2674 14.8231C38.1415 14.8452 37.9788 14.8655 37.7793 14.884C37.5798 14.9025 37.1858 14.9305 36.5972 14.9681C36.0087 15.0057 35.5207 15.0355 35.1333 15.0575C34.7459 15.0796 34.1294 15.1164 33.2838 15.1679C32.4382 15.2194 31.787 15.2608 31.3303 15.2922C30.8735 15.3235 30.4139 15.357 29.9513 15.3927C29.4887 15.4283 29.0545 15.4677 28.6487 15.5107C28.2429 15.5537 27.8436 15.6043 27.4509 15.6626C27.0582 15.7208 26.6803 15.7879 26.317 15.8639C25.9539 15.9399 25.6285 16.016 25.341 16.092C25.0534 16.168 24.7667 16.2512 24.4807 16.3414C24.1948 16.4316 23.9332 16.5109 23.6959 16.5794C23.4586 16.6479 23.2589 16.7035 23.0967 16.7463C22.9345 16.7891 22.8012 16.8207 22.697 16.8413C22.5928 16.8618 22.5184 16.8731 22.4738 16.8752C22.4293 16.8772 22.403 16.8711 22.3951 16.8568C22.3872 16.8425 22.4187 16.8049 22.4896 16.744C22.5605 16.6832 22.6704 16.6076 22.8195 16.5172C22.9685 16.4268 23.1548 16.3249 23.3784 16.2115C23.602 16.0981 23.8518 15.9782 24.1279 15.8518C24.4039 15.7253 24.6913 15.6055 24.9899 15.4923C25.2885 15.3791 25.5877 15.2719 25.8876 15.1707C26.1875 15.0695 26.5707 14.9439 27.0372 14.7936C27.5038 14.6434 27.8062 14.5481 27.9445 14.5076C28.0828 14.4671 28.2053 14.4345 28.3121 14.4097C28.4189 14.3848 28.4751 14.3717 28.4807 14.3704L28.4842 14.3696L28.4776 14.3711C28.4698 14.3728 28.3926 14.3903 28.2459 14.4234C28.0993 14.4565 27.8109 14.5084 27.3808 14.5789C26.9507 14.6495 26.5982 14.7055 26.3232 14.7469C26.0483 14.7884 25.764 14.8337 25.4705 14.8828C25.1769 14.9319 24.8772 14.9886 24.5714 15.053C24.2656 15.1174 23.9507 15.187 23.6269 15.2619C23.3031 15.3367 22.9912 15.4111 22.6912 15.4849C22.3913 15.5588 22.1005 15.6219 21.8187 15.6742C21.537 15.7266 21.2948 15.768 21.092 15.7985C20.8893 15.8289 20.7023 15.8502 20.5312 15.8622C20.3601 15.8743 20.1746 15.882 19.9747 15.8852C19.7749 15.8885 19.6529 15.8875 19.609 15.8824C19.565 15.8772 19.5344 15.8654 19.5172 15.8469C19.4999 15.8285 19.4932 15.8048 19.4969 15.776C19.5006 15.7472 19.5323 15.707 19.592 15.6554C19.6517 15.6039 19.7333 15.5395 19.8366 15.4625C19.94 15.3855 20.0553 15.3027 20.1823 15.2141C20.3094 15.1256 20.4386 15.0382 20.57 14.9519C20.7013 14.8657 20.8347 14.7814 20.97 14.6992C21.1052 14.617 21.2931 14.5106 21.5335 14.38C21.7739 14.2494 21.9363 14.166 22.0208 14.1298C22.1053 14.0937 22.1861 14.0657 22.2632 14.0459C22.3403 14.0262 22.3577 14.048 22.3155 14.1114C22.2732 14.1747 22.2038 14.2496 22.1072 14.3359C22.0106 14.4223 21.893 14.5192 21.7543 14.6266C21.6156 14.7341 21.47 14.8445 21.3177 14.9578C21.1653 15.0712 21.0113 15.1911 20.8557 15.3175C20.7 15.4439 20.5379 15.5727 20.3696 15.7038C20.2012 15.835 20.027 15.9601 19.847 16.0793C19.667 16.1985 19.5005 16.3054 19.3475 16.3999C19.1944 16.4944 19.0527 16.5806 18.9221 16.6584C18.7916 16.7363 18.6768 16.8007 18.5777 16.8517C18.4786 16.9027 18.3636 16.9519 18.2328 16.9995C18.102 17.047 18.0051 17.0738 17.9422 17.08C17.8793 17.0861 17.8463 17.0434 17.8433 16.9517C17.8403 16.86 17.8494 16.7476 17.8707 16.6144C17.892 16.4813 17.9002 16.3836 17.8954 16.3214C17.8907 16.2593 17.8645 16.2126 17.817 16.1813C17.7693 16.15 17.7093 16.1279 17.6368 16.1151C17.5643 16.1023 17.4908 16.093 17.4163 16.0871C17.3418 16.0812 17.2828 16.0705 17.2393 16.0549C17.1957 16.0392 17.1729 16.0767 17.1709 16.1673C17.1688 16.2578 17.1697 16.3817 17.1735 16.539C17.1774 16.6962 17.1756 16.8568 17.1682 17.0207C17.1607 17.1846 17.1576 17.3458 17.1589 17.5044C17.1602 17.663 17.1842 17.8354 17.2309 18.0216C17.2776 18.2078 17.3096 18.366 17.327 18.4962C17.3443 18.6264 17.354 18.811 17.3562 19.05C17.3583 19.2891 17.3605 19.4659 17.3628 19.5804C17.365 19.6949 17.3564 19.7913 17.337 19.8696C17.3175 19.9478 17.3024 20.018 17.2917 20.0802C17.2809 20.1424 17.2992 20.1786 17.3467 20.1888C17.3942 20.1989 17.4539 20.204 17.5259 20.204C17.5979 20.204 17.7439 20.169 17.9638 20.0988C18.1837 20.0286 18.3441 19.9821 18.445 19.9591C18.5459 19.9362 18.668 19.9119 18.8113 19.8862C18.9546 19.8606 19.093 19.8257 19.2265 19.7816C19.3601 19.7374 19.5146 19.678 19.6902 19.6034C19.8658 19.5287 20.0475 19.4524 20.2353 19.3743C20.4231 19.2962 20.5629 19.2409 20.6547 19.2084C20.7465 19.1759 20.841 19.1464 20.9382 19.12C21.0354 19.0936 21.1374 19.0701 21.244 19.0494C21.3507 19.0288 21.5212 18.9995 21.7555 18.9614C21.9899 18.9232 22.1661 18.8914 22.2844 18.8659C22.4026 18.8404 22.5897 18.7942 22.8454 18.7272C23.1012 18.6601 23.4422 18.567 23.8684 18.4479C24.2946 18.3287 24.5779 18.2519 24.7183 18.2175C24.8586 18.1831 25.0095 18.1479 25.171 18.1119C25.3324 18.076 25.4911 18.0437 25.6472 18.0148C25.8033 17.986 25.9522 17.9603 26.094 17.9377C26.2357 17.9151 26.3764 17.8945 26.5162 17.876C26.656 17.8575 26.7922 17.8411 26.9249 17.8268C27.0576 17.8125 27.2594 17.7957 27.5305 17.7765C27.8016 17.7573 27.9678 17.7474 28.029 17.747C28.0902 17.7466 28.1225 17.7463 28.1258 17.7463L28.127 17.7463L28.1148 17.7461C28.1042 17.746 28.0005 17.7451 27.8036 17.7433C27.6067 17.7415 27.4348 17.7451 27.2877 17.7541C27.1406 17.7631 26.9871 17.7743 26.827 17.7877C26.6669 17.801 26.4915 17.812 26.3009 17.8206C26.1103 17.8293 25.9014 17.834 25.6741 17.8349C25.4468 17.8358 25.2202 17.8372 24.9942 17.839C24.7682 17.8409 24.5368 17.8492 24.3001 17.8639C24.0634 17.8786 23.812 17.9019 23.546 17.9338C23.28 17.9657 23.0249 18.0076 22.7806 18.0596C22.5365 18.1115 22.2961 18.1696 22.0595 18.2339C21.8229 18.2982 21.5904 18.3695 21.362 18.4478C21.1337 18.5262 20.9198 18.6062 20.7204 18.688C20.521 18.7698 20.3369 18.8479 20.1681 18.9225C19.9993 18.997 19.8434 19.0703 19.7004 19.1424C19.5574 19.2145 19.4412 19.2757 19.3517 19.3261C19.2622 19.3765 19.196 19.4168 19.1529 19.4471C19.1098 19.4773 19.0815 19.5012 19.0678 19.5188C19.0541 19.5363 19.0843 19.5536 19.1585 19.5706C19.2326 19.5875 19.3651 19.5993 19.5559 19.6059C19.7467 19.6124 19.9591 19.615 20.1932 19.6134C20.4273 19.6119 20.6049 19.6074 20.7261 19.6C20.8474 19.5925 21.0332 19.5874 21.2836 19.5847C21.5341 19.5819 21.7136 19.5868 21.8223 19.5992C21.931 19.6115 22.0294 19.6292 22.1175 19.6522C22.2055 19.6752 22.288 19.6994 22.3651 19.7248C22.4421 19.7503 22.5621 19.802 22.725 19.8801C22.8879 19.9581 22.9953 20.0082 23.0473 20.0303C23.0994 20.0524 23.1901 20.0808 23.3196 20.1156C23.449 20.1504 23.556 20.1712 23.6406 20.178C23.7251 20.1848 23.8632 20.1877 24.0548 20.1866C24.2465 20.1856 24.3941 20.1761 24.4976 20.1579C24.6011 20.1398 24.91 20.0734 25.4243 19.9587C25.9385 19.844 26.2543 19.7744 26.3715 19.75C26.4888 19.7256 26.6119 19.7031 26.7408 19.6827C26.8698 19.6623 26.9919 19.6449 27.1072 19.6304C27.2224 19.6159 27.3325 19.6043 27.4375 19.5955C27.5425 19.5868 27.6683 19.581 27.8148 19.5782C27.9613 19.5753 28.0592 19.5747 28.1084 19.5764C28.1577 19.578 28.2051 19.5893 28.2506 19.61C28.2961 19.6308 28.3128 19.6531 28.3006 19.677C28.2884 19.7008 28.2029 19.7332 28.0439 19.774C27.885 19.8149 27.7397 19.8473 27.6079 19.8711C27.4761 19.8949 27.2736 19.9241 27.0002 19.9588C26.7267 19.9935 26.4421 20.026 26.1462 20.0564C25.8503 20.0867 25.623 20.1107 25.4644 20.1282C25.3059 20.1457 25.1502 20.1653 24.9973 20.1872C24.8445 20.209 24.6949 20.2326 24.5485 20.2579C24.4022 20.2832 24.1924 20.3257 23.919 20.3853C23.6456 20.4449 23.4205 20.4954 23.2436 20.5368C23.0667 20.5782 22.9538 20.6025 22.9051 20.6096C22.8564 20.6168 22.8305 20.6205 22.8275 20.621L22.8254 20.6214L22.8285 20.6212C22.8322 20.6209 22.8635 20.6182 22.9224 20.6132C22.9813 20.6083 23.2656 20.5361 23.7752 20.3966C24.2849 20.2572 24.6284 20.1618 24.8057 20.1105C24.9831 20.0591 25.2583 19.9751 25.6314 19.8583C26.0044 19.7415 26.2864 19.6522 26.4772 19.5904C26.6681 19.5287 26.8584 19.4705 27.0481 19.4159C27.2378 19.3614 27.5101 19.2904 27.865 19.203C28.2199 19.1156 28.4818 19.0545 28.6507 19.0199C28.8196 18.9852 28.9869 18.9544 29.1526 18.9275C29.3184 18.9005 29.5532 18.8684 29.8572 18.8311C30.1611 18.7938 30.4557 18.7601 30.7409 18.7301C31.0262 18.7 31.3084 18.6728 31.5876 18.6485C31.8668 18.6243 32.0698 18.6053 32.1965 18.5917C32.3232 18.578 32.565 18.5463 32.9219 18.4966C33.2789 18.4469 33.5556 18.4078 33.7521 18.3794C33.9486 18.351 34.1246 18.3275 34.2802 18.309C34.4357 18.2905 34.5576 18.2742 34.6458 18.2601C34.734 18.246 34.7891 18.2309 34.8109 18.2148C34.8328 18.1986 34.823 18.183 34.7815 18.1679C34.74 18.1528 34.6759 18.1355 34.5892 18.1161C34.5024 18.0966 34.3881 18.0769 34.2464 18.0571C34.1047 18.0372 33.9323 18.0173 33.7292 17.9973C33.5261 17.9774 33.3058 17.9584 33.0684 17.9402C32.831 17.922 32.5763 17.9057 32.3042 17.8915C32.0322 17.8773 31.756 17.8687 31.4756 17.8655C31.1952 17.8624 30.9257 17.8697 30.6672 17.8874C30.4087 17.9051 30.1382 17.9382 29.8556 17.9866C29.5731 18.0351 29.308 18.0869 29.0601 18.1422C28.8123 18.1976 28.5719 18.2575 28.3389 18.3222C28.1059 18.3868 27.885 18.4504 27.6763 18.5128C27.4675 18.5752 27.2907 18.6293 27.1456 18.6749C27.0006 18.7206 26.8605 18.7681 26.7252 18.8175C26.5899 18.8668 26.5296 18.8936 26.5444 18.8978C26.5591 18.902 26.5958 18.9124 26.6546 18.9291C26.7134 18.9458 26.8002 18.959 26.915 18.9688C27.0298 18.9785 27.1713 18.9864 27.3396 18.9926C27.5078 18.9987 27.8123 19.0021 28.253 19.0027C28.6938 19.0033 29.0477 18.9982 29.3147 18.9875C29.5818 18.9767 29.8518 18.9637 30.1248 18.9484C30.3978 18.9331 30.6729 18.922 30.9499 18.9149C31.227 18.9078 31.4854 18.903 31.7253 18.9005C31.9652 18.8981 32.196 18.9003 32.4179 18.9073C32.6397 18.9143 32.8435 18.9316 33.0294 18.9592C33.2153 18.9868 33.3858 19.0217 33.5409 19.0638C33.696 19.1059 33.8308 19.1507 33.9452 19.1981C34.0596 19.2454 34.1584 19.2967 34.2416 19.3519C34.3247 19.407 34.394 19.4624 34.4493 19.518C34.5046 19.5736 34.5466 19.6275 34.5754 19.6797C34.6042 19.7319 34.6232 19.7962 34.6324 19.8726C34.6415 19.9489 34.6352 19.9977 34.6136 20.0188C34.5919 20.0399 34.5321 20.0565 34.4343 20.0685C34.3365 20.0806 34.2469 20.0867 34.1656 20.087C34.0844 20.0873 33.9939 20.083 33.8943 20.074C33.7947 20.0651 33.6805 20.0512 33.5518 20.0324C33.4231 20.0135 33.2886 19.9959 33.1481 19.9795C33.0077 19.9632 32.8629 19.9488 32.7139 19.9365C32.5648 19.9242 32.3286 19.9164 32.0052 19.9132C31.6818 19.91 31.4327 19.9084 31.2578 19.9084C31.0828 19.9084 30.9102 19.9165 30.7399 19.9328C30.5696 19.949 30.3995 19.9704 30.2297 19.9969C30.0598 20.0235 29.8291 20.0677 29.5373 20.1297C29.2456 20.1917 29.0536 20.234 28.9614 20.2565C28.8692 20.2791 28.7816 20.3031 28.6985 20.3284C28.6154 20.3538 28.5841 20.3803 28.6047 20.408C28.6252 20.4357 28.6739 20.4597 28.7506 20.48C28.8273 20.5003 28.9376 20.5109 29.0817 20.5118C29.2257 20.5127 29.3459 20.5114 29.442 20.508C29.5382 20.5045 29.8031 20.4705 30.2367 20.406C30.6703 20.3415 31.0078 20.2932 31.249 20.2612C31.4902 20.2291 31.7745 20.1928 32.1018 20.1524C32.4291 20.112 32.6917 20.0787 32.8896 20.0526C33.0875 20.0265 33.2715 20.0042 33.4416 19.9857C33.6117 19.9672 33.7675 19.948 33.909 19.9282C34.0505 19.9084 34.2077 19.8808 34.3805 19.8453C34.5533 19.8098 34.6917 19.7837 34.7956 19.7672C34.8996 19.7506 34.9989 19.7391 35.0935 19.7327C35.1881 19.7262 35.3262 19.7229 35.5076 19.7226C35.6891 19.7223 35.8326 19.7193 35.9381 19.7136C36.0435 19.7078 36.226 19.6835 36.4854 19.6406C36.7449 19.5978 36.9454 19.5662 37.0871 19.5461C37.2289 19.5259 37.3682 19.5114 37.505 19.5026C37.6418 19.4939 37.7713 19.4893 37.8932 19.4888C38.0152 19.4884 38.1564 19.5035 38.3168 19.5342C38.4773 19.5649 38.6227 19.5818 38.7533 19.5847C38.8838 19.5877 38.9867 19.5884 39.0619 19.5866C39.137 19.5849 39.2134 19.5759 39.2911 19.5594C39.3689 19.543 39.4475 19.5224 39.527 19.4976C39.6065 19.4729 39.7244 19.4316 39.8808 19.374C40.0373 19.3163 40.1875 19.2642 40.3314 19.2174C40.4753 19.1707 40.6354 19.1268 40.8117 19.0857C40.988 19.0447 41.1225 19.0122 41.2152 18.9884C41.3079 18.9646 41.4278 18.9251 41.575 18.8699C41.7222 18.8147 41.8352 18.7681 41.914 18.7301C41.9928 18.6921 42.0563 18.6568 42.1046 18.6243C42.1528 18.5919 42.183 18.567 42.195 18.5498C42.2069 18.5326 42.1586 18.5227 42.0498 18.5204C41.9411 18.518 41.8432 18.5177 41.7561 18.5194C41.669 18.5212 41.5133 18.5345 41.2889 18.5595C41.0644 18.5845 40.8392 18.6051 40.613 18.6214C40.3868 18.6376 40.1693 18.65 39.9605 18.6585C39.7517 18.667 39.521 18.6716 39.2685 18.672C39.0159 18.6725 38.8579 18.6719 38.7946 18.6702C38.7313 18.6684 38.6553 18.659 38.5667 18.6419C38.4781 18.6247 38.4182 18.6062 38.387 18.5863C38.3559 18.5664 38.3415 18.5474 38.344 18.5293C38.3464 18.5112 38.3871 18.4876 38.466 18.4583C38.5449 18.429 38.619 18.4082 38.6883 18.3959C38.7576 18.3836 38.8838 18.3729 39.0668 18.3637C39.25 18.3546 39.4271 18.3509 39.5983 18.3526C39.7694 18.3544 39.9591 18.3756 40.1671 18.4163C40.3752 18.457 40.5327 18.4837 40.6396 18.4964C40.7465 18.5092 40.86 18.5167 40.9801 18.5191C41.1002 18.5215 41.183 18.5107 41.2284 18.4866C41.2739 18.4626 41.3356 18.404 41.4134 18.311C41.4913 18.218 41.5632 18.1226 41.6291 18.0249C41.6949 17.9272 41.7607 17.8219 41.8265 17.7088C41.8922 17.5959 41.9468 17.5046 41.9903 17.4352C42.0338 17.3658 42.0985 17.2705 42.1845 17.1494C42.2705 17.0284 42.339 16.9481 42.3898 16.9085C42.4407 16.869 42.4881 16.8379 42.532 16.8152C42.5759 16.7925 42.6084 16.7808 42.6296 16.7801C42.6508 16.7794 42.6636 16.8133 42.6679 16.8818C42.6722 16.9503 42.6619 17.0536 42.637 17.1916C42.612 17.3296 42.5952 17.4802 42.5863 17.6433C42.5774 17.8063 42.5681 18.0149 42.5582 18.2691C42.5484 18.5233 42.5405 18.6937 42.5345 18.7803C42.5285 18.8669 42.5263 18.9587 42.528 19.0556C42.5298 19.1526 42.5396 19.2393 42.5574 19.3157C42.5753 19.3922 42.5845 19.4874 42.585 19.6014C42.5855 19.7154 42.5847 19.8268 42.5825 19.9355C42.5803 20.0442 42.5764 20.1137 42.5708 20.1441C42.5652 20.1745 42.5402 20.2114 42.496 20.255C42.4518 20.2986 42.4024 20.3336 42.3478 20.3601C42.2932 20.3867 42.2322 20.4054 42.1648 20.4162C42.0974 20.4271 42.0099 20.4347 41.9024 20.4391C41.7949 20.4434 41.4803 20.4456 40.9586 20.4457C40.4369 20.4458 40.0798 20.443 39.8874 20.4374C39.6949 20.4317 39.4894 20.4212 39.271 20.406C39.0526 20.3907 38.8286 20.3779 38.5993 20.3675C38.3699 20.3571 38.1414 20.3517 37.9139 20.3513C37.6864 20.3509 37.4768 20.3582 37.2853 20.3731C37.0937 20.388 36.9409 20.4098 36.8269 20.4385" fill="none" opacity="1" stroke="#ffffff" stroke-linecap="round" stroke-linejoin="round" stroke-width="3.36223" vectornator:layerName="path"/>
</g>
</g>
</g>
<g opacity="1" vectornator:layerName="path 2">
<clipPath clip-rule="nonzero" id="ClipPath_5">
<path d="M14.7237 11.7225L45.9947 11.7225L45.9947 9.8401L14.7237 9.8401L14.7237 11.7225Z"/>
</clipPath>
<g clip-path="url(#ClipPath_5)">
<clipPath clip-rule="nonzero" id="ClipPath_6">
<path d="M14.7237 11.7225L45.9947 11.7225L45.9947 9.8401L14.7237 9.8401L14.7237 11.7225Z"/>
</clipPath>
<g clip-path="url(#ClipPath_6)">
<path d="M15.4291 10.7087C15.655 10.7151 15.8878 10.7037 16.1275 10.6746C16.2867 10.6552 16.4748 10.6405 16.6916 10.6305C16.9084 10.6205 17.5269 10.619 18.5473 10.6262C19.5677 10.6334 20.4017 10.6372 21.0493 10.6375C21.6969 10.6378 22.4197 10.6358 23.2179 10.6313C24.0161 10.6269 25.3945 10.6166 27.3533 10.6005C29.3121 10.5843 30.7943 10.5718 31.8001 10.5627C32.8058 10.5537 34.2774 10.5486 36.2148 10.5473C38.1523 10.5461 39.5371 10.5625 40.3694 10.5967C41.5886 10.6469 43.2286 10.787 45.2894 11.0171" fill="none" opacity="1" stroke="#000000" stroke-linecap="round" stroke-linejoin="round" stroke-width="1.29316" vectornator:layerName="path"/>
</g>
</g>
</g>
<g opacity="1" vectornator:layerName="path 3">
<clipPath clip-rule="nonzero" id="ClipPath_7">
<path d="M14.0008 21.7704L15.895 21.7704L15.895 10.4405L14.0008 10.4405L14.0008 21.7704Z"/>
</clipPath>
<g clip-path="url(#ClipPath_7)">
<clipPath clip-rule="nonzero" id="ClipPath_8">
<path d="M14.0008 21.7704L15.895 21.7704L15.895 10.4405L14.0008 10.4405L14.0008 21.7704Z"/>
</clipPath>
<g clip-path="url(#ClipPath_8)">
<path d="M15.1897 11.1459C15.1647 12.3461 15.1519 13.1081 15.1513 13.4319C15.1509 13.6572 15.1434 13.9843 15.1288 14.4131C15.1141 14.842 15.0925 15.3022 15.0639 15.7938C15.0353 16.2854 15.0045 16.7801 14.9713 17.278C14.9233 17.9992 14.8349 19.2616 14.7062 21.065" fill="none" opacity="1" stroke="#000000" stroke-linecap="round" stroke-linejoin="round" stroke-width="1.29318" vectornator:layerName="path"/>
</g>
</g>
</g>
<g opacity="1" vectornator:layerName="path 4">
<clipPath clip-rule="nonzero" id="ClipPath_9">
<path d="M14.4679 23.7685L44.1007 23.7685L44.1007 21.7746L14.4679 21.7746L14.4679 23.7685Z"/>
</clipPath>
<g clip-path="url(#ClipPath_9)">
<clipPath clip-rule="nonzero" id="ClipPath_10">
<path d="M14.4679 23.7685L44.1007 23.7685L44.1007 21.7746L14.4679 21.7746L14.4679 23.7685Z"/>
</clipPath>
<g clip-path="url(#ClipPath_10)">
<path d="M15.368 22.4875C15.2382 22.4824 15.1824 22.4862 15.2006 22.4989C15.2135 22.5079 15.246 22.5306 15.2978 22.5668C15.3497 22.603 15.4815 22.6377 15.6932 22.6709C15.9049 22.7041 16.11 22.7292 16.3085 22.7462C16.507 22.7632 16.9638 22.7845 17.6789 22.8101C18.3939 22.8357 20.5111 22.8489 24.0303 22.8498C27.5494 22.8506 29.7544 22.8473 30.6454 22.8398C31.5364 22.8324 32.4386 22.8264 33.3522 22.8219C34.2657 22.8174 35.1563 22.8148 36.0239 22.8142C36.8916 22.8137 37.713 22.8188 38.4882 22.8296C39.6198 22.8453 41.2555 22.9232 43.3954 23.0633" fill="none" opacity="1" stroke="#000000" stroke-linecap="round" stroke-linejoin="round" stroke-width="1.29312" vectornator:layerName="path"/>
</g>
</g>
</g>
<g opacity="1" vectornator:layerName="path 5">
<clipPath clip-rule="nonzero" id="ClipPath_11">
<path d="M43.8893 23.5253L45.4164 23.5253L45.4164 11.3982L43.8893 11.3982L43.8893 23.5253Z"/>
</clipPath>
<g clip-path="url(#ClipPath_11)">
<clipPath clip-rule="nonzero" id="ClipPath_12">
<path d="M43.8893 23.5253L45.4164 23.5253L45.4164 11.3982L43.8893 11.3982L43.8893 23.5253Z"/>
</clipPath>
<g clip-path="url(#ClipPath_12)">
<path d="M44.5947 12.1036C44.6349 12.5172 44.6637 12.9676 44.6812 13.4549C44.6986 13.9423 44.708 15.1821 44.7092 17.1746C44.7104 19.167 44.6728 21.0488 44.5963 22.8199" fill="none" opacity="1" stroke="#000000" stroke-linecap="round" stroke-linejoin="round" stroke-width="1.29319" vectornator:layerName="path"/>
</g>
</g>
</g>
<g opacity="1" vectornator:layerName="path 6">
<clipPath clip-rule="nonzero" id="ClipPath_13">
<path d="M16.1124 10.4945L17.566 10.4945L17.566 8.83284L16.1124 8.83284L16.1124 10.4945Z"/>
</clipPath>
<g clip-path="url(#ClipPath_13)">
<clipPath clip-rule="nonzero" id="ClipPath_14">
<path d="M16.1124 10.4945L17.566 10.4945L17.566 8.83284L16.1124 8.83284L16.1124 10.4945Z"/>
</clipPath>
<g clip-path="url(#ClipPath_14)">
<path d="M16.8177 9.53816C16.832 9.62186 16.8463 9.70546 16.8606 9.78915" fill="none" opacity="1" stroke="#000000" stroke-linecap="round" stroke-linejoin="round" stroke-width="1.29314" vectornator:layerName="path"/>
</g>
</g>
</g>
<g opacity="1" vectornator:layerName="path 7">
<clipPath clip-rule="nonzero" id="ClipPath_15">
<path d="M19.3122 10.8774L20.7527 10.8774L20.7527 8.808L19.3122 8.808L19.3122 10.8774Z"/>
</clipPath>
<g clip-path="url(#ClipPath_15)">
<clipPath clip-rule="nonzero" id="ClipPath_16">
<path d="M19.3122 10.8774L20.7527 10.8774L20.7527 8.808L19.3122 8.808L19.3122 10.8774Z"/>
</clipPath>
<g clip-path="url(#ClipPath_16)">
<path d="M20.0176 9.5134C20.0275 9.733 20.0374 9.9525 20.0473 10.1721" fill="none" opacity="1" stroke="#000000" stroke-linecap="round" stroke-linejoin="round" stroke-width="1.29317" vectornator:layerName="path"/>
</g>
</g>
</g>
<g opacity="1" vectornator:layerName="path 8">
<clipPath clip-rule="nonzero" id="ClipPath_17">
<path d="M22.6644 10.7545L24.1528 10.7545L24.1528 8.76674L22.6644 8.76674L22.6644 10.7545Z"/>
</clipPath>
<g clip-path="url(#ClipPath_17)">
<clipPath clip-rule="nonzero" id="ClipPath_18">
<path d="M22.6644 10.7545L24.1528 10.7545L24.1528 8.76674L22.6644 8.76674L22.6644 10.7545Z"/>
</clipPath>
<g clip-path="url(#ClipPath_18)">
<path d="M23.4146 9.47208C23.3847 9.73588 23.3956 9.92829 23.4474 10.0491" fill="none" opacity="1" stroke="#000000" stroke-linecap="round" stroke-linejoin="round" stroke-width="1.29318" vectornator:layerName="path"/>
</g>
</g>
</g>
<g opacity="1" vectornator:layerName="path 9">
<clipPath clip-rule="nonzero" id="ClipPath_19">
<path d="M25.8504 10.637L27.2958 10.637L27.2958 8.71724L25.8504 8.71724L25.8504 10.637Z"/>
</clipPath>
<g clip-path="url(#ClipPath_19)">
<clipPath clip-rule="nonzero" id="ClipPath_20">
<path d="M25.8504 10.637L27.2958 10.637L27.2958 8.71724L25.8504 8.71724L25.8504 10.637Z"/>
</clipPath>
<g clip-path="url(#ClipPath_20)">
<path d="M26.5558 9.42266C26.5673 9.59227 26.5789 9.76198 26.5905 9.93169" fill="none" opacity="1" stroke="#000000" stroke-linecap="round" stroke-linejoin="round" stroke-width="1.2932" vectornator:layerName="path"/>
</g>
</g>
</g>
<g opacity="1" vectornator:layerName="path 10">
<clipPath clip-rule="nonzero" id="ClipPath_21">
<path d="M32.2873 10.6178L33.8265 10.6178L33.8265 8.49641L32.2873 8.49641L32.2873 10.6178Z"/>
</clipPath>
<g clip-path="url(#ClipPath_21)">
<clipPath clip-rule="nonzero" id="ClipPath_22">
<path d="M32.2873 10.6178L33.8265 10.6178L33.8265 8.49641L32.2873 8.49641L32.2873 10.6178Z"/>
</clipPath>
<g clip-path="url(#ClipPath_22)">
<path d="M32.9926 9.20178C33.0353 9.22668 33.0609 9.26778 33.0693 9.32518C33.0815 9.40779 33.0988 9.6035 33.1212 9.91231" fill="none" opacity="1" stroke="#000000" stroke-linecap="round" stroke-linejoin="round" stroke-width="1.29317" vectornator:layerName="path"/>
</g>
</g>
</g>
<g opacity="1" vectornator:layerName="path 11">
<clipPath clip-rule="nonzero" id="ClipPath_23">
<path d="M35.6965 10.5373L37.2034 10.5373L37.2034 8.34621L35.6965 8.34621L35.6965 10.5373Z"/>
</clipPath>
<g clip-path="url(#ClipPath_23)">
<clipPath clip-rule="nonzero" id="ClipPath_24">
<path d="M35.6965 10.5373L37.2034 10.5373L37.2034 8.34621L35.6965 8.34621L35.6965 10.5373Z"/>
</clipPath>
<g clip-path="url(#ClipPath_24)">
<path d="M36.4018 9.05159C36.442 9.05159 36.467 9.07709 36.4769 9.12829C36.491 9.20139 36.4968 9.43599 36.4944 9.8319" fill="none" opacity="1" stroke="#000000" stroke-linecap="round" stroke-linejoin="round" stroke-width="1.29317" vectornator:layerName="path"/>
</g>
</g>
</g>
<g opacity="1" vectornator:layerName="path 12">
<clipPath clip-rule="nonzero" id="ClipPath_25">
<path d="M39.4716 10.4917L40.9252 10.4917L40.9252 8.47694L39.4716 8.47694L39.4716 10.4917Z"/>
</clipPath>
<g clip-path="url(#ClipPath_25)">
<clipPath clip-rule="nonzero" id="ClipPath_26">
<path d="M39.4716 10.4917L40.9252 10.4917L40.9252 8.47694L39.4716 8.47694L39.4716 10.4917Z"/>
</clipPath>
<g clip-path="url(#ClipPath_26)">
<path d="M40.177 9.18234C40.2056 9.28074 40.21 9.48204 40.1902 9.78633" fill="none" opacity="1" stroke="#000000" stroke-linecap="round" stroke-linejoin="round" stroke-width="1.29316" vectornator:layerName="path"/>
</g>
</g>
</g>
<g opacity="1" vectornator:layerName="path 13">
<clipPath clip-rule="nonzero" id="ClipPath_27">
<path d="M42.7972 10.7184L44.2601 10.7184L44.2601 8.62611L42.7972 8.62611L42.7972 10.7184Z"/>
</clipPath>
<g clip-path="url(#ClipPath_27)">
<clipPath clip-rule="nonzero" id="ClipPath_28">
<path d="M42.7972 10.7184L44.2601 10.7184L44.2601 8.62611L42.7972 8.62611L42.7972 10.7184Z"/>
</clipPath>
<g clip-path="url(#ClipPath_28)">
<path d="M43.5122 9.33151C43.5058 9.64551 43.52 9.87271 43.5548 10.0131" fill="none" opacity="1" stroke="#000000" stroke-linecap="round" stroke-linejoin="round" stroke-width="1.2932" vectornator:layerName="path"/>
</g>
</g>
</g>
<g opacity="1" vectornator:layerName="path 14">
<clipPath clip-rule="nonzero" id="ClipPath_29">
<path d="M13.1144 13.8354L15.2888 13.8354L15.2888 12.3888L13.1144 12.3888L13.1144 13.8354Z"/>
</clipPath>
<g clip-path="url(#ClipPath_29)">
<clipPath clip-rule="nonzero" id="ClipPath_30">
<path d="M13.1144 13.8354L15.2888 13.8354L15.2888 12.3888L13.1144 12.3888L13.1144 13.8354Z"/>
</clipPath>
<g clip-path="url(#ClipPath_30)">
<path d="M13.8198 13.1239C13.9877 13.1041 14.2422 13.1061 14.5834 13.1301" fill="none" opacity="1" stroke="#000000" stroke-linecap="round" stroke-linejoin="round" stroke-width="1.29314" vectornator:layerName="path"/>
</g>
</g>
</g>
<g opacity="1" vectornator:layerName="path 15">
<clipPath clip-rule="nonzero" id="ClipPath_31">
<path d="M12.9002 17.2255L15.2504 17.2255L15.2504 15.8024L12.9002 15.8024L12.9002 17.2255Z"/>
</clipPath>
<g clip-path="url(#ClipPath_31)">
<clipPath clip-rule="nonzero" id="ClipPath_32">
<path d="M12.9002 17.2255L15.2504 17.2255L15.2504 15.8024L12.9002 15.8024L12.9002 17.2255Z"/>
</clipPath>
<g clip-path="url(#ClipPath_32)">
<path d="M13.6056 16.5077C13.9187 16.5119 14.2319 16.516 14.545 16.5201" fill="none" opacity="1" stroke="#000000" stroke-linecap="round" stroke-linejoin="round" stroke-width="1.29316" vectornator:layerName="path"/>
</g>
</g>
</g>
<g opacity="1" vectornator:layerName="path 16">
<clipPath clip-rule="nonzero" id="ClipPath_33">
<path d="M12.7403 20.8631L14.9042 20.8631L14.9042 19.3806L12.7403 19.3806L12.7403 20.8631Z"/>
</clipPath>
<g clip-path="url(#ClipPath_33)">
<clipPath clip-rule="nonzero" id="ClipPath_34">
<path d="M12.7403 20.8631L14.9042 20.8631L14.9042 19.3806L12.7403 19.3806L12.7403 20.8631Z"/>
</clipPath>
<g clip-path="url(#ClipPath_34)">
<path d="M13.4457 20.1213C13.5197 20.0977 13.611 20.0868 13.7194 20.0885C13.8815 20.091 14.0413 20.114 14.1989 20.1577" fill="none" opacity="1" stroke="#000000" stroke-linecap="round" stroke-linejoin="round" stroke-width="1.29316" vectornator:layerName="path"/>
</g>
</g>
</g>
<g opacity="1" vectornator:layerName="path 17">
<clipPath clip-rule="nonzero" id="ClipPath_35">
<path d="M44.4877 14.3797L46.8935 14.3797L46.8935 12.8919L44.4877 12.8919L44.4877 14.3797Z"/>
</clipPath>
<g clip-path="url(#ClipPath_35)">
<clipPath clip-rule="nonzero" id="ClipPath_36">
<path d="M44.4877 14.3797L46.8935 14.3797L46.8935 12.8919L44.4877 12.8919L44.4877 14.3797Z"/>
</clipPath>
<g clip-path="url(#ClipPath_36)">
<path d="M45.1931 13.6742C45.6628 13.6324 45.9945 13.6067 46.1881 13.5973" fill="none" opacity="1" stroke="#000000" stroke-linecap="round" stroke-linejoin="round" stroke-width="1.29319" vectornator:layerName="path"/>
</g>
</g>
</g>
<g opacity="1" vectornator:layerName="path 18">
<clipPath clip-rule="nonzero" id="ClipPath_37">
<path d="M44.4586 17.9011L46.954 17.9011L46.954 16.4721L44.4586 16.4721L44.4586 17.9011Z"/>
</clipPath>
<g clip-path="url(#ClipPath_37)">
<clipPath clip-rule="nonzero" id="ClipPath_38">
<path d="M44.4586 17.9011L46.954 17.9011L46.954 16.4721L44.4586 16.4721L44.4586 17.9011Z"/>
</clipPath>
<g clip-path="url(#ClipPath_38)">
<path d="M45.164 17.1774C45.5256 17.1835 45.8872 17.1896 46.2488 17.1957" fill="none" opacity="1" stroke="#000000" stroke-linecap="round" stroke-linejoin="round" stroke-width="1.29315" vectornator:layerName="path"/>
</g>
</g>
</g>
<g opacity="1" vectornator:layerName="path 19">
<clipPath clip-rule="nonzero" id="ClipPath_39">
<path d="M44.3025 22.0147L46.7403 22.0147L46.7403 20.4794L44.3025 20.4794L44.3025 22.0147Z"/>
</clipPath>
<g clip-path="url(#ClipPath_39)">
<clipPath clip-rule="nonzero" id="ClipPath_40">
<path d="M44.3025 22.0147L46.7403 22.0147L46.7403 20.4794L44.3025 20.4794L44.3025 22.0147Z"/>
</clipPath>
<g clip-path="url(#ClipPath_40)">
<path d="M45.008 21.1848C45.1533 21.2119 45.3002 21.2323 45.4486 21.2461C45.6758 21.2673 45.8713 21.2884 46.035 21.3094" fill="none" opacity="1" stroke="#000000" stroke-linecap="round" stroke-linejoin="round" stroke-width="1.29316" vectornator:layerName="path"/>
</g>
</g>
</g>
<g opacity="1" vectornator:layerName="path 20">
<clipPath clip-rule="nonzero" id="ClipPath_41">
<path d="M23.9812 25.4294L25.4923 25.4294L25.4923 22.8719L23.9812 22.8719L23.9812 25.4294Z"/>
</clipPath>
<g clip-path="url(#ClipPath_41)">
<clipPath clip-rule="nonzero" id="ClipPath_42">
<path d="M23.9812 25.4294L25.4923 25.4294L25.4923 22.8719L23.9812 22.8719L23.9812 25.4294Z"/>
</clipPath>
<g clip-path="url(#ClipPath_42)">
<path d="M24.6865 23.5773C24.7094 23.7578 24.7268 23.9588 24.7389 24.1805C24.7509 24.4021 24.7669 24.5833 24.7869 24.7242" fill="none" opacity="1" stroke="#000000" stroke-linecap="round" stroke-linejoin="round" stroke-width="1.29314" vectornator:layerName="path"/>
</g>
</g>
</g>
<g opacity="1" vectornator:layerName="path 21">
<clipPath clip-rule="nonzero" id="ClipPath_43">
<path d="M27.5953 25.2374L29.0595 25.2374L29.0595 22.8183L27.5953 22.8183L27.5953 25.2374Z"/>
</clipPath>
<g clip-path="url(#ClipPath_43)">
<clipPath clip-rule="nonzero" id="ClipPath_44">
<path d="M27.5953 25.2374L29.0595 25.2374L29.0595 22.8183L27.5953 22.8183L27.5953 25.2374Z"/>
</clipPath>
<g clip-path="url(#ClipPath_44)">
<path d="M28.3141 23.5236C28.3051 24.0279 28.3185 24.3641 28.3542 24.532" fill="none" opacity="1" stroke="#000000" stroke-linecap="round" stroke-linejoin="round" stroke-width="1.29317" vectornator:layerName="path"/>
</g>
</g>
</g>
<g opacity="1" vectornator:layerName="path 22">
<clipPath clip-rule="nonzero" id="ClipPath_45">
<path d="M31.1522 25.2924L32.6408 25.2924L32.6408 22.6805L31.1522 22.6805L31.1522 25.2924Z"/>
</clipPath>
<g clip-path="url(#ClipPath_45)">
<clipPath clip-rule="nonzero" id="ClipPath_46">
<path d="M31.1522 25.2924L32.6408 25.2924L32.6408 22.6805L31.1522 22.6805L31.1522 25.2924Z"/>
</clipPath>
<g clip-path="url(#ClipPath_46)">
<path d="M31.8831 23.3859C31.8661 23.554 31.8835 23.9544 31.9355 24.5871" fill="none" opacity="1" stroke="#000000" stroke-linecap="round" stroke-linejoin="round" stroke-width="1.2932" vectornator:layerName="path"/>
</g>
</g>
</g>
<g opacity="1" vectornator:layerName="path 23">
<clipPath clip-rule="nonzero" id="ClipPath_47">
<path d="M34.2318 25.211L35.8189 25.211L35.8189 22.6561L34.2318 22.6561L34.2318 25.211Z"/>
</clipPath>
<g clip-path="url(#ClipPath_47)">
<clipPath clip-rule="nonzero" id="ClipPath_48">
<path d="M34.2318 25.211L35.8189 25.211L35.8189 22.6561L34.2318 22.6561L34.2318 25.211Z"/>
</clipPath>
<g clip-path="url(#ClipPath_48)">
<path d="M34.9372 23.3615C34.9763 23.365 35.0055 23.5052 35.0249 23.7822C35.0444 24.0592 35.0739 24.3004 35.1136 24.5057" fill="none" opacity="1" stroke="#000000" stroke-linecap="round" stroke-linejoin="round" stroke-width="1.29316" vectornator:layerName="path"/>
</g>
</g>
</g>
<g opacity="1" vectornator:layerName="path 24">
<clipPath clip-rule="nonzero" id="ClipPath_49">
<path d="M16.1747 24.9594L17.6289 24.9594L17.6289 22.6616L16.1747 22.6616L16.1747 24.9594Z"/>
</clipPath>
<g clip-path="url(#ClipPath_49)">
<clipPath clip-rule="nonzero" id="ClipPath_50">
<path d="M16.1747 24.9594L17.6289 24.9594L17.6289 22.6616L16.1747 22.6616L16.1747 24.9594Z"/>
</clipPath>
<g clip-path="url(#ClipPath_50)">
<path d="M16.8801 23.3669C16.9041 23.656 16.9186 23.9517 16.9235 24.254" fill="none" opacity="1" stroke="#000000" stroke-linecap="round" stroke-linejoin="round" stroke-width="1.29316" vectornator:layerName="path"/>
</g>
</g>
</g>
<g opacity="1" vectornator:layerName="path 25">
<clipPath clip-rule="nonzero" id="ClipPath_51">
<path d="M41.2872 25.4626L42.8071 25.4626L42.8071 22.8324L41.2872 22.8324L41.2872 25.4626Z"/>
</clipPath>
<g clip-path="url(#ClipPath_51)">
<clipPath clip-rule="nonzero" id="ClipPath_52">
<path d="M41.2872 25.4626L42.8071 25.4626L42.8071 22.8324L41.2872 22.8324L41.2872 25.4626Z"/>
</clipPath>
<g clip-path="url(#ClipPath_52)">
<path d="M41.9925 23.6383C42.0007 23.5869 42.0056 23.5566 42.0071 23.5474C42.0081 23.5409 42.0101 23.5437 42.0131 23.5558C42.0161 23.5679 42.024 23.5993 42.0368 23.6501C42.0495 23.7009 42.0619 23.8226 42.0739 24.0153C42.0924 24.3118 42.0932 24.5591 42.0761 24.7572" fill="none" opacity="1" stroke="#000000" stroke-linecap="round" stroke-linejoin="round" stroke-width="1.29317" vectornator:layerName="path"/>
</g>
</g>
</g>
<g opacity="1" vectornator:layerName="path 29">
<clipPath clip-rule="nonzero" id="ClipPath_53">
<path d="M20.5428 20.4225L26.4185 20.4225L26.4185 14.0116L20.5428 14.0116L20.5428 20.4225Z"/>
</clipPath>
<g clip-path="url(#ClipPath_53)">
<clipPath clip-rule="nonzero" id="ClipPath_54">
<path d="M20.5428 20.4225L26.4185 20.4225L26.4185 14.0116L20.5428 14.0116L20.5428 20.4225Z"/>
</clipPath>
<g clip-path="url(#ClipPath_54)">
<path d="M21.6104 14.7704C21.5492 14.7369 21.4882 14.7521 21.4274 14.816C21.3853 14.8603 21.351 14.9206 21.3247 14.9969C21.2984 15.0732 21.2801 15.1723 21.2699 15.2942C21.2596 15.4161 21.254 15.5588 21.253 15.7224C21.252 15.8859 21.2612 16.0745 21.2806 16.288C21.3 16.5015 21.3334 16.7232 21.3809 16.953C21.4283 17.1829 21.4896 17.4215 21.5648 17.6689C21.64 17.9163 21.7217 18.1627 21.8099 18.408C21.8982 18.6534 21.9922 18.867 22.092 19.049C22.1919 19.2308 22.3028 19.3733 22.425 19.4762C22.5472 19.5792 22.6843 19.6445 22.8362 19.6723C22.9882 19.7 23.1357 19.6847 23.2788 19.6266C23.4219 19.5684 23.5577 19.4744 23.6863 19.3444C23.8149 19.2145 23.9339 19.0517 24.0432 18.856C24.1525 18.6602 24.254 18.4452 24.3479 18.2111C24.4417 17.977 24.5285 17.7311 24.6083 17.4734C24.6881 17.2158 24.7588 16.9638 24.8204 16.7174C24.8821 16.471 24.9295 16.2498 24.9627 16.0537C24.996 15.8577 25.0194 15.6938 25.033 15.5622C25.0467 15.4306 25.0562 15.2953 25.0616 15.1564C25.0671 15.0174 25.0699 14.9443 25.0702 14.9369C25.0705 14.9295 25.071 14.9294 25.0717 14.9366C25.0723 14.9437 25.0791 15.0148 25.092 15.1498C25.1049 15.2848 25.1209 15.4331 25.1401 15.5947C25.1594 15.7564 25.1797 15.9389 25.2011 16.1424C25.2226 16.3459 25.2531 16.6708 25.2928 17.1171C25.3325 17.5635 25.3642 17.9019 25.3881 18.1325C25.4119 18.363 25.4389 18.5715 25.4689 18.758C25.5141 19.0386 25.5944 19.2944 25.7099 19.5256" fill="none" opacity="1" stroke="#000000" stroke-linecap="round" stroke-linejoin="round" stroke-width="1.29921" vectornator:layerName="path"/>
</g>
</g>
</g>
<g opacity="1" vectornator:layerName="path 30">
<clipPath clip-rule="nonzero" id="ClipPath_55">
<path d="M27.3217 20.2754L32.7949 20.2754L32.7949 13.9709L27.3217 13.9709L27.3217 20.2754Z"/>
</clipPath>
<g clip-path="url(#ClipPath_55)">
<clipPath clip-rule="nonzero" id="ClipPath_56">
<path d="M27.3217 20.2754L32.7949 20.2754L32.7949 13.9709L27.3217 13.9709L27.3217 20.2754Z"/>
</clipPath>
<g clip-path="url(#ClipPath_56)">
<path d="M28.3265 19.5667C28.3265 19.4425 28.3142 19.2751 28.2896 19.0645C28.2649 18.8539 28.2341 18.5688 28.1971 18.2092C28.1601 17.8496 28.1293 17.5106 28.1048 17.1922C28.0802 16.8738 28.0634 16.6178 28.0543 16.424C28.0452 16.2303 28.0391 16.0441 28.036 15.8654C28.033 15.6868 28.0312 15.4862 28.0309 15.2639C28.0306 15.0415 28.0334 14.9022 28.0393 14.8461C28.0453 14.79 28.0534 14.7483 28.0638 14.7211C28.0741 14.6939 28.0955 14.6816 28.1278 14.6841C28.1602 14.6866 28.1976 14.7487 28.2403 14.8704C28.2829 14.992 28.3375 15.1713 28.4041 15.4082C28.4707 15.6451 28.5274 15.8321 28.5744 15.9691C28.6214 16.1061 28.6768 16.2581 28.7406 16.425C28.8043 16.592 28.8798 16.7674 28.9669 16.9514C29.054 17.1354 29.1441 17.3115 29.2373 17.4797C29.3306 17.648 29.4331 17.8133 29.5448 17.9759C29.6565 18.1384 29.7721 18.2858 29.8916 18.4183C30.0111 18.5507 30.1261 18.6619 30.2367 18.752C30.3473 18.8421 30.4582 18.9162 30.5695 18.9744C30.6808 19.0326 30.7677 19.0714 30.8303 19.0908C30.8929 19.1103 30.9755 19.1259 31.0782 19.1377C31.1809 19.1495 31.2989 19.156 31.4323 19.1573C31.5656 19.1586 31.6799 19.1382 31.7752 19.0959C31.8704 19.0537 31.9354 19.0113 31.9702 18.9687C32.005 18.9261 32.0312 18.8751 32.0487 18.8156C32.0663 18.7561 32.0769 18.6336 32.0807 18.4481C32.0844 18.2627 32.0574 18.0333 31.9996 17.76C31.9418 17.4868 31.877 17.1936 31.8051 16.8805C31.7333 16.5674 31.6603 16.1979 31.6603 16.1979C31.6356 16.056 31.6139 15.9189 31.5951 15.7866C31.5764 15.6544 31.5624 15.5353 31.5529 15.4294C31.5392 15.2755 31.5215 15.0255 31.4998 14.6796" fill="none" opacity="1" stroke="#000000" stroke-linecap="round" stroke-linejoin="round" stroke-width="1.29921" vectornator:layerName="path"/>
</g>
</g>
</g>
<g opacity="1" vectornator:layerName="path 31">
<clipPath clip-rule="nonzero" id="ClipPath_57">
<path d="M34.4153 19.2164L36.1328 19.2164L36.1328 14.0499L34.4153 14.0499L34.4153 19.2164Z"/>
</clipPath>
<g clip-path="url(#ClipPath_57)">
<clipPath clip-rule="nonzero" id="ClipPath_58">
<path d="M34.4153 19.2164L36.1328 19.2164L36.1328 14.0499L34.4153 14.0499L34.4153 19.2164Z"/>
</clipPath>
<g clip-path="url(#ClipPath_58)">
<path d="M35.1849 14.7586C35.1519 14.9438 35.1335 15.1332 35.1297 15.3266C35.126 15.5201 35.1241 15.802 35.124 16.1725C35.124 16.543 35.1268 16.8155 35.1324 16.9903C35.138 17.165 35.1499 17.334 35.1681 17.4971C35.1862 17.6604 35.2049 17.8076 35.2243 17.9387C35.2531 18.1341 35.3198 18.3238 35.4241 18.5078" fill="none" opacity="1" stroke="#000000" stroke-linecap="round" stroke-linejoin="round" stroke-width="1.29922" vectornator:layerName="path"/>
</g>
</g>
</g>
<g opacity="1" vectornator:layerName="path 32">
<clipPath clip-rule="nonzero" id="ClipPath_59">
<path d="M33.2424 20.4597L38.9593 20.4597L38.9593 13.2924L33.2424 13.2924L33.2424 20.4597Z"/>
</clipPath>
<g clip-path="url(#ClipPath_59)">
<clipPath clip-rule="nonzero" id="ClipPath_60">
<path d="M33.2424 20.4597L38.9593 20.4597L38.9593 13.2924L33.2424 13.2924L33.2424 20.4597Z"/>
</clipPath>
<g clip-path="url(#ClipPath_60)">
<path d="M34.1993 14.3735C34.1785 14.2629 34.1973 14.1732 34.2556 14.1042C34.2956 14.0569 34.3833 14.0281 34.5188 14.0177C34.6542 14.0073 34.8441 14.002 35.0884 14.0016C35.3327 14.0013 35.5268 14.0139 35.6707 14.0394C35.8145 14.0649 35.9635 14.1005 36.1177 14.1463C36.272 14.192 36.4337 14.253 36.603 14.3292C36.7723 14.4054 36.9304 14.492 37.0774 14.589C37.2243 14.6859 37.3662 14.8006 37.5032 14.933C37.6401 15.0654 37.759 15.2084 37.8598 15.362C37.9606 15.5156 38.0403 15.6766 38.0989 15.8451C38.1575 16.0135 38.1974 16.2031 38.2187 16.4138C38.24 16.6245 38.2415 16.8374 38.2233 17.0523C38.2051 17.2672 38.1465 17.4799 38.0477 17.6903C37.949 17.9008 37.8128 18.1022 37.6392 18.2945C37.4656 18.4868 37.264 18.6603 37.0345 18.815C36.8049 18.9697 36.5778 19.1019 36.3533 19.2116C36.1286 19.3213 35.9003 19.4147 35.6685 19.492C35.4366 19.5692 35.216 19.6272 35.0066 19.6658C34.6985 19.7227 34.3466 19.6874 33.951 19.5597" fill="none" opacity="1" stroke="#000000" stroke-linecap="round" stroke-linejoin="round" stroke-width="1.29922" vectornator:layerName="path"/>
</g>
</g>
</g>
</g>
<path d="M42.6637 13.3073" fill="none" opacity="1" stroke="#e5e5e5" stroke-linecap="butt" stroke-linejoin="round" stroke-width="1.29922" vectornator:layerName="Curve 1"/>
<path d="M43.0877 12.5651C43.2458 12.9423 43.2779 12.2573 43.3094 12.5026C43.3138 12.5364 43.2863 12.7534 43.1991 12.704C43.1476 12.6747 43.1249 12.3031 43.1832 12.3145C43.2451 12.3267 43.2831 12.6401 43.2073 12.6348C43.0907 12.6267 42.9538 12.2459 43.0877 12.5651Z" fill="none" opacity="1" stroke="#ffffff" stroke-linecap="round" stroke-linejoin="round" stroke-width="1.29922" vectornator:layerName="Curve 2"/>
<path d="M36.4866 17.6418C36.4816 17.6467 36.4767 17.6517 36.4717 17.6567" fill="none" opacity="1" stroke="#ffffff" stroke-linecap="round" stroke-linejoin="round" stroke-width="0.898738" vectornator:layerName="Curve 3"/>
<path d="M19.3588 21.2184C19.2239 21.151 19.7101 21.2495 19.7702 21.2518C20.0629 21.2626 21.1783 21.274 21.1044 21.274" fill="none" opacity="1" stroke="#ffffff" stroke-linecap="round" stroke-linejoin="round" stroke-width="0.898738" vectornator:layerName="Curve 4"/>
<path d="M16.5789 14.0088C16.5789 13.9174 16.6682 14.4093 16.5514 14.5261C16.5195 14.558 16.3915 14.1825 16.441 14.133C16.5618 14.0121 16.3847 14.56 16.5376 14.6364" fill="none" opacity="1" stroke="#ffffff" stroke-linecap="round" stroke-linejoin="round" stroke-width="0.898738" vectornator:layerName="Curve 5"/>
</g>
</g>
</svg>
