<?xml version="1.0" encoding="UTF-8" standalone="no"?>
<!DOCTYPE svg PUBLIC "-//W3C//DTD SVG 1.1//EN" "http://www.w3.org/Graphics/SVG/1.1/DTD/svg11.dtd">
<!-- Created with Vectornator (http://vectornator.io/) -->
<svg height="100%" stroke-miterlimit="10" style="fill-rule:nonzero;clip-rule:evenodd;stroke-linecap:round;stroke-linejoin:round;" version="1.1" viewBox="104.984 10.5008 9.72662 12.5306" width="100%" xml:space="preserve" xmlns="http://www.w3.org/2000/svg" xmlns:vectornator="http://vectornator.io" xmlns:xlink="http://www.w3.org/1999/xlink">
<defs/>
<clipPath id="ArtboardFrame">
<rect height="12.5306" width="9.72662" x="104.984" y="10.5008"/>
</clipPath>
<g clip-path="url(#ArtboardFrame)" id="Layer" vectornator:layerName="Layer">
<g opacity="1" vectornator:layerName="not2">
<g opacity="1" vectornator:layerName="path 37">
<clipPath clip-rule="nonzero" id="ClipPath">
<path d="M106.744 22.5259L113.45 22.5259L113.45 17.0694L106.744 17.0694L106.744 22.5259Z"/>
</clipPath>
<g clip-path="url(#ClipPath)">
<clipPath clip-rule="nonzero" id="ClipPath_2">
<path d="M106.744 22.5259L113.45 22.5259L113.45 17.0694L106.744 17.0694L106.744 22.5259Z"/>
</clipPath>
<g clip-path="url(#ClipPath_2)">
<path d="M110.07 17.8627C109.914 17.8607 109.833 17.8597 109.827 17.8596C109.823 17.8595 109.82 17.8601 109.818 17.8612C109.816 17.8623 109.799 17.8736 109.767 17.8949C109.734 17.9163 109.69 17.9778 109.633 18.0796C109.577 18.1813 109.532 18.2708 109.498 18.348C109.463 18.4252 109.434 18.4809 109.41 18.5152C109.385 18.5494 109.348 18.6221 109.296 18.7331C109.245 18.8441 109.183 18.9613 109.112 19.0848C109.04 19.2083 108.983 19.3005 108.938 19.3616C108.893 19.4226 108.846 19.4777 108.796 19.5268C108.745 19.5759 108.686 19.6284 108.618 19.6843C108.55 19.7401 108.492 19.795 108.443 19.849C108.395 19.903 108.347 19.9634 108.3 20.0301C108.254 20.0968 108.217 20.1596 108.189 20.2185C108.162 20.2774 108.117 20.3605 108.054 20.4678C107.992 20.575 107.932 20.6649 107.876 20.7372C107.819 20.8096 107.779 20.8773 107.756 20.9404C107.732 21.0035 107.702 21.0667 107.665 21.1301C107.629 21.1934 107.575 21.2791 107.503 21.387C107.43 21.495 107.378 21.5703 107.346 21.613C107.314 21.6557 107.288 21.6966 107.269 21.7356C107.251 21.7745 107.241 21.808 107.241 21.836C107.241 21.8639 107.276 21.881 107.348 21.8873C107.42 21.8935 107.531 21.8967 107.68 21.8967C107.83 21.8967 107.978 21.887 108.124 21.8677C108.269 21.8483 108.442 21.8187 108.641 21.7788C108.839 21.7389 108.973 21.7147 109.041 21.7061C109.11 21.6976 109.287 21.6931 109.574 21.6927C109.86 21.6922 110.046 21.6977 110.132 21.7092C110.219 21.7208 110.334 21.7417 110.477 21.7721C110.621 21.8025 110.737 21.8209 110.823 21.8271C110.91 21.8333 111.042 21.8513 111.221 21.881C111.399 21.9106 111.528 21.9287 111.608 21.9351C111.688 21.9415 111.798 21.9565 111.938 21.9802C112.078 22.0039 112.231 22.0181 112.398 22.0227C112.565 22.0274 112.7 22.0286 112.801 22.0263C112.903 22.024 112.948 21.9971 112.938 21.9457C112.927 21.8943 112.878 21.7889 112.79 21.6294C112.703 21.4698 112.616 21.2969 112.53 21.1106C112.443 20.9242 112.366 20.766 112.296 20.6358C112.227 20.5057 112.162 20.3904 112.099 20.2899C112.037 20.1894 111.981 20.0957 111.931 20.0086C111.882 19.9216 111.826 19.8307 111.764 19.7359C111.702 19.6411 111.638 19.5497 111.574 19.4615C111.51 19.3734 111.458 19.297 111.418 19.2324C111.378 19.1678 111.33 19.0734 111.275 18.9491C111.221 18.8248 111.177 18.7343 111.145 18.6778C111.113 18.6212 111.049 18.5344 110.956 18.4173C110.862 18.3002 110.776 18.1838 110.697 18.0681C110.619 17.9524 110.562 17.8713 110.528 17.8248C110.494 17.7783 110.448 17.7235 110.391 17.6603C110.334 17.5971 110.29 17.6199 110.259 17.7287C110.228 17.8375 110.185 18.0807 110.129 18.4583C110.073 18.8359 110.026 19.1448 109.988 19.385C109.95 19.6252 109.92 19.8485 109.896 20.055C109.872 20.2614 109.86 20.3792 109.86 20.4083C109.859 20.4374 109.859 20.4536 109.859 20.4569C109.859 20.4602 109.859 20.4582 109.858 20.4509C109.857 20.4435 109.852 20.4077 109.843 20.3433C109.834 20.2789 109.83 20.1793 109.83 20.0447C109.829 19.9101 109.833 19.7739 109.841 19.636C109.848 19.4982 109.865 19.3143 109.891 19.0844C109.917 18.8544 109.934 18.7175 109.94 18.6736C109.946 18.6297 109.949 18.6064 109.949 18.6035C109.95 18.6007 109.95 18.6012 109.95 18.6052C109.95 18.6091 109.949 18.6414 109.947 18.7022C109.945 18.763 109.924 18.8782 109.885 19.048C109.845 19.2179 109.811 19.3516 109.781 19.4491C109.751 19.5467 109.719 19.6464 109.683 19.7481C109.648 19.8498 109.591 19.9959 109.513 20.1862C109.435 20.3765 109.369 20.5242 109.316 20.6293C109.262 20.7345 109.228 20.7973 109.213 20.8178C109.198 20.8384 109.18 20.8507 109.159 20.8549C109.139 20.8591 108.776 21.1643 108.771 21.0897C108.766 21.015 109.115 20.5995 109.116 20.5241C109.117 20.4487 109.143 20.3161 109.192 20.1263C109.242 19.9365 109.31 19.7089 109.397 19.4435C109.483 19.178 109.554 18.9794 109.611 18.8477C109.667 18.716 109.697 18.665 109.7 18.6946C109.702 18.7243 109.676 18.8105 109.619 18.9533C109.563 19.0961 109.513 19.2131 109.469 19.3045C109.426 19.3958 109.378 19.4892 109.325 19.5847C109.272 19.6803 109.217 19.7754 109.159 19.87C109.101 19.9645 109.008 20.1006 108.881 20.2781C108.753 20.4555 108.64 20.6064 108.541 20.7305C108.442 20.8547 108.367 20.9417 108.316 20.9916C108.266 21.0416 108.232 21.0695 108.217 21.0756C108.201 21.0816 108.195 21.0546 108.198 20.9947C108.202 20.9347 108.231 20.8441 108.285 20.7227C108.34 20.6013 108.386 20.5066 108.424 20.4387C108.461 20.3707 108.539 20.2476 108.658 20.0694C108.777 19.8911 108.861 19.7685 108.911 19.7016C108.961 19.6347 108.997 19.5904 109.02 19.5686C109.043 19.5468 109.056 19.5345 109.059 19.5315C109.063 19.5285 109.061 19.5327 109.054 19.5439C109.047 19.5551 109.018 19.6019 108.968 19.6843C108.917 19.7667 108.864 19.8485 108.807 19.93C108.751 20.0114 108.691 20.095 108.628 20.1809C108.564 20.2668 108.476 20.3913 108.365 20.5544C108.253 20.7176 108.158 20.8605 108.081 20.9833C108.003 21.1061 107.957 21.1785 107.943 21.2007C107.929 21.2229 107.925 21.2308 107.93 21.2244C107.935 21.2181 107.951 21.1972 107.979 21.1619C108.007 21.1266 108.074 21.0214 108.18 20.8461C108.286 20.6709 108.373 20.5302 108.441 20.4241C108.509 20.318 108.617 20.1544 108.766 19.9332C108.914 19.712 109.042 19.5255 109.148 19.3736C109.255 19.2217 109.336 19.1093 109.393 19.0364C109.451 18.9635 109.49 18.9186 109.512 18.9016C109.534 18.8847 109.545 18.9095 109.545 18.9759C109.546 19.0424 109.542 19.1134 109.536 19.1889C109.529 19.2644 109.505 19.4017 109.465 19.6009C109.424 19.8001 109.384 20.0099 109.343 20.2305C109.303 20.451 109.277 20.6045 109.266 20.6911C109.255 20.7776 109.249 20.8789 109.248 20.9948C109.247 21.1108 109.257 21.1653 109.279 21.1582C109.301 21.1512 109.334 21.0759 109.377 20.9322C109.421 20.7886 109.466 20.6059 109.514 20.3842C109.562 20.1626 109.603 19.9512 109.636 19.75C109.67 19.5488 109.702 19.3158 109.734 19.0509C109.765 18.7861 109.785 18.6697 109.795 18.7017C109.805 18.7338 109.81 19.047 109.81 19.6413C109.811 20.2355 109.816 20.5535 109.827 20.5951C109.837 20.6368 109.843 20.6605 109.845 20.6663C109.846 20.672 109.848 20.6615 109.851 20.6348C109.853 20.608 109.864 20.4981 109.883 20.3053C109.901 20.1124 109.929 19.8775 109.965 19.6005C110.001 19.3235 110.029 19.1086 110.048 18.9558C110.067 18.803 110.076 18.7395 110.077 18.7653C110.078 18.7912 110.08 18.8558 110.084 18.9591C110.087 19.0625 110.087 19.2824 110.083 19.619C110.079 19.9555 110.077 20.2208 110.076 20.4148C110.076 20.6088 110.079 20.7355 110.084 20.795C110.09 20.8545 110.105 20.9144 110.13 20.9747C110.155 21.035 110.176 21.0684 110.191 21.0748C110.206 21.0812 110.218 21.0454 110.228 20.9675C110.238 20.8896 110.247 20.7588 110.253 20.5751C110.259 20.3914 110.262 20.0256 110.263 19.4777C110.263 18.9298 110.263 18.6414 110.263 18.6126L110.263 18.5906L110.263 18.6111C110.263 18.6389 110.263 18.9171 110.263 19.4458C110.263 19.9744 110.267 20.2889 110.274 20.3893C110.28 20.4896 110.291 20.58 110.304 20.6605C110.318 20.741 110.334 20.8078 110.354 20.861C110.373 20.9142 110.4 20.9638 110.434 21.01C110.469 21.0562 110.497 21.0821 110.517 21.0876C110.538 21.0932 110.556 21.0457 110.57 20.9452C110.585 20.8447 110.596 20.6963 110.602 20.5002C110.609 20.3041 110.612 20.0692 110.612 19.7955C110.612 19.5218 110.61 19.3132 110.604 19.1696C110.598 19.0262 110.595 18.9505 110.595 18.9428L110.595 18.9364L110.595 18.9406C110.596 18.9468 110.6 19.0077 110.609 19.1232C110.617 19.2388 110.637 19.3952 110.668 19.5923C110.699 19.7895 110.725 19.9421 110.747 20.0501C110.768 20.1581 110.792 20.2609 110.818 20.3585C110.843 20.4561 110.868 20.5413 110.892 20.6142C110.917 20.6871 110.941 20.7507 110.966 20.8048C110.99 20.859 111.022 20.911 111.063 20.961C111.103 21.011 111.135 21.039 111.158 21.0451C111.181 21.0513 111.196 21.0096 111.203 20.9202C111.21 20.8308 111.213 20.7469 111.213 20.6684C111.214 20.59 111.211 20.5054 111.206 20.4146C111.2 20.3238 111.173 20.1502 111.124 19.8939C111.074 19.6375 111.039 19.4503 111.016 19.3323C110.994 19.2142 110.982 19.152 110.981 19.1456L110.98 19.1424L110.983 19.1553C110.986 19.1682 111.014 19.2936 111.067 19.5314C111.121 19.7692 111.171 19.9657 111.219 20.121C111.266 20.2763 111.316 20.4191 111.368 20.5494C111.421 20.6798 111.467 20.7846 111.508 20.8641C111.548 20.9435 111.582 20.997 111.608 21.0245C111.633 21.052 111.646 21.0391 111.644 20.9857C111.643 20.9323 111.626 20.8476 111.593 20.7317C111.561 20.6158 111.523 20.4974 111.479 20.3766C111.435 20.2557 111.393 20.134 111.354 20.0114C111.314 19.8887 111.292 19.8205 111.288 19.8066C111.283 19.7928 111.281 19.7887 111.281 19.7943C111.282 19.7999 111.283 19.8276 111.286 19.8774C111.289 19.9272 111.31 20.0446 111.349 20.2296C111.388 20.4146 111.427 20.5803 111.464 20.7265C111.502 20.8728 111.537 20.9956 111.569 21.0951C111.601 21.1945 111.631 21.2744 111.658 21.3348C111.685 21.3953 111.708 21.4405 111.726 21.4706C111.745 21.5007 111.754 21.5088 111.754 21.4949C111.754 21.481 111.753 21.4462 111.753 21.3905C111.752 21.3348 111.74 21.241 111.715 21.1091C111.691 20.9772 111.676 20.9 111.671 20.8777C111.665 20.8553 111.662 20.8422 111.661 20.8384C111.66 20.8346 111.668 20.8448 111.686 20.869C111.703 20.8932 111.763 20.9766 111.866 21.1191C111.968 21.2617 112.063 21.3879 112.151 21.4979C112.238 21.6078 112.287 21.6845 112.296 21.7278C112.306 21.7711 112.286 21.7924 112.238 21.7915C112.189 21.7907 112.15 21.7721 112.119 21.7357C112.074 21.6826 112.023 21.5992 111.966 21.4854" fill="none" opacity="1" stroke="#ffffff" stroke-linecap="round" stroke-linejoin="round" stroke-width="0.909451" vectornator:layerName="path"/>
<path d="M109.16 20.8465" fill="none" opacity="1" stroke="#ffffff" stroke-linecap="butt" stroke-linejoin="round" stroke-width="0.909451" vectornator:layerName="Curve 2"/>
<path d="M108.332 20.9451" fill="none" opacity="1" stroke="#ffffff" stroke-linecap="butt" stroke-linejoin="round" stroke-width="0.909451" vectornator:layerName="Curve 1"/>
</g>
</g>
</g>
<g opacity="1" vectornator:layerName="path 38">
<clipPath clip-rule="nonzero" id="ClipPath_3">
<path d="M105.468 22.4375L110.279 22.4375L110.279 15.8804L105.468 15.8804L105.468 22.4375Z"/>
</clipPath>
<g clip-path="url(#ClipPath_3)">
<clipPath clip-rule="nonzero" id="ClipPath_4">
<path d="M105.468 22.4375L110.279 22.4375L110.279 15.8804L105.468 15.8804L105.468 22.4375Z"/>
</clipPath>
<g clip-path="url(#ClipPath_4)">
<path d="M109.57 16.589C109.54 16.7234 109.417 16.9554 109.2 17.2848C108.983 17.6142 108.812 17.8803 108.686 18.0829C108.561 18.2856 108.342 18.6064 108.03 19.0454C107.718 19.4844 107.412 19.9209 107.113 20.355C106.605 21.0923 106.293 21.5502 106.176 21.7288" fill="none" opacity="1" stroke="#000000" stroke-linecap="round" stroke-linejoin="round" stroke-width="1.29921" vectornator:layerName="path"/>
</g>
</g>
</g>
<g opacity="1" vectornator:layerName="path 39">
<clipPath clip-rule="nonzero" id="ClipPath_5">
<path d="M109.398 23.0314L114.71 23.0314L114.71 15.9971L109.398 15.9971L109.398 23.0314Z"/>
</clipPath>
<g clip-path="url(#ClipPath_5)">
<clipPath clip-rule="nonzero" id="ClipPath_6">
<path d="M109.398 23.0314L114.71 23.0314L114.71 15.9971L109.398 15.9971L109.398 23.0314Z"/>
</clipPath>
<g clip-path="url(#ClipPath_6)">
<path d="M110.107 16.7058C110.292 16.9677 110.447 17.1803 110.572 17.3437C110.656 17.4549 110.769 17.5958 110.908 17.7666C111.047 17.9374 111.196 18.127 111.354 18.3354C111.512 18.5437 111.675 18.7719 111.841 19.0199C112.007 19.2679 112.177 19.5385 112.349 19.8316C112.521 20.1247 112.682 20.403 112.832 20.6664C113.05 21.0498 113.44 21.6019 114.002 22.3227" fill="none" opacity="1" stroke="#000000" stroke-linecap="round" stroke-linejoin="round" stroke-width="1.29922" vectornator:layerName="path"/>
</g>
</g>
</g>
<g opacity="1" vectornator:layerName="path 40">
<clipPath clip-rule="nonzero" id="ClipPath_7">
<path d="M104.984 22.9645L114.559 22.9645L114.559 21.4516L104.984 21.4516L104.984 22.9645Z"/>
</clipPath>
<g clip-path="url(#ClipPath_7)">
<clipPath clip-rule="nonzero" id="ClipPath_8">
<path d="M104.984 22.9645L114.559 22.9645L114.559 21.4516L104.984 21.4516L104.984 22.9645Z"/>
</clipPath>
<g clip-path="url(#ClipPath_8)">
<path d="M105.692 22.1978C105.821 22.1728 106.043 22.1663 106.359 22.1782C106.676 22.1902 107.001 22.1976 107.337 22.2006C107.672 22.2035 108.554 22.205 109.982 22.205C111.411 22.205 112.7 22.222 113.851 22.2559" fill="none" opacity="1" stroke="#000000" stroke-linecap="round" stroke-linejoin="round" stroke-width="1.29919" vectornator:layerName="path"/>
</g>
</g>
</g>
<g opacity="1" vectornator:layerName="path 43">
<clipPath clip-rule="nonzero" id="ClipPath_9">
<path d="M108.222 16.4777L112.163 16.4777L112.163 12.2925L108.222 12.2925L108.222 16.4777Z"/>
</clipPath>
<g clip-path="url(#ClipPath_9)">
<clipPath clip-rule="nonzero" id="ClipPath_10">
<path d="M108.222 16.4777L112.163 16.4777L112.163 12.2925L108.222 12.2925L108.222 16.4777Z"/>
</clipPath>
<g clip-path="url(#ClipPath_10)">
<path d="M110.216 14.2876C110.094 14.2587 110.027 14.3276 110.013 14.4942C110.003 14.6133 109.984 14.6941 109.956 14.7365C109.927 14.7789 109.89 14.8075 109.844 14.8223C109.798 14.8372 109.76 14.8448 109.73 14.8451C109.701 14.8455 109.667 14.8323 109.629 14.8057C109.591 14.7791 109.561 14.7451 109.538 14.7038C109.516 14.6625 109.494 14.605 109.471 14.5314C109.448 14.4579 109.434 14.3941 109.427 14.3401C109.421 14.2862 109.417 14.2185 109.417 14.1372C109.417 14.0559 109.422 13.9998 109.433 13.9689C109.444 13.9379 109.476 13.9055 109.531 13.8714C109.585 13.8374 109.65 13.8178 109.725 13.8126C109.8 13.8073 109.857 13.8064 109.895 13.8099C109.933 13.8133 109.971 13.8259 110.009 13.8478C110.047 13.8696 110.096 13.9121 110.155 13.9752C110.214 14.0383 110.262 14.1049 110.3 14.175C110.338 14.2452 110.362 14.3171 110.371 14.3909C110.381 14.4647 110.372 14.5162 110.345 14.5453C110.318 14.5744 110.281 14.6002 110.234 14.6226C110.186 14.645 110.137 14.6615 110.087 14.6719C110.037 14.6824 109.986 14.6877 109.936 14.688C109.885 14.6882 109.848 14.676 109.825 14.6512C109.803 14.6265 109.789 14.5615 109.784 14.4563C109.78 14.351 109.78 14.2754 109.786 14.2296C109.792 14.1837 109.807 14.1304 109.832 14.0696C109.858 14.0088 109.887 13.9561 109.921 13.9115C109.955 13.8669 110.001 13.8303 110.06 13.8019C110.118 13.7735 110.172 13.7578 110.221 13.7548C110.27 13.7518 110.319 13.7686 110.368 13.8052C110.416 13.8417 110.466 13.9089 110.517 14.0065C110.569 14.1042 110.607 14.2005 110.633 14.2956C110.659 14.3906 110.673 14.4828 110.676 14.572C110.679 14.6613 110.664 14.7389 110.632 14.8048C110.599 14.8707 110.555 14.9284 110.5 14.9777C110.444 15.0271 110.394 15.0623 110.351 15.0835C110.307 15.1046 110.244 15.1221 110.16 15.1361C110.076 15.1501 109.994 15.1555 109.913 15.1523C109.833 15.1492 109.765 15.1322 109.711 15.1014C109.657 15.0706 109.611 15.0325 109.574 14.9873C109.537 14.9421 109.508 14.8933 109.487 14.841C109.466 14.7887 109.452 14.7326 109.445 14.6729C109.438 14.6131 109.435 14.5533 109.435 14.4934C109.435 14.4334 109.441 14.3759 109.453 14.3208C109.466 14.2658 109.496 14.1954 109.544 14.1096C109.592 14.0239 109.646 13.9506 109.708 13.8898C109.769 13.8289 109.822 13.7839 109.868 13.7549C109.913 13.7258 109.962 13.7021 110.013 13.6838C110.064 13.6655 110.141 13.6538 110.242 13.6489C110.344 13.6439 110.421 13.6508 110.474 13.6696C110.526 13.6884 110.575 13.7147 110.621 13.7484C110.667 13.7822 110.721 13.8316 110.784 13.8968C110.847 13.9619 110.898 14.0295 110.936 14.0995C110.974 14.1696 111 14.2447 111.014 14.3248C111.028 14.4049 111.035 14.484 111.033 14.562C111.031 14.64 111.017 14.7034 110.99 14.752C110.964 14.8006 110.93 14.8452 110.889 14.8857C110.848 14.9263 110.803 14.9639 110.756 14.9985C110.708 15.0331 110.657 15.0657 110.601 15.0963C110.546 15.1268 110.475 15.1545 110.387 15.1794C110.3 15.2043 110.206 15.2179 110.104 15.2203C110.002 15.2228 109.918 15.2128 109.854 15.1906C109.79 15.1683 109.731 15.1355 109.676 15.0922C109.621 15.0488 109.575 14.9999 109.536 14.9455C109.497 14.891 109.464 14.8266 109.436 14.7523C109.409 14.678 109.391 14.5971 109.382 14.5098C109.374 14.4223 109.37 14.3183 109.372 14.1978C109.374 14.0773 109.387 13.9805 109.411 13.9076C109.436 13.8346 109.475 13.757 109.529 13.6746C109.583 13.5922 109.633 13.5301 109.678 13.4882C109.724 13.4464 109.77 13.4136 109.815 13.3899C109.861 13.3662 109.909 13.3486 109.96 13.3372C110.011 13.3258 110.076 13.3195 110.153 13.3182C110.231 13.317 110.295 13.3277 110.347 13.3505C110.399 13.3733 110.463 13.4143 110.537 13.4736C110.612 13.5328 110.682 13.6002 110.749 13.6757C110.816 13.7512 110.871 13.8288 110.914 13.9085C110.958 13.9881 110.987 14.0557 111.002 14.1112C111.017 14.1667 111.027 14.2462 111.033 14.3497C111.038 14.4532 111.031 14.5297 111.011 14.5796C110.992 14.6294 110.962 14.6761 110.922 14.7194C110.883 14.7628 110.838 14.8007 110.788 14.8332C110.738 14.8657 110.684 14.8954 110.626 14.9223C110.567 14.9493 110.485 14.9788 110.381 15.0108C110.277 15.0428 110.166 15.0613 110.05 15.0662C109.933 15.0711 109.837 15.069 109.761 15.06C109.685 15.051 109.612 15.0301 109.541 14.9973C109.469 14.9645 109.408 14.9254 109.357 14.8798C109.306 14.8342 109.265 14.7839 109.236 14.7289C109.206 14.674 109.185 14.6123 109.172 14.5441C109.159 14.4759 109.152 14.4038 109.152 14.3279C109.152 14.252 109.159 14.1733 109.173 14.0918C109.187 14.0102 109.213 13.9278 109.251 13.8446C109.288 13.7614 109.334 13.6797 109.387 13.5994C109.441 13.5192 109.493 13.4495 109.546 13.3903C109.598 13.3311 109.651 13.2808 109.706 13.2395C109.76 13.1981 109.818 13.1641 109.88 13.1376C109.942 13.111 110.002 13.0933 110.06 13.0842C110.118 13.0752 110.175 13.0706 110.229 13.0703C110.283 13.0701 110.337 13.0835 110.39 13.1105C110.444 13.1376 110.497 13.1771 110.55 13.2291C110.604 13.2811 110.652 13.3419 110.694 13.4116C110.737 13.4812 110.776 13.5566 110.81 13.6376C110.845 13.7186 110.876 13.8043 110.902 13.8947C110.928 13.9851 110.949 14.0695 110.965 14.1479C110.98 14.2263 110.992 14.3083 110.999 14.3939C111.006 14.4794 111.009 14.5639 111.01 14.6473C111.011 14.7308 111.009 14.8016 111.003 14.8596C110.998 14.9176 110.981 14.9774 110.952 15.0389C110.923 15.1004 110.889 15.1516 110.85 15.1924C110.81 15.2333 110.748 15.2809 110.663 15.3353C110.578 15.3897 110.486 15.4334 110.388 15.4665C110.289 15.4996 110.159 15.5187 109.995 15.5239C109.832 15.5291 109.707 15.5185 109.62 15.492C109.534 15.4656 109.452 15.4297 109.375 15.3843C109.298 15.339 109.228 15.2847 109.165 15.2214C109.102 15.1581 109.052 15.0878 109.016 15.0105C108.979 14.9332 108.952 14.8505 108.936 14.7624C108.921 14.6743 108.913 14.5856 108.912 14.4966C108.912 14.4075 108.925 14.3183 108.951 14.2291C108.977 14.1398 109.012 14.0596 109.055 13.9883C109.099 13.917 109.15 13.85 109.207 13.7873C109.265 13.7246 109.326 13.668 109.392 13.6175C109.457 13.5671 109.524 13.5252 109.592 13.4917C109.659 13.4583 109.727 13.4332 109.796 13.4164C109.864 13.3997 109.969 13.3898 110.109 13.3868C110.249 13.3838 110.354 13.3917 110.422 13.4105C110.49 13.4292 110.559 13.4563 110.627 13.4916C110.696 13.527 110.761 13.5665 110.822 13.6101C110.883 13.6537 110.942 13.7028 110.998 13.7575C111.055 13.8122 111.106 13.8704 111.152 13.9321C111.197 13.9938 111.237 14.0583 111.27 14.1255C111.303 14.1928 111.329 14.2576 111.348 14.3199C111.367 14.3822 111.379 14.4716 111.384 14.5878C111.388 14.7041 111.378 14.7909 111.353 14.8482C111.327 14.9055 111.289 14.965 111.238 15.0266C111.187 15.0882 111.126 15.1489 111.057 15.2087C110.988 15.2685 110.916 15.3225 110.841 15.3706C110.767 15.4187 110.69 15.4636 110.609 15.5052C110.529 15.5469 110.448 15.5811 110.366 15.6081C110.284 15.635 110.204 15.6516 110.126 15.6579C110.048 15.6641 109.971 15.6667 109.894 15.6656C109.818 15.6645 109.748 15.6476 109.684 15.6149C109.62 15.5821 109.563 15.5398 109.511 15.488C109.459 15.4361 109.417 15.3751 109.385 15.305C109.352 15.2349 109.329 15.1567 109.316 15.0702C109.302 14.9837 109.294 14.8873 109.293 14.7809C109.291 14.6746 109.297 14.5683 109.309 14.4621C109.322 14.3559 109.344 14.2466 109.375 14.1342C109.407 14.0219 109.443 13.92 109.485 13.8287C109.527 13.7373 109.568 13.6607 109.608 13.5988C109.648 13.5369 109.692 13.4806 109.74 13.4299C109.788 13.3793 109.837 13.3402 109.886 13.3126C109.935 13.285 110 13.2628 110.081 13.2461C110.162 13.2295 110.246 13.2227 110.332 13.2259C110.419 13.2291 110.492 13.2419 110.552 13.2641C110.612 13.2863 110.673 13.3129 110.735 13.3439C110.797 13.3749 110.873 13.4231 110.963 13.4885C111.053 13.5539 111.137 13.6264 111.216 13.7062C111.295 13.786 111.355 13.8546 111.396 13.912C111.437 13.9695 111.472 14.0251 111.5 14.0787C111.529 14.1324 111.555 14.1969 111.578 14.2724C111.601 14.3479 111.613 14.4308 111.614 14.5212C111.614 14.6114 111.608 14.6695 111.595 14.6953C111.582 14.7212 111.554 14.7553 111.512 14.7978C111.469 14.8403 111.414 14.8826 111.346 14.9247C111.278 14.9668 111.202 15.0052 111.118 15.0398C111.033 15.0745 110.948 15.1035 110.862 15.1268C110.776 15.1502 110.689 15.1703 110.598 15.1872C110.508 15.2041 110.374 15.2118 110.195 15.2102C110.016 15.2086 109.903 15.2012 109.857 15.188C109.81 15.1748 109.75 15.1476 109.677 15.1063C109.604 15.0651 109.535 15.0112 109.472 14.9446C109.409 14.8781 109.36 14.8041 109.324 14.7226C109.289 14.6412 109.265 14.5563 109.254 14.4682C109.242 14.38 109.24 14.2671 109.248 14.1297C109.255 13.9923 109.274 13.8835 109.305 13.8034C109.336 13.7233 109.373 13.6481 109.417 13.5776C109.46 13.5071 109.505 13.4431 109.552 13.3857C109.599 13.3283 109.651 13.2746 109.708 13.2244C109.765 13.1743 109.82 13.1337 109.875 13.1026C109.93 13.0715 109.988 13.0467 110.047 13.0282C110.106 13.0096 110.177 12.9988 110.258 12.9958C110.34 12.9929 110.408 13.0054 110.46 13.0336C110.513 13.0617 110.562 13.1003 110.609 13.1493C110.656 13.1983 110.7 13.2528 110.743 13.3126C110.785 13.3724 110.822 13.4354 110.855 13.5015C110.888 13.5676 110.921 13.6469 110.954 13.7395C110.987 13.8321 111.013 13.9246 111.031 14.017C111.049 14.1093 111.061 14.221 111.065 14.3519C111.07 14.4828 111.064 14.5711 111.045 14.617C111.027 14.6628 111 14.7083 110.966 14.7533C110.932 14.7983 110.891 14.8398 110.845 14.8778C110.798 14.9158 110.748 14.952 110.692 14.9863C110.637 15.0207 110.577 15.053 110.512 15.0834C110.447 15.1138 110.38 15.1393 110.313 15.1598C110.245 15.1803 110.175 15.1959 110.1 15.2066C110.026 15.2173 109.931 15.2228 109.814 15.2233C109.698 15.2237 109.603 15.2137 109.531 15.1932C109.458 15.1727 109.39 15.1428 109.325 15.1037C109.26 15.0645 109.203 15.0192 109.154 14.9678C109.105 14.9164 109.065 14.8588 109.034 14.7949C109.002 14.731 108.992 14.5909 109.001 14.3747C109.011 14.1584 109.037 13.9986 109.08 13.8953C109.122 13.7921 109.171 13.7031 109.225 13.6282C109.28 13.5534 109.337 13.4869 109.397 13.4288C109.457 13.3706 109.522 13.3197 109.591 13.2761C109.66 13.2324 109.731 13.1976 109.803 13.1718C109.875 13.1459 109.947 13.128 110.019 13.1181C110.09 13.1082 110.162 13.1028 110.232 13.1018C110.303 13.1008 110.372 13.1111 110.439 13.1325C110.505 13.1539 110.571 13.1848 110.635 13.2251C110.699 13.2654 110.765 13.3136 110.831 13.3697C110.897 13.4258 110.959 13.4865 111.018 13.5518C111.077 13.6171 111.131 13.6874 111.18 13.7626C111.229 13.8379 111.272 13.9108 111.31 13.9815C111.348 14.0522 111.38 14.1236 111.407 14.1955C111.434 14.2675 111.455 14.3378 111.468 14.4064C111.482 14.4751 111.491 14.5425 111.494 14.6091C111.497 14.6757 111.497 14.7411 111.493 14.8053C111.49 14.8696 111.472 14.9303 111.439 14.9874C111.406 15.0445 111.364 15.0985 111.312 15.1493C111.26 15.2001 111.199 15.2506 111.129 15.3008C111.058 15.351 110.983 15.395 110.902 15.4326C110.821 15.4702 110.74 15.5034 110.659 15.5322C110.578 15.561 110.493 15.5868 110.402 15.6098C110.311 15.6329 110.174 15.6475 109.991 15.6539C109.809 15.6602 109.671 15.649 109.579 15.6203C109.487 15.5915 109.408 15.5568 109.343 15.5161C109.278 15.4754 109.223 15.4322 109.177 15.3865C109.13 15.3407 109.091 15.2885 109.059 15.2298C109.027 15.1711 109.006 15.1089 108.996 15.0434C108.986 14.9778 108.98 14.9057 108.979 14.8269C108.978 14.7482 108.985 14.6615 108.999 14.5668C109.014 14.4723 109.038 14.377 109.071 14.2811C109.105 14.1853 109.142 14.0936 109.181 14.0063C109.221 13.919 109.268 13.8312 109.323 13.743C109.378 13.6548 109.432 13.5775 109.486 13.511C109.54 13.4446 109.596 13.3855 109.654 13.3337C109.711 13.282 109.771 13.2381 109.833 13.202C109.895 13.1659 109.957 13.1371 110.019 13.1154C110.082 13.0938 110.171 13.0789 110.287 13.0708C110.403 13.0627 110.489 13.0648 110.543 13.0772C110.598 13.0897 110.652 13.1118 110.705 13.1435C110.757 13.1753 110.808 13.2145 110.856 13.2611C110.905 13.3076 110.951 13.3613 110.994 13.4222C111.037 13.4831 111.076 13.5499 111.11 13.6226C111.145 13.6954 111.178 13.7742 111.208 13.8592C111.239 13.9443 111.265 14.0271 111.286 14.1078C111.307 14.1885 111.325 14.269 111.34 14.3492C111.355 14.4295 111.366 14.5097 111.373 14.5898C111.38 14.6701 111.384 14.7485 111.384 14.8253C111.385 14.902 111.381 14.9758 111.371 15.0467C111.362 15.1175 111.344 15.1808 111.318 15.2364C111.292 15.2921 111.257 15.3416 111.213 15.385C111.169 15.4284 111.118 15.4686 111.059 15.5056C111.001 15.5425 110.936 15.5764 110.865 15.6072C110.794 15.6379 110.721 15.6648 110.647 15.6876C110.573 15.7105 110.497 15.7267 110.42 15.7363C110.342 15.7458 110.257 15.7511 110.164 15.7521C110.072 15.753 109.976 15.7445 109.876 15.7266C109.776 15.7086 109.675 15.6762 109.573 15.6293C109.472 15.5824 109.374 15.525 109.281 15.4571C109.188 15.3893 109.106 15.3113 109.035 15.2233C108.964 15.1353 108.909 15.0455 108.869 14.9537C108.83 14.862 108.8 14.7636 108.78 14.6586C108.759 14.5537 108.747 14.4546 108.743 14.3611C108.739 14.2677 108.738 14.18 108.739 14.0981C108.741 14.0162 108.757 13.9334 108.788 13.8495C108.819 13.7657 108.857 13.6852 108.901 13.6081C108.946 13.531 108.998 13.4598 109.059 13.3945C109.119 13.3291 109.183 13.2679 109.251 13.2107C109.319 13.1535 109.389 13.1003 109.462 13.0512C109.536 13.0021 109.609 12.9607 109.681 12.927C109.754 12.8933 109.828 12.8648 109.904 12.8417C109.979 12.8185 110.053 12.8039 110.123 12.7977C110.194 12.7916 110.263 12.7893 110.329 12.7907C110.396 12.7922 110.462 12.8083 110.526 12.839C110.59 12.8697 110.655 12.911 110.721 12.963C110.787 13.015 110.849 13.0752 110.906 13.1436C110.964 13.2119 111.016 13.2865 111.064 13.3673C111.111 13.448 111.153 13.5313 111.19 13.6171C111.227 13.703 111.259 13.7863 111.284 13.867C111.31 13.9478 111.331 14.0301 111.348 14.1138C111.365 14.1975 111.378 14.2788 111.386 14.3576C111.395 14.4365 111.4 14.5512 111.401 14.7021C111.402 14.853 111.393 14.9612 111.373 15.0266C111.353 15.092 111.327 15.154 111.294 15.2126C111.262 15.2712 111.221 15.327 111.17 15.38C111.12 15.4331 111.064 15.4829 111.003 15.5295C110.942 15.5762 110.877 15.6181 110.81 15.6554C110.743 15.6927 110.673 15.7239 110.601 15.7492C110.53 15.7744 110.458 15.792 110.385 15.8018C110.313 15.8116 110.232 15.817 110.142 15.818C110.051 15.819 109.959 15.8132 109.865 15.8008C109.771 15.7884 109.679 15.7636 109.589 15.7263C109.498 15.6889 109.41 15.6422 109.323 15.586C109.236 15.5299 109.158 15.4655 109.09 15.3929C109.021 15.3203 108.962 15.2398 108.912 15.1513C108.862 15.0628 108.822 14.9682 108.791 14.8674C108.761 14.7666 108.742 14.6643 108.733 14.5605C108.725 14.4568 108.72 14.3563 108.719 14.2592C108.718 14.162 108.73 14.0697 108.753 13.9823C108.777 13.8948 108.809 13.816 108.849 13.7458C108.889 13.6756 108.937 13.6074 108.992 13.541C109.046 13.4746 109.107 13.4145 109.173 13.3607C109.24 13.3068 109.307 13.2602 109.376 13.2208C109.444 13.1814 109.515 13.1488 109.588 13.123C109.662 13.0972 109.736 13.0768 109.81 13.0617C109.884 13.0466 109.994 13.0362 110.139 13.0303C110.284 13.0244 110.391 13.0342 110.459 13.0594C110.527 13.0847 110.596 13.1186 110.666 13.161C110.736 13.2035 110.803 13.2528 110.866 13.3091C110.929 13.3655 110.991 13.4263 111.051 13.4916C111.112 13.5569 111.169 13.6253 111.224 13.6967C111.279 13.7682 111.328 13.839 111.371 13.9093C111.414 13.9797 111.453 14.049 111.489 14.1175C111.524 14.186 111.554 14.2526 111.579 14.3174C111.605 14.3822 111.624 14.4449 111.638 14.5056C111.651 14.5661 111.659 14.6567 111.663 14.7772C111.666 14.8977 111.653 14.9863 111.624 15.0428C111.595 15.0993 111.559 15.1565 111.515 15.2142C111.471 15.2719 111.414 15.3298 111.346 15.388C111.278 15.4462 111.204 15.5044 111.123 15.5626C111.042 15.6208 110.957 15.6754 110.868 15.7264C110.779 15.7773 110.69 15.8216 110.599 15.8594C110.509 15.8971 110.422 15.9249 110.339 15.9429C110.256 15.9609 110.169 15.9719 110.077 15.9758C109.986 15.9797 109.903 15.979 109.829 15.9739C109.755 15.9687 109.684 15.9506 109.617 15.9195C109.55 15.8885 109.489 15.8478 109.434 15.7975C109.378 15.7472 109.33 15.6853 109.288 15.6119C109.246 15.5385 109.214 15.4629 109.192 15.3851C109.17 15.3073 109.155 15.2203 109.147 15.124C109.14 15.0277 109.135 14.9314 109.135 14.835C109.134 14.7386 109.142 14.6441 109.158 14.5515C109.174 14.459 109.222 14.3368 109.301 14.1849C109.38 14.033 109.449 13.923 109.507 13.855C109.565 13.787 109.621 13.7362 109.674 13.7028C109.727 13.6693 109.782 13.6447 109.84 13.6288C109.898 13.613 109.985 13.6032 110.102 13.5996C110.218 13.5959 110.304 13.6031 110.36 13.6211C110.416 13.6391 110.473 13.6643 110.529 13.6967C110.585 13.729 110.638 13.7666 110.687 13.8094C110.736 13.8522 110.782 13.8983 110.825 13.9477C110.868 13.9971 110.906 14.047 110.939 14.0974C110.972 14.1478 111.002 14.2007 111.029 14.256C111.055 14.3114 111.076 14.3627 111.089 14.4099C111.103 14.4571 111.112 14.5297 111.118 14.6279C111.123 14.7261 111.115 14.7974 111.094 14.8418C111.072 14.8862 111.042 14.9306 111.004 14.9749C110.966 15.0193 110.918 15.0589 110.862 15.0939C110.806 15.1289 110.748 15.1589 110.688 15.1839C110.628 15.2089 110.569 15.2272 110.513 15.2387C110.457 15.2502 110.404 15.2566 110.353 15.2577C110.279 15.2594 110.185 15.2065 110.071 15.0989" fill="none" opacity="1" stroke="#ffffff" stroke-linecap="round" stroke-linejoin="round" stroke-width="0.909437" vectornator:layerName="path"/>
</g>
</g>
</g>
<g opacity="1" vectornator:layerName="path 44">
<clipPath clip-rule="nonzero" id="ClipPath_11">
<path d="M106.253 17.9534L113.706 17.9534L113.706 10.5008L106.253 10.5008L106.253 17.9534Z"/>
</clipPath>
<g clip-path="url(#ClipPath_11)">
<clipPath clip-rule="nonzero" id="ClipPath_12">
<path d="M106.253 17.9534L113.706 17.9534L113.706 10.5008L106.253 10.5008L106.253 17.9534Z"/>
</clipPath>
<g clip-path="url(#ClipPath_12)">
<path d="M111.085 12.3146C112.141 12.9249 112.502 14.276 111.892 15.3322C111.282 16.3884 109.931 16.7498 108.874 16.1395C107.818 15.5291 107.457 14.1781 108.067 13.1219C108.677 12.0657 110.028 11.7042 111.085 12.3146Z" fill="none" opacity="1" stroke="#00cfff" stroke-linecap="round" stroke-linejoin="round" stroke-width="1.29922" vectornator:layerName="path"/>
</g>
</g>
</g>
</g>
</g>
</svg>
