<?xml version="1.0" encoding="UTF-8" standalone="no"?>
<!DOCTYPE svg PUBLIC "-//W3C//DTD SVG 1.1//EN" "http://www.w3.org/Graphics/SVG/1.1/DTD/svg11.dtd">
<!-- Created with Vectornator (http://vectornator.io/) -->
<svg height="100%" stroke-miterlimit="10" style="fill-rule:nonzero;clip-rule:evenodd;stroke-linecap:round;stroke-linejoin:round;" version="1.1" viewBox="92.7345 10.4793 9.72662 12.5306" width="100%" xml:space="preserve" xmlns="http://www.w3.org/2000/svg" xmlns:vectornator="http://vectornator.io" xmlns:xlink="http://www.w3.org/1999/xlink">
<defs/>
<clipPath id="ArtboardFrame">
<rect height="12.5306" width="9.72662" x="92.7345" y="10.4793"/>
</clipPath>
<g clip-path="url(#ArtboardFrame)" id="Layer" vectornator:layerName="Layer">
<g opacity="1" vectornator:layerName="not2 1">
<g opacity="1" vectornator:layerName="path 37">
<clipPath clip-rule="nonzero" id="ClipPath">
<path d="M94.4952 22.5044L101.201 22.5044L101.201 17.0479L94.4952 17.0479L94.4952 22.5044Z"/>
</clipPath>
<g clip-path="url(#ClipPath)">
<clipPath clip-rule="nonzero" id="ClipPath_2">
<path d="M94.4952 22.5044L101.201 22.5044L101.201 17.0479L94.4952 17.0479L94.4952 22.5044Z"/>
</clipPath>
<g clip-path="url(#ClipPath_2)">
<path d="M97.8212 17.8412C97.6648 17.8392 97.5836 17.8382 97.5776 17.8381C97.5735 17.838 97.5705 17.8386 97.5688 17.8397C97.5671 17.8408 97.5499 17.8521 97.5174 17.8734C97.4848 17.8948 97.4404 17.9563 97.3841 18.0581C97.3278 18.1598 97.2825 18.2493 97.2484 18.3265C97.2142 18.4037 97.1849 18.4594 97.1606 18.4937C97.1363 18.5279 97.0984 18.6006 97.047 18.7116C96.9955 18.8226 96.9341 18.9398 96.8627 19.0633C96.7913 19.1868 96.7334 19.279 96.6888 19.3401C96.6442 19.4011 96.5968 19.4562 96.5464 19.5053C96.4961 19.5544 96.437 19.6069 96.3689 19.6628C96.3009 19.7186 96.2426 19.7735 96.1942 19.8275C96.1458 19.8815 96.0981 19.9419 96.0513 20.0086C96.0045 20.0753 95.9674 20.1381 95.94 20.197C95.9126 20.2559 95.8676 20.339 95.805 20.4463C95.7424 20.5535 95.6829 20.6434 95.6266 20.7157C95.5703 20.7881 95.5303 20.8558 95.5065 20.9189C95.4828 20.982 95.4527 21.0452 95.4163 21.1086C95.3799 21.1719 95.3257 21.2576 95.2535 21.3655C95.1813 21.4735 95.1291 21.5488 95.0969 21.5915C95.0647 21.6342 95.0392 21.6751 95.0203 21.7141C95.0015 21.753 94.9919 21.7865 94.9917 21.8145C94.9914 21.8424 95.0272 21.8595 95.0991 21.8658C95.171 21.872 95.2817 21.8752 95.4313 21.8752C95.5808 21.8752 95.7286 21.8655 95.8744 21.8462C96.0203 21.8268 96.1926 21.7972 96.3914 21.7573C96.5901 21.7174 96.7237 21.6932 96.7923 21.6846C96.8608 21.6761 97.0382 21.6716 97.3245 21.6712C97.6107 21.6707 97.797 21.6762 97.8832 21.6877C97.9695 21.6993 98.0845 21.7202 98.2283 21.7506C98.3722 21.781 98.4874 21.7994 98.5741 21.8056C98.6607 21.8118 98.7932 21.8298 98.9716 21.8595C99.1501 21.8891 99.2793 21.9072 99.3591 21.9136C99.439 21.92 99.5488 21.935 99.6886 21.9587C99.8284 21.9824 99.9819 21.9966 100.149 22.0012C100.316 22.0059 100.451 22.0071 100.552 22.0048C100.654 22.0025 100.699 21.9756 100.688 21.9242C100.677 21.8728 100.628 21.7674 100.541 21.6079C100.454 21.4483 100.367 21.2754 100.28 21.0891C100.194 20.9027 100.116 20.7445 100.047 20.6143C99.9782 20.4842 99.9125 20.3689 99.8503 20.2684C99.788 20.1679 99.732 20.0742 99.6823 19.9871C99.6327 19.9001 99.5768 19.8092 99.5147 19.7144C99.4526 19.6196 99.3893 19.5282 99.325 19.44C99.2607 19.3519 99.2085 19.2755 99.1684 19.2109C99.1284 19.1463 99.081 19.0519 99.0263 18.9276C98.9716 18.8033 98.9281 18.7128 98.8958 18.6563C98.8634 18.5997 98.8003 18.5129 98.7064 18.3958C98.6125 18.2787 98.5264 18.1623 98.448 18.0466C98.3696 17.9309 98.3133 17.8498 98.2791 17.8033C98.2448 17.7568 98.1991 17.702 98.142 17.6388C98.0848 17.5756 98.0408 17.5984 98.0101 17.7072C97.9793 17.816 97.9359 18.0592 97.8799 18.4368C97.8239 18.8144 97.7769 19.1233 97.7391 19.3635C97.7012 19.6037 97.6704 19.827 97.6468 20.0335C97.6232 20.2399 97.6112 20.3577 97.6107 20.3868C97.6103 20.4159 97.61 20.4321 97.6099 20.4354C97.6099 20.4387 97.6094 20.4367 97.6084 20.4294C97.6074 20.422 97.6025 20.3862 97.5939 20.3218C97.5852 20.2574 97.5807 20.1578 97.5805 20.0232C97.5802 19.8886 97.5838 19.7524 97.5915 19.6145C97.5992 19.4767 97.6161 19.2928 97.6422 19.0629C97.6683 18.8329 97.6844 18.696 97.6906 18.6521C97.6967 18.6082 97.6999 18.5849 97.7003 18.582C97.7007 18.5792 97.7009 18.5797 97.7007 18.5837C97.7006 18.5876 97.6996 18.6199 97.6978 18.6807C97.6959 18.7415 97.6752 18.8567 97.6356 19.0265C97.596 19.1964 97.5614 19.3301 97.5317 19.4276C97.5021 19.5252 97.4696 19.6249 97.4343 19.7266C97.3991 19.8283 97.3423 19.9744 97.2641 20.1647C97.1859 20.355 97.1201 20.5027 97.0667 20.6078C97.0132 20.713 96.9789 20.7758 96.9637 20.7963C96.9484 20.8169 96.9306 20.8292 96.9101 20.8334C96.8897 20.8376 96.5265 21.1428 96.5215 21.0682C96.5166 20.9935 96.8654 20.578 96.8668 20.5026C96.8683 20.4272 96.8938 20.2946 96.9433 20.1048C96.9929 19.915 97.0609 19.6874 97.1474 19.422C97.2339 19.1565 97.3053 18.9579 97.3616 18.8262C97.4179 18.6945 97.4475 18.6435 97.4504 18.6731C97.4533 18.7028 97.4265 18.789 97.3699 18.9318C97.3134 19.0746 97.2635 19.1916 97.2203 19.283C97.1771 19.3743 97.129 19.4677 97.076 19.5632C97.023 19.6588 96.9675 19.7539 96.9095 19.8485C96.8516 19.943 96.7589 20.0791 96.6315 20.2566C96.504 20.434 96.3909 20.5849 96.292 20.709C96.1931 20.8332 96.1182 20.9202 96.0673 20.9701C96.0164 21.0201 95.9831 21.048 95.9676 21.0541C95.952 21.0601 95.9459 21.0331 95.9492 20.9732C95.9524 20.9132 95.9814 20.8226 96.0362 20.7012C96.0909 20.5798 96.137 20.4851 96.1746 20.4172C96.2121 20.3492 96.2903 20.2261 96.4091 20.0479C96.5279 19.8696 96.6122 19.747 96.662 19.6801C96.7118 19.6132 96.7482 19.5689 96.7712 19.5471C96.7941 19.5253 96.8072 19.513 96.8103 19.51C96.8134 19.507 96.8116 19.5112 96.8047 19.5224C96.7978 19.5336 96.769 19.5804 96.7184 19.6628C96.6678 19.7452 96.6145 19.827 96.5583 19.9085C96.5022 19.9899 96.4423 20.0735 96.3785 20.1594C96.3148 20.2453 96.2271 20.3698 96.1154 20.5329C96.0038 20.6961 95.9092 20.839 95.8315 20.9618C95.7538 21.0846 95.708 21.157 95.694 21.1792C95.6799 21.2014 95.6754 21.2093 95.6805 21.2029C95.6855 21.1966 95.7021 21.1757 95.7301 21.1404C95.758 21.1051 95.825 20.9999 95.9308 20.8246C96.0367 20.6494 96.1236 20.5087 96.1916 20.4026C96.2596 20.2965 96.3679 20.1329 96.5164 19.9117C96.665 19.6905 96.7925 19.504 96.8989 19.3521C97.0054 19.2002 97.0871 19.0878 97.1443 19.0149C97.2014 18.942 97.2409 18.8971 97.2627 18.8801C97.2846 18.8632 97.2957 18.888 97.2961 18.9544C97.2966 19.0209 97.2933 19.0919 97.2864 19.1674C97.2794 19.2429 97.2558 19.3802 97.2155 19.5794C97.1752 19.7786 97.1348 19.9884 97.0943 20.209C97.0538 20.4295 97.028 20.583 97.0171 20.6696C97.0061 20.7561 97.0001 20.8574 96.9988 20.9733C96.9976 21.0893 97.008 21.1438 97.0301 21.1367C97.0522 21.1297 97.0849 21.0544 97.1281 20.9107C97.1714 20.7671 97.217 20.5844 97.2649 20.3627C97.3129 20.1411 97.3537 19.9297 97.3873 19.7285C97.4208 19.5273 97.4532 19.2943 97.4845 19.0294C97.5157 18.7646 97.5362 18.6482 97.5459 18.6802C97.5557 18.7123 97.5608 19.0255 97.5612 19.6198C97.5616 20.214 97.5671 20.532 97.5776 20.5736C97.5881 20.6153 97.5941 20.639 97.5955 20.6448C97.597 20.6505 97.599 20.64 97.6016 20.6133C97.6042 20.5865 97.6148 20.4766 97.6334 20.2838C97.652 20.0909 97.6795 19.856 97.7158 19.579C97.7521 19.302 97.7797 19.0871 97.7985 18.9343C97.8174 18.7815 97.8273 18.718 97.8281 18.7438C97.829 18.7697 97.8312 18.8343 97.8348 18.9376C97.8383 19.041 97.838 19.2609 97.8338 19.5975C97.8296 19.934 97.8274 20.1993 97.8272 20.3933C97.8269 20.5873 97.8295 20.714 97.835 20.7735C97.8405 20.833 97.8558 20.8929 97.8811 20.9532C97.9063 21.0135 97.9264 21.0469 97.9414 21.0533C97.9564 21.0597 97.9689 21.0239 97.9791 20.946C97.9893 20.8681 97.9975 20.7373 98.0038 20.5536C98.0101 20.3699 98.0133 20.0041 98.0135 19.4562C98.0138 18.9083 98.0139 18.6199 98.0139 18.5911L98.0139 18.5691L98.014 18.5896C98.014 18.6174 98.014 18.8956 98.014 19.4243C98.014 19.9529 98.0175 20.2674 98.0244 20.3678C98.0313 20.4681 98.0416 20.5585 98.0553 20.639C98.0689 20.7195 98.0853 20.7863 98.1046 20.8395C98.1238 20.8927 98.1507 20.9423 98.1853 20.9885C98.2198 21.0347 98.2475 21.0606 98.2683 21.0661C98.289 21.0717 98.3067 21.0242 98.3213 20.9237C98.3359 20.8232 98.3464 20.6748 98.3529 20.4787C98.3594 20.2826 98.3628 20.0477 98.363 19.774C98.3633 19.5003 98.3606 19.2917 98.3548 19.1481C98.349 19.0047 98.346 18.929 98.3457 18.9213L98.3455 18.9149L98.3459 18.9191C98.3464 18.9253 98.351 18.9862 98.3596 19.1017C98.3682 19.2173 98.3879 19.3737 98.4188 19.5708C98.4498 19.768 98.476 19.9206 98.4977 20.0286C98.5193 20.1366 98.5429 20.2394 98.5684 20.337C98.5939 20.4346 98.6189 20.5198 98.6433 20.5927C98.6677 20.6656 98.6921 20.7292 98.7164 20.7833C98.7407 20.8375 98.7732 20.8895 98.8138 20.9395C98.8543 20.9895 98.8861 21.0175 98.9091 21.0236C98.9321 21.0298 98.9471 20.9881 98.9538 20.8987C98.9606 20.8093 98.9641 20.7254 98.9643 20.6469C98.9645 20.5685 98.9619 20.4839 98.9564 20.3931C98.951 20.3023 98.9236 20.1287 98.8744 19.8724C98.8252 19.616 98.7894 19.4288 98.767 19.3108C98.7445 19.1927 98.7327 19.1305 98.7315 19.1241L98.731 19.1209L98.734 19.1338C98.7369 19.1467 98.765 19.2721 98.8183 19.5099C98.8717 19.7477 98.9221 19.9442 98.9695 20.0995C99.0169 20.2548 99.0668 20.3976 99.1192 20.5279C99.1715 20.6583 99.218 20.7631 99.2587 20.8426C99.2993 20.922 99.3326 20.9755 99.3584 21.003C99.3842 21.0305 99.3964 21.0176 99.3949 20.9642C99.3934 20.9108 99.3764 20.8261 99.344 20.7102C99.3115 20.5943 99.2734 20.4759 99.2297 20.3551C99.186 20.2342 99.1443 20.1125 99.1046 19.9899C99.0649 19.8672 99.0429 19.799 99.0384 19.7851C99.0339 19.7713 99.0318 19.7672 99.0321 19.7728C99.0325 19.7784 99.0341 19.8061 99.037 19.8559C99.0399 19.9057 99.0609 20.0231 99.1001 20.2081C99.1392 20.3931 99.1775 20.5588 99.215 20.705C99.2524 20.8513 99.2874 20.9741 99.3198 21.0736C99.3522 21.173 99.3819 21.2529 99.4088 21.3133C99.4357 21.3738 99.4585 21.419 99.4771 21.4491C99.4957 21.4792 99.5049 21.4873 99.5048 21.4734C99.5046 21.4595 99.5042 21.4247 99.5035 21.369C99.5028 21.3133 99.4904 21.2195 99.4661 21.0876C99.4419 20.9557 99.427 20.8785 99.4215 20.8562C99.4159 20.8338 99.4126 20.8207 99.4117 20.8169C99.4107 20.8131 99.419 20.8233 99.4364 20.8475C99.4538 20.8717 99.5139 20.9551 99.6165 21.0976C99.7192 21.2402 99.8142 21.3664 99.9016 21.4764C99.9891 21.5863 100.037 21.663 100.047 21.7063C100.056 21.7496 100.037 21.7709 99.9884 21.77C99.94 21.7692 99.9005 21.7506 99.8699 21.7142C99.8253 21.6611 99.7742 21.5777 99.7165 21.4639" fill="none" opacity="1" stroke="#ffffff" stroke-linecap="round" stroke-linejoin="round" stroke-width="0.909451" vectornator:layerName="path"/>
<path d="M96.9103 20.825" fill="none" opacity="1" stroke="#ffffff" stroke-linecap="butt" stroke-linejoin="round" stroke-width="0.909451" vectornator:layerName="Curve 2"/>
<path d="M96.083 20.9236" fill="none" opacity="1" stroke="#ffffff" stroke-linecap="butt" stroke-linejoin="round" stroke-width="0.909451" vectornator:layerName="Curve 1"/>
</g>
</g>
</g>
<g opacity="1" vectornator:layerName="path 38">
<clipPath clip-rule="nonzero" id="ClipPath_3">
<path d="M93.2183 22.416L98.0293 22.416L98.0293 15.8588L93.2183 15.8588L93.2183 22.416Z"/>
</clipPath>
<g clip-path="url(#ClipPath_3)">
<clipPath clip-rule="nonzero" id="ClipPath_4">
<path d="M93.2183 22.416L98.0293 22.416L98.0293 15.8588L93.2183 15.8588L93.2183 22.416Z"/>
</clipPath>
<g clip-path="url(#ClipPath_4)">
<path d="M97.3207 16.5675C97.2908 16.7019 97.1675 16.9338 96.9508 17.2632C96.7341 17.5926 96.5629 17.8587 96.4372 18.0613C96.3115 18.264 96.0927 18.5848 95.7807 19.0238C95.4687 19.4628 95.1631 19.8993 94.8639 20.3334C94.3557 21.0707 94.0434 21.5287 93.927 21.7073" fill="none" opacity="1" stroke="#000000" stroke-linecap="round" stroke-linejoin="round" stroke-width="1.29921" vectornator:layerName="path"/>
</g>
</g>
</g>
<g opacity="1" vectornator:layerName="path 39">
<clipPath clip-rule="nonzero" id="ClipPath_5">
<path d="M97.1488 23.0099L102.461 23.0099L102.461 15.9755L97.1488 15.9755L97.1488 23.0099Z"/>
</clipPath>
<g clip-path="url(#ClipPath_5)">
<clipPath clip-rule="nonzero" id="ClipPath_6">
<path d="M97.1488 23.0099L102.461 23.0099L102.461 15.9755L97.1488 15.9755L97.1488 23.0099Z"/>
</clipPath>
<g clip-path="url(#ClipPath_6)">
<path d="M97.8575 16.6842C98.0426 16.9461 98.1975 17.1587 98.3224 17.3221C98.4073 17.4333 98.5194 17.5742 98.6586 17.745C98.7978 17.9158 98.9466 18.1054 99.1048 18.3138C99.2631 18.5222 99.4255 18.7504 99.5918 18.9984C99.7582 19.2464 99.9275 19.517 100.1 19.8101C100.272 20.1032 100.433 20.3815 100.582 20.6449C100.801 21.0283 101.191 21.5804 101.752 22.3012" fill="none" opacity="1" stroke="#000000" stroke-linecap="round" stroke-linejoin="round" stroke-width="1.29922" vectornator:layerName="path"/>
</g>
</g>
</g>
<g opacity="1" vectornator:layerName="path 40">
<clipPath clip-rule="nonzero" id="ClipPath_7">
<path d="M92.7345 22.943L102.31 22.943L102.31 21.4301L92.7345 21.4301L92.7345 22.943Z"/>
</clipPath>
<g clip-path="url(#ClipPath_7)">
<clipPath clip-rule="nonzero" id="ClipPath_8">
<path d="M92.7345 22.943L102.31 22.943L102.31 21.4301L92.7345 21.4301L92.7345 22.943Z"/>
</clipPath>
<g clip-path="url(#ClipPath_8)">
<path d="M93.4432 22.1763C93.5716 22.1513 93.7939 22.1448 94.1102 22.1567C94.4264 22.1687 94.7522 22.1761 95.0875 22.1791C95.4227 22.182 96.3046 22.1835 97.733 22.1835C99.1614 22.1835 100.451 22.2005 101.601 22.2344" fill="none" opacity="1" stroke="#000000" stroke-linecap="round" stroke-linejoin="round" stroke-width="1.29919" vectornator:layerName="path"/>
</g>
</g>
</g>
<g opacity="1" vectornator:layerName="path 43">
<clipPath clip-rule="nonzero" id="ClipPath_9">
<path d="M95.9725 16.4562L99.9141 16.4562L99.9141 12.271L95.9725 12.271L95.9725 16.4562Z"/>
</clipPath>
<g clip-path="url(#ClipPath_9)">
<clipPath clip-rule="nonzero" id="ClipPath_10">
<path d="M95.9725 16.4562L99.9141 16.4562L99.9141 12.271L95.9725 12.271L95.9725 16.4562Z"/>
</clipPath>
<g clip-path="url(#ClipPath_10)">
<path d="M97.9667 14.266C97.8452 14.2371 97.7775 14.306 97.7635 14.4726C97.7535 14.5918 97.7345 14.6726 97.7063 14.715C97.6781 14.7574 97.6409 14.786 97.5946 14.8008C97.5483 14.8157 97.5104 14.8233 97.481 14.8236C97.4515 14.824 97.4178 14.8108 97.3796 14.7842C97.3415 14.7576 97.3113 14.7236 97.289 14.6823C97.2668 14.641 97.2444 14.5835 97.2218 14.5099C97.1992 14.4363 97.1846 14.3725 97.178 14.3185C97.1713 14.2646 97.1678 14.1969 97.1676 14.1156C97.1673 14.0343 97.1726 13.9783 97.1836 13.9474C97.1945 13.9164 97.2271 13.884 97.2813 13.8499C97.3355 13.8159 97.4003 13.7963 97.4755 13.7911C97.5508 13.7858 97.6075 13.7849 97.6456 13.7884C97.6837 13.7918 97.7218 13.8044 97.7599 13.8263C97.798 13.8481 97.8465 13.8906 97.9056 13.9537C97.9646 14.0167 98.0131 14.0833 98.051 14.1534C98.0889 14.2236 98.1126 14.2955 98.122 14.3693C98.1314 14.4431 98.1227 14.4946 98.0959 14.5238C98.0691 14.5529 98.032 14.5787 97.9846 14.6011C97.9372 14.6235 97.8882 14.64 97.8378 14.6504C97.7874 14.6609 97.7369 14.6662 97.6863 14.6665C97.6358 14.6667 97.5991 14.6545 97.5762 14.6297C97.5533 14.605 97.5396 14.54 97.535 14.4347C97.5305 14.3294 97.5311 14.2538 97.5367 14.208C97.5424 14.1621 97.5579 14.1088 97.5832 14.048C97.6084 13.9873 97.638 13.9346 97.672 13.89C97.706 13.8454 97.7522 13.8088 97.8105 13.7804C97.8689 13.752 97.9227 13.7363 97.9719 13.7333C98.0212 13.7303 98.0701 13.7471 98.1187 13.7837C98.1672 13.8202 98.2171 13.8874 98.2682 13.985C98.3193 14.0826 98.3578 14.1789 98.3836 14.274C98.4094 14.369 98.4237 14.4612 98.4266 14.5505C98.4295 14.6398 98.4147 14.7174 98.3823 14.7833C98.3498 14.8492 98.3058 14.9069 98.2503 14.9562C98.1948 15.0056 98.1452 15.0408 98.1017 15.062C98.0581 15.0831 97.9945 15.1006 97.9108 15.1146C97.8271 15.1286 97.7449 15.134 97.6641 15.1308C97.5833 15.1277 97.5159 15.1107 97.4618 15.0799C97.4077 15.0491 97.362 15.011 97.3247 14.9658C97.2874 14.9206 97.2583 14.8718 97.2375 14.8195C97.2168 14.7672 97.2029 14.7111 97.196 14.6514C97.1891 14.5916 97.1856 14.5318 97.1855 14.4718C97.1854 14.4118 97.1916 14.3543 97.2041 14.2992C97.2165 14.2442 97.2466 14.1738 97.2946 14.088C97.3426 14.0024 97.3972 13.9291 97.4584 13.8683C97.5197 13.8074 97.5731 13.7624 97.6187 13.7334C97.6642 13.7043 97.7126 13.6806 97.7637 13.6623C97.8148 13.644 97.8913 13.6323 97.9932 13.6274C98.095 13.6224 98.1721 13.6293 98.2244 13.6481C98.2767 13.6669 98.3258 13.6932 98.3717 13.7269C98.4175 13.7607 98.472 13.8101 98.5349 13.8753C98.5979 13.9404 98.6484 14.008 98.6864 14.0779C98.7244 14.148 98.7505 14.2231 98.7648 14.3032C98.7791 14.3833 98.7854 14.4624 98.7836 14.5405C98.7819 14.6185 98.7677 14.6819 98.7411 14.7305C98.7144 14.7791 98.6805 14.8237 98.6394 14.8642C98.5983 14.9048 98.554 14.9424 98.5065 14.977C98.4589 15.0116 98.4074 15.0442 98.352 15.0748C98.2966 15.1053 98.2253 15.133 98.1381 15.1579C98.0509 15.1828 97.9563 15.1964 97.8543 15.1988C97.7523 15.2013 97.6692 15.1913 97.6052 15.1691C97.5411 15.1468 97.4817 15.114 97.427 15.0707C97.3722 15.0273 97.3254 14.9784 97.2865 14.924C97.2476 14.8695 97.2145 14.8051 97.1871 14.7308C97.1597 14.6565 97.1417 14.5756 97.133 14.4882C97.1244 14.4007 97.1209 14.2967 97.1226 14.1762C97.1243 14.0557 97.1374 13.959 97.162 13.8861C97.1867 13.8131 97.2259 13.7355 97.2798 13.6531C97.3336 13.5707 97.3834 13.5086 97.4291 13.4667C97.4748 13.4249 97.5204 13.3921 97.5658 13.3684C97.6113 13.3447 97.6596 13.3271 97.7109 13.3157C97.7621 13.3043 97.8265 13.298 97.904 13.2967C97.9815 13.2955 98.0462 13.3062 98.0981 13.329C98.1501 13.3518 98.2133 13.3928 98.2878 13.4521C98.3624 13.5113 98.433 13.5787 98.4996 13.6542C98.5663 13.7297 98.6213 13.8073 98.6648 13.887C98.7083 13.9666 98.7375 14.0341 98.7527 14.0896C98.7678 14.1451 98.7781 14.2246 98.7836 14.3281C98.7891 14.4316 98.7819 14.5082 98.7621 14.5581C98.7423 14.6079 98.7126 14.6546 98.673 14.6979C98.6335 14.7413 98.5888 14.7792 98.539 14.8117C98.4892 14.8442 98.435 14.8739 98.3763 14.9008C98.3175 14.9278 98.236 14.9573 98.1316 14.9893C98.0273 15.0213 97.9169 15.0398 97.8006 15.0447C97.6842 15.0496 97.588 15.0475 97.512 15.0385C97.4359 15.0295 97.3623 15.0086 97.2913 14.9758C97.2202 14.943 97.159 14.9039 97.1077 14.8583C97.0563 14.8127 97.0159 14.7624 96.9863 14.7074C96.9567 14.6525 96.9354 14.5908 96.9225 14.5226C96.9096 14.4543 96.903 14.3822 96.9027 14.3063C96.9023 14.2304 96.9094 14.1517 96.9238 14.0702C96.9382 13.9887 96.9642 13.9063 97.0017 13.8231C97.0392 13.7399 97.0846 13.6582 97.138 13.5779C97.1914 13.4977 97.2442 13.428 97.2965 13.3688C97.3488 13.3096 97.4021 13.2593 97.4563 13.218C97.5106 13.1766 97.5687 13.1426 97.6306 13.1161C97.6925 13.0895 97.7526 13.0718 97.8108 13.0627C97.869 13.0537 97.9253 13.0491 97.9796 13.0488C98.034 13.0486 98.0878 13.062 98.1411 13.089C98.1944 13.1161 98.2477 13.1556 98.3012 13.2076C98.3546 13.2596 98.4026 13.3204 98.4452 13.3901C98.4878 13.4597 98.5265 13.5351 98.5611 13.6161C98.5958 13.6971 98.6264 13.7828 98.6528 13.8732C98.6792 13.9636 98.7001 14.0479 98.7156 14.1263C98.731 14.2047 98.7423 14.2867 98.7493 14.3723C98.7563 14.4578 98.7602 14.5424 98.761 14.6258C98.7618 14.7093 98.7594 14.7801 98.754 14.8381C98.7485 14.8961 98.7314 14.9559 98.7028 15.0174C98.6741 15.0789 98.6399 15.1301 98.6003 15.1709C98.5606 15.2118 98.4983 15.2594 98.4134 15.3138C98.3284 15.3682 98.2368 15.4119 98.1385 15.445C98.0402 15.4781 97.9094 15.4972 97.746 15.5024C97.5826 15.5076 97.4577 15.497 97.3712 15.4705C97.2847 15.4441 97.2029 15.4082 97.1257 15.3628C97.0485 15.3175 96.9786 15.2632 96.9158 15.1999C96.8531 15.1366 96.8032 15.0663 96.7663 14.989C96.7293 14.9117 96.7029 14.829 96.6872 14.7409C96.6714 14.6528 96.6633 14.5641 96.6629 14.475C96.6624 14.3859 96.6753 14.2967 96.7015 14.2075C96.7276 14.1182 96.7625 14.038 96.8062 13.9668C96.8498 13.8955 96.9004 13.8285 96.9579 13.7658C97.0153 13.7031 97.0769 13.6465 97.1425 13.596C97.2081 13.5456 97.2747 13.5037 97.3423 13.4702C97.4098 13.4368 97.4778 13.4117 97.5464 13.3949C97.615 13.3782 97.7195 13.3683 97.8597 13.3653C98 13.3623 98.1043 13.3702 98.1727 13.389C98.2412 13.4077 98.3096 13.4348 98.3781 13.4701C98.4465 13.5055 98.5113 13.545 98.5724 13.5886C98.6334 13.6322 98.6924 13.6813 98.7491 13.736C98.8059 13.7907 98.857 13.8489 98.9025 13.9106C98.9479 13.9723 98.9873 14.0367 99.0205 14.1039C99.0538 14.1712 99.0799 14.236 99.0987 14.2983C99.1176 14.3606 99.1294 14.45 99.1343 14.5663C99.139 14.6826 99.1288 14.7694 99.1034 14.8267C99.0781 14.884 99.0398 14.9435 98.9886 15.0051C98.9374 15.0667 98.8771 15.1274 98.8078 15.1872C98.7385 15.247 98.6667 15.301 98.5922 15.3491C98.5178 15.3972 98.4404 15.4421 98.36 15.4837C98.2796 15.5254 98.1986 15.5596 98.1169 15.5866C98.0352 15.6135 97.9552 15.6301 97.877 15.6364C97.7988 15.6426 97.7215 15.6452 97.6451 15.6441C97.5687 15.643 97.4986 15.6261 97.4348 15.5934C97.3711 15.5606 97.3134 15.5183 97.2618 15.4665C97.2102 15.4146 97.1681 15.3536 97.1356 15.2835C97.1031 15.2134 97.0801 15.1352 97.0664 15.0487C97.0527 14.9622 97.0451 14.8658 97.0436 14.7594C97.0421 14.6531 97.0475 14.5468 97.06 14.4405C97.0724 14.3343 97.0943 14.225 97.1258 14.1126C97.1573 14.0004 97.194 13.8985 97.236 13.8072C97.278 13.7158 97.319 13.6392 97.3589 13.5773C97.3989 13.5154 97.4428 13.4591 97.4907 13.4084C97.5387 13.3578 97.5873 13.3187 97.6366 13.2911C97.6859 13.2635 97.751 13.2413 97.8317 13.2246C97.9125 13.208 97.9963 13.2012 98.083 13.2044C98.1698 13.2076 98.2431 13.2204 98.303 13.2426C98.3628 13.2648 98.4238 13.2914 98.4859 13.3224C98.5481 13.3534 98.6241 13.4016 98.714 13.467C98.8038 13.5324 98.8882 13.6049 98.967 13.6847C99.0459 13.7645 99.1058 13.8331 99.1467 13.8905C99.1876 13.948 99.2225 14.0036 99.2512 14.0571C99.2799 14.1108 99.3057 14.1753 99.3287 14.2508C99.3517 14.3263 99.3636 14.4092 99.3644 14.4996C99.3652 14.5899 99.359 14.648 99.346 14.6738C99.3329 14.6997 99.3051 14.7338 99.2625 14.7763C99.22 14.8188 99.1648 14.8611 99.0969 14.9032C99.0291 14.9453 98.9529 14.9837 98.8683 15.0183C98.7838 15.053 98.6987 15.082 98.6129 15.1053C98.5272 15.1287 98.4393 15.1488 98.3492 15.1657C98.2592 15.1826 98.1247 15.1903 97.9457 15.1887C97.7668 15.1871 97.654 15.1797 97.6073 15.1665C97.5606 15.1533 97.5006 15.1261 97.4274 15.0848C97.3543 15.0436 97.2862 14.9897 97.2232 14.9231C97.1602 14.8566 97.1109 14.7826 97.0751 14.7011C97.0393 14.6197 97.0158 14.5348 97.0045 14.4466C96.9932 14.3584 96.9912 14.2455 96.9983 14.1081C97.0055 13.9708 97.0246 13.862 97.0556 13.7819C97.0867 13.7018 97.124 13.6266 97.1675 13.5561C97.2109 13.4856 97.2561 13.4216 97.3031 13.3642C97.35 13.3068 97.4019 13.2531 97.4586 13.2029C97.5153 13.1528 97.5712 13.1122 97.6262 13.0811C97.6812 13.05 97.7383 13.0252 97.7976 13.0067C97.8568 12.9881 97.9274 12.9773 98.0092 12.9743C98.091 12.9714 98.1583 12.9839 98.2109 13.0121C98.2635 13.0402 98.3132 13.0788 98.36 13.1278C98.4067 13.1768 98.4512 13.2313 98.4935 13.2911C98.5356 13.3509 98.5731 13.4139 98.6057 13.48C98.6384 13.5461 98.6713 13.6254 98.7045 13.718C98.7377 13.8106 98.7634 13.9031 98.7816 13.9955C98.7997 14.0877 98.8113 14.1994 98.8161 14.3303C98.821 14.4612 98.8143 14.5496 98.7959 14.5955C98.7775 14.6413 98.7512 14.6868 98.7169 14.7318C98.6826 14.7768 98.6422 14.8183 98.5957 14.8563C98.5492 14.8943 98.4983 14.9305 98.4429 14.9648C98.3876 14.9992 98.3274 15.0315 98.2625 15.0619C98.1975 15.0923 98.1312 15.1178 98.0637 15.1383C97.9962 15.1588 97.9253 15.1744 97.8511 15.1851C97.7768 15.1958 97.6814 15.2013 97.565 15.2018C97.4485 15.2022 97.354 15.1922 97.2815 15.1717C97.209 15.1512 97.1404 15.1213 97.0757 15.0822C97.011 15.043 96.9541 14.9977 96.905 14.9463C96.8558 14.8949 96.8156 14.8373 96.7844 14.7734C96.7531 14.7095 96.7423 14.5694 96.752 14.3531C96.7616 14.1368 96.7877 13.9771 96.8303 13.8738C96.8729 13.7706 96.9215 13.6816 96.9761 13.6067C97.0306 13.5319 97.088 13.4654 97.1481 13.4073C97.2082 13.3491 97.2728 13.2982 97.3419 13.2546C97.411 13.2109 97.4816 13.1761 97.5536 13.1503C97.6256 13.1244 97.6975 13.1065 97.7693 13.0966C97.8411 13.0867 97.9124 13.0813 97.9832 13.0803C98.0539 13.0793 98.1227 13.0896 98.1894 13.111C98.2561 13.1324 98.3216 13.1633 98.3859 13.2036C98.4502 13.2439 98.5154 13.2921 98.5815 13.3482C98.6475 13.4043 98.7099 13.465 98.7687 13.5303C98.8275 13.5956 98.8814 13.6659 98.9305 13.7411C98.9796 13.8164 99.023 13.8893 99.0607 13.96C99.0984 14.0306 99.1308 14.102 99.158 14.1739C99.1851 14.2459 99.2055 14.3162 99.2191 14.3848C99.2328 14.4535 99.2413 14.521 99.2446 14.5876C99.248 14.6542 99.2478 14.7196 99.2442 14.7838C99.2405 14.8481 99.2224 14.9088 99.1897 14.9659C99.1571 15.023 99.1148 15.077 99.0628 15.1278C99.0109 15.1786 98.9497 15.2291 98.8794 15.2793C98.8091 15.3295 98.7335 15.3735 98.6524 15.4111C98.5714 15.4487 98.4905 15.4819 98.4099 15.5107C98.3292 15.5395 98.2434 15.5653 98.1523 15.5883C98.0613 15.6114 97.9245 15.626 97.742 15.6324C97.5595 15.6387 97.4221 15.6275 97.3298 15.5988C97.2375 15.57 97.1589 15.5353 97.094 15.4946C97.0291 15.4539 96.9736 15.4107 96.9273 15.365C96.8811 15.3192 96.842 15.267 96.81 15.2083C96.7781 15.1496 96.757 15.0874 96.7469 15.0219C96.7367 14.9563 96.7312 14.8842 96.7301 14.8054C96.7291 14.7267 96.7358 14.64 96.7501 14.5453C96.7644 14.4507 96.7884 14.3554 96.8221 14.2595C96.8558 14.1637 96.8925 14.072 96.9322 13.9848C96.9718 13.8975 97.019 13.8097 97.0736 13.7215C97.1283 13.6333 97.1827 13.556 97.2368 13.4895C97.291 13.4231 97.3469 13.364 97.4045 13.3122C97.462 13.2605 97.5218 13.2166 97.5837 13.1805C97.6456 13.1444 97.7077 13.1156 97.7701 13.0939C97.8324 13.0723 97.9217 13.0574 98.0379 13.0493C98.1541 13.0412 98.2396 13.0433 98.2942 13.0557C98.3489 13.0682 98.4026 13.0903 98.4553 13.122C98.5079 13.1538 98.5585 13.193 98.607 13.2396C98.6555 13.2861 98.7013 13.3398 98.7444 13.4007C98.7875 13.4616 98.8264 13.5284 98.861 13.6011C98.8956 13.6739 98.9283 13.7527 98.9591 13.8377C98.9899 13.9228 99.0158 14.0056 99.0368 14.0862C99.0577 14.1669 99.0757 14.2474 99.0907 14.3276C99.1058 14.4079 99.1168 14.4881 99.1237 14.5683C99.1307 14.6486 99.1345 14.727 99.1352 14.8038C99.1359 14.8805 99.1316 14.9543 99.1222 15.0252C99.1128 15.096 99.095 15.1593 99.0687 15.2149C99.0425 15.2706 99.0074 15.3201 98.9635 15.3635C98.9196 15.4069 98.8684 15.4471 98.8099 15.4841C98.7513 15.521 98.6866 15.5549 98.6156 15.5857C98.5447 15.6164 98.4721 15.6433 98.398 15.6661C98.3238 15.689 98.248 15.7052 98.1705 15.7148C98.093 15.7243 98.0079 15.7296 97.9152 15.7306C97.8225 15.7315 97.7263 15.723 97.6266 15.7051C97.5269 15.6871 97.4261 15.6547 97.3242 15.6078C97.2223 15.5609 97.1248 15.5035 97.0316 15.4356C96.9384 15.3678 96.8564 15.2898 96.7854 15.2018C96.7145 15.1138 96.6593 15.024 96.6199 14.9322C96.5806 14.8405 96.5507 14.7421 96.5304 14.6371C96.51 14.5322 96.4978 14.433 96.4938 14.3395C96.4898 14.2461 96.4886 14.1584 96.4901 14.0765C96.4917 13.9947 96.508 13.9119 96.539 13.828C96.57 13.7442 96.6076 13.6637 96.6519 13.5866C96.6963 13.5095 96.7488 13.4383 96.8093 13.373C96.8699 13.3076 96.934 13.2464 97.0017 13.1892C97.0694 13.132 97.1399 13.0788 97.2132 13.0297C97.2866 12.9806 97.3595 12.9392 97.4319 12.9055C97.5043 12.8718 97.5784 12.8433 97.6543 12.8202C97.7301 12.797 97.8033 12.7824 97.874 12.7762C97.9447 12.7701 98.0134 12.7678 98.0801 12.7692C98.1468 12.7707 98.2123 12.7868 98.2766 12.8175C98.3409 12.8482 98.4061 12.8895 98.4721 12.9415C98.5382 12.9935 98.5999 13.0537 98.6571 13.1221C98.7144 13.1904 98.7668 13.265 98.8143 13.3458C98.8618 13.4265 98.904 13.5098 98.941 13.5956C98.9781 13.6815 99.0094 13.7648 99.0349 13.8455C99.0605 13.9263 99.0818 14.0086 99.0988 14.0922C99.1157 14.1759 99.1285 14.2572 99.1372 14.336C99.1458 14.4149 99.1507 14.5297 99.1519 14.6806C99.1531 14.8315 99.1436 14.9397 99.1236 15.0051C99.1035 15.0705 99.0773 15.1325 99.045 15.1911C99.0127 15.2497 98.9713 15.3055 98.9209 15.3585C98.8705 15.4116 98.8147 15.4614 98.7535 15.508C98.6923 15.5547 98.6281 15.5966 98.5608 15.6339C98.4936 15.6712 98.424 15.7024 98.3522 15.7277C98.2804 15.7529 98.2084 15.7705 98.1361 15.7803C98.0638 15.7901 97.9826 15.7955 97.8924 15.7965C97.8022 15.7975 97.7101 15.7917 97.6161 15.7793C97.5221 15.7669 97.4299 15.7421 97.3395 15.7048C97.2491 15.6674 97.1604 15.6207 97.0734 15.5645C96.9863 15.5084 96.9086 15.444 96.8403 15.3714C96.772 15.2988 96.7128 15.2183 96.6627 15.1298C96.6126 15.0413 96.5724 14.9467 96.5421 14.8459C96.5117 14.7451 96.4923 14.6428 96.4838 14.539C96.4753 14.4352 96.4706 14.3347 96.4698 14.2376C96.4689 14.1404 96.4804 14.0481 96.5042 13.9608C96.5279 13.8733 96.5599 13.7945 96.6 13.7243C96.6402 13.6541 96.6876 13.5859 96.7423 13.5195C96.797 13.4531 96.8576 13.393 96.9242 13.3392C96.9908 13.2853 97.0582 13.2387 97.1265 13.1993C97.1948 13.1599 97.2656 13.1273 97.339 13.1015C97.4124 13.0757 97.4863 13.0553 97.5607 13.0402C97.6352 13.0251 97.7449 13.0147 97.8899 13.0088C98.035 13.0029 98.1416 13.0127 98.2098 13.0379C98.278 13.0632 98.3471 13.0971 98.417 13.1395C98.4869 13.182 98.5535 13.2313 98.6166 13.2876C98.6797 13.344 98.7416 13.4048 98.802 13.4701C98.8625 13.5354 98.9201 13.6038 98.9749 13.6752C99.0296 13.7467 99.0786 13.8175 99.1218 13.8878C99.165 13.9582 99.2042 14.0274 99.2394 14.0959C99.2745 14.1644 99.3048 14.231 99.3301 14.2958C99.3555 14.3606 99.3749 14.4233 99.3884 14.484C99.4019 14.5446 99.4101 14.6352 99.4133 14.7557C99.4164 14.8762 99.4036 14.9648 99.3748 15.0213C99.346 15.0778 99.3095 15.135 99.2654 15.1927C99.2213 15.2504 99.1652 15.3083 99.0972 15.3665C99.0292 15.4247 98.9548 15.4829 98.8739 15.5411C98.7931 15.5993 98.7081 15.6539 98.6191 15.7049C98.53 15.7558 98.4403 15.8001 98.3499 15.8379C98.2595 15.8756 98.1727 15.9034 98.0897 15.9214C98.0066 15.9394 97.9194 15.9504 97.8281 15.9543C97.7368 15.9582 97.6541 15.9575 97.5799 15.9524C97.5056 15.9472 97.435 15.9291 97.368 15.898C97.3009 15.867 97.2397 15.8263 97.1843 15.776C97.1289 15.7257 97.0803 15.6638 97.0385 15.5904C96.9966 15.517 96.9647 15.4414 96.9426 15.3636C96.9206 15.2858 96.9057 15.1988 96.898 15.1025C96.8904 15.0062 96.8861 14.9099 96.8854 14.8135C96.8846 14.7171 96.8924 14.6226 96.9087 14.53C96.925 14.4374 96.9728 14.3152 97.0519 14.1633C97.1311 14.0115 97.1998 13.9015 97.258 13.8335C97.3162 13.7655 97.3718 13.7147 97.4247 13.6813C97.4776 13.6478 97.533 13.6232 97.5909 13.6073C97.6489 13.5915 97.736 13.5817 97.8523 13.5781C97.9686 13.5744 98.0548 13.5816 98.111 13.5996C98.1671 13.6176 98.2234 13.6428 98.2797 13.6752C98.336 13.7075 98.3885 13.7451 98.4374 13.7879C98.4863 13.8307 98.5323 13.8768 98.5754 13.9262C98.6186 13.9756 98.6567 14.0254 98.6898 14.0758C98.7229 14.1262 98.7529 14.1791 98.7795 14.2344C98.8062 14.2898 98.8263 14.3411 98.84 14.3883C98.8535 14.4355 98.863 14.5082 98.8683 14.6064C98.8736 14.7046 98.8656 14.7759 98.8443 14.8203C98.823 14.8647 98.7931 14.9091 98.7547 14.9534C98.7163 14.9978 98.6691 15.0374 98.6131 15.0724C98.5571 15.1074 98.499 15.1374 98.4387 15.1624C98.3784 15.1874 98.3202 15.2057 98.264 15.2172C98.2078 15.2287 98.1543 15.2351 98.1034 15.2362C98.0301 15.2379 97.9361 15.185 97.8216 15.0774" fill="none" opacity="1" stroke="#ffffff" stroke-linecap="round" stroke-linejoin="round" stroke-width="0.909437" vectornator:layerName="path"/>
</g>
</g>
</g>
<g opacity="1" vectornator:layerName="path 44">
<clipPath clip-rule="nonzero" id="ClipPath_11">
<path d="M94.0039 17.9318L101.456 17.9318L101.456 10.4793L94.0039 10.4793L94.0039 17.9318Z"/>
</clipPath>
<g clip-path="url(#ClipPath_11)">
<clipPath clip-rule="nonzero" id="ClipPath_12">
<path d="M94.0039 17.9318L101.456 17.9318L101.456 10.4793L94.0039 10.4793L94.0039 17.9318Z"/>
</clipPath>
<g clip-path="url(#ClipPath_12)">
<path d="M98.8353 12.2931C99.8915 12.9034 100.253 14.2545 99.6426 15.3107C99.0323 16.3669 97.6813 16.7283 96.625 16.118C95.5688 15.5076 95.2074 14.1566 95.8177 13.1004C96.4281 12.0442 97.7791 11.6827 98.8353 12.2931Z" fill="none" opacity="1" stroke="#03468f" stroke-linecap="round" stroke-linejoin="round" stroke-width="1.29922" vectornator:layerName="path"/>
</g>
</g>
</g>
</g>
</g>
</svg>
