<?xml version="1.0" encoding="UTF-8" standalone="no"?>
<!DOCTYPE svg PUBLIC "-//W3C//DTD SVG 1.1//EN" "http://www.w3.org/Graphics/SVG/1.1/DTD/svg11.dtd">
<!-- Created with Vectornator (http://vectornator.io/) -->
<svg height="100%" stroke-miterlimit="10" style="fill-rule:nonzero;clip-rule:evenodd;stroke-linecap:round;stroke-linejoin:round;" version="1.1" viewBox="49.6343 8.15105 34.3743 17.1973" width="100%" xml:space="preserve" xmlns="http://www.w3.org/2000/svg" xmlns:vectornator="http://vectornator.io" xmlns:xlink="http://www.w3.org/1999/xlink">
<defs/>
<clipPath id="ArtboardFrame">
<rect height="17.1973" width="34.3743" x="49.6343" y="8.15105"/>
</clipPath>
<g clip-path="url(#ArtboardFrame)" id="Layer" vectornator:layerName="Layer">
<g opacity="1" vectornator:layerName="Group 5">
<g opacity="1" vectornator:layerName="path">
<clipPath clip-rule="nonzero" id="ClipPath">
<path d="M51.8757 22.6591L81.7344 22.6591L81.7344 10.5759L51.8757 10.5759L51.8757 22.6591Z"/>
</clipPath>
<g clip-path="url(#ClipPath)">
<clipPath clip-rule="nonzero" id="ClipPath_2">
<path d="M51.8757 22.6591L81.7344 22.6591L81.7344 10.5759L51.8757 10.5759L51.8757 22.6591Z"/>
</clipPath>
<g clip-path="url(#ClipPath_2)">
<path d="M52.5844 11.2845L81.0257 11.2845L81.0257 21.9504L52.5844 21.9504L52.5844 11.2845" fill="none" opacity="1" stroke="#ffffff" stroke-linecap="round" stroke-linejoin="round" stroke-width="1.29921" vectornator:layerName="path"/>
</g>
</g>
</g>
<g opacity="1" vectornator:layerName="path 1">
<clipPath clip-rule="nonzero" id="ClipPath_3">
<path d="M52.2296 22.3243L81.5514 22.3243L81.5514 10.5637L52.2296 10.5637L52.2296 22.3243Z"/>
</clipPath>
<g clip-path="url(#ClipPath_3)">
<clipPath clip-rule="nonzero" id="ClipPath_4">
<path d="M52.2296 22.3243L81.5514 22.3243L81.5514 10.5637L52.2296 10.5637L52.2296 22.3243Z"/>
</clipPath>
<g clip-path="url(#ClipPath_4)">
<path d="M55.5908 16.727C55.5899 16.6552 55.6859 16.452 55.8788 16.1175C55.9912 15.9225 56.0859 15.7681 56.1629 15.6542C56.2399 15.5403 56.3521 15.3819 56.4995 15.179C56.6468 14.976 56.7475 14.8365 56.8015 14.7603C56.8554 14.684 56.913 14.5949 56.9744 14.4928C57.0357 14.3906 57.0717 14.3266 57.0823 14.3008C57.0929 14.275 57.0783 14.2726 57.0385 14.2936C56.9987 14.3147 56.9052 14.3799 56.7581 14.4893C56.611 14.5988 56.4942 14.6883 56.4078 14.7579C56.3214 14.8275 56.2108 14.9277 56.076 15.0586C55.9411 15.1896 55.8291 15.3036 55.7399 15.4008C55.6508 15.498 55.5902 15.5617 55.5581 15.5919C55.526 15.622 55.5114 15.6313 55.5142 15.6195C55.517 15.6077 55.5241 15.5784 55.5354 15.5314C55.5467 15.4844 55.5938 15.3773 55.6767 15.2102C55.7595 15.0431 55.8547 14.8633 55.9624 14.671C56.07 14.4786 56.1508 14.3361 56.2049 14.2433C56.259 14.1506 56.3069 14.0652 56.3486 13.9872C56.3903 13.9093 56.4299 13.822 56.4674 13.7254C56.5049 13.6289 56.525 13.5688 56.5277 13.5451C56.5304 13.5215 56.5098 13.5053 56.4657 13.4966C56.4217 13.4879 56.3754 13.4926 56.3268 13.5105C56.2783 13.5285 56.1964 13.5744 56.0812 13.6481C55.9659 13.7218 55.851 13.8075 55.7365 13.9051C55.622 14.0027 55.5111 14.094 55.4038 14.1791C55.2965 14.2642 55.2224 14.3196 55.1815 14.3454C55.1407 14.3711 55.094 14.3904 55.0416 14.4032C54.9891 14.4159 54.9568 14.4021 54.9447 14.3616C54.9325 14.321 54.9264 14.2757 54.9263 14.2255C54.9262 14.1753 54.953 14.0622 55.0068 13.8861C55.0605 13.71 55.1 13.5715 55.1251 13.4705C55.1502 13.3695 55.1674 13.2774 55.1765 13.1942C55.1857 13.111 55.1876 13.0386 55.1825 12.9771C55.1773 12.9156 55.1554 12.8632 55.1169 12.8199C55.0784 12.7766 55.0308 12.7441 54.9741 12.7224C54.9175 12.7008 54.873 12.6908 54.8407 12.6924C54.8085 12.694 54.7676 12.7226 54.718 12.7783C54.6685 12.834 54.6287 12.8621 54.5987 12.8625C54.5688 12.863 54.5493 12.8519 54.5403 12.8292C54.5313 12.8065 54.5553 12.7829 54.6124 12.7586C54.6695 12.7342 54.7385 12.7158 54.8194 12.7032C54.9003 12.6906 55.0308 12.6774 55.2109 12.6636C55.391 12.6499 55.5975 12.6234 55.8306 12.5842C56.0636 12.545 56.2729 12.5151 56.4586 12.4944C56.6443 12.4738 56.9024 12.4541 57.2329 12.4355C57.5635 12.4168 57.8807 12.4073 58.1847 12.4069C58.4887 12.4065 58.6999 12.4166 58.8183 12.4372C58.9367 12.4579 59.05 12.4804 59.1581 12.5046C59.2663 12.5289 59.3891 12.5619 59.5265 12.6037C59.664 12.6455 59.809 12.6995 59.9615 12.7657C60.1141 12.8319 60.2351 12.8745 60.3247 12.8935C60.4142 12.9125 60.5269 12.93 60.6626 12.946C60.7983 12.962 60.9282 12.9828 61.0523 13.0086C61.1764 13.0344 61.3071 13.0651 61.4445 13.1007C61.582 13.1364 61.6785 13.1576 61.7341 13.1644C61.7897 13.1711 61.8887 13.1748 62.0312 13.1756C62.1737 13.1763 62.2857 13.1748 62.3672 13.171C62.4488 13.1672 62.5729 13.1555 62.7395 13.136C62.9062 13.1164 63.0286 13.1045 63.1069 13.1002C63.1852 13.0959 63.2913 13.0935 63.4251 13.093C63.559 13.0925 63.6573 13.0959 63.72 13.1032C63.7828 13.1105 63.8782 13.1268 64.0062 13.1521C64.1341 13.1774 64.2567 13.1975 64.374 13.2124C64.4913 13.2273 64.6352 13.2361 64.8057 13.2387C64.9762 13.2414 65.1786 13.2348 65.413 13.2191C65.6474 13.2033 65.8343 13.1934 65.9738 13.1893C66.1133 13.1852 66.258 13.1792 66.4079 13.1714C66.5578 13.1635 66.7081 13.1519 66.8588 13.1365C67.0095 13.121 67.2039 13.0916 67.4418 13.0482C67.6797 13.0048 67.8417 12.9742 67.9276 12.9562C68.0135 12.9383 68.1352 12.9179 68.2924 12.8951C68.4497 12.8723 68.6647 12.8466 68.9373 12.818C69.2099 12.7894 69.427 12.7708 69.5886 12.7623C69.7502 12.7537 69.948 12.7493 70.182 12.7491C70.4159 12.7488 70.6242 12.7439 70.8067 12.7343C70.9892 12.7247 71.1716 12.7121 71.3539 12.6965C71.5361 12.6809 71.7563 12.6649 72.0144 12.6485C72.2724 12.6322 72.5305 12.6198 72.7887 12.6115C73.0469 12.6032 73.2564 12.5971 73.4172 12.5932C73.578 12.5893 73.7378 12.5823 73.8968 12.5723C74.0558 12.5623 74.1971 12.5572 74.3206 12.557C74.4441 12.5568 74.5681 12.5673 74.6925 12.5886C74.8169 12.6099 74.9513 12.6317 75.0956 12.6539C75.2399 12.6761 75.3854 12.6886 75.532 12.6913C75.6787 12.6941 75.8514 12.7022 76.0502 12.7157C76.249 12.7291 76.4526 12.7361 76.6609 12.7365C76.8693 12.7369 77.0179 12.7322 77.1068 12.7224C77.1957 12.7126 77.3445 12.7076 77.5534 12.7074C77.7623 12.7071 77.923 12.7089 78.0356 12.7125C78.1481 12.7162 78.2479 12.7267 78.335 12.7442C78.422 12.7616 78.4891 12.784 78.5361 12.8113C78.5831 12.8385 78.6276 12.8766 78.6696 12.9254C78.7117 12.9742 79.485 12.5924 79.5835 12.7582C79.682 12.9241 79.0454 13.5303 79.0801 13.5986C79.1147 13.6668 79.1416 13.7378 79.1607 13.8114C79.1798 13.885 79.1898 13.9874 79.191 14.1187C79.1921 14.2499 79.1579 14.3941 79.0884 14.5513C79.0189 14.7085 78.9535 14.8656 78.892 15.0226C78.8306 15.1796 78.7766 15.3039 78.73 15.3953C78.6835 15.4868 78.6365 15.5602 78.589 15.6155C78.5416 15.6708 78.4857 15.7146 78.4214 15.7468C78.3571 15.7791 78.2803 15.8066 78.191 15.8294C78.1016 15.8522 77.9136 15.8787 77.6269 15.9088C77.3402 15.939 77.0938 15.9574 76.8877 15.9642C76.6815 15.971 76.2486 15.9745 75.5889 15.9748C74.9293 15.9751 74.3527 15.9714 73.8593 15.9637C73.3659 15.9561 72.9825 15.9512 72.709 15.9491C72.4355 15.9469 72.176 15.9492 71.9306 15.956C71.6851 15.9627 71.3435 15.9902 70.9058 16.0384C70.4682 16.0866 70.1749 16.1175 70.026 16.131C69.8771 16.1445 69.7177 16.152 69.5477 16.1535C69.3776 16.1549 69.275 16.152 69.2397 16.1448C69.2044 16.1375 69.1769 16.1164 69.1573 16.0815C69.1378 16.0467 69.1286 16.0166 69.1298 15.9914C69.131 15.9662 69.148 15.9388 69.1809 15.9092C69.2138 15.8796 69.2662 15.8442 69.3381 15.8031C69.4099 15.762 69.5098 15.7159 69.6377 15.6649C69.7657 15.614 69.9265 15.5544 70.1201 15.4861C70.3138 15.4178 70.5249 15.3451 70.7535 15.2678C70.982 15.1905 71.2252 15.1119 71.4831 15.032C71.741 14.9521 72.0127 14.8765 72.2984 14.8054C72.5841 14.7342 72.8495 14.6742 73.0947 14.6255C73.3399 14.5767 73.5759 14.5355 73.8026 14.5018C74.0294 14.4681 74.2408 14.4414 74.4369 14.4218C74.633 14.4021 74.8005 14.3895 74.9394 14.3841C75.0782 14.3786 75.2262 14.3765 75.3835 14.3776C75.5407 14.3788 75.635 14.3876 75.6664 14.404C75.6978 14.4205 75.7091 14.4494 75.7005 14.4907C75.6919 14.532 75.6515 14.5647 75.5795 14.5889C75.5074 14.6131 75.4081 14.6363 75.2816 14.6585C75.1552 14.6807 74.9917 14.7011 74.7912 14.7196C74.5908 14.7381 74.1949 14.7662 73.6036 14.8039C73.0123 14.8415 72.5221 14.8714 72.1328 14.8935C71.7436 14.9156 71.1242 14.9525 70.2746 15.0041C69.4251 15.0557 68.7709 15.0972 68.312 15.1286C67.8531 15.1601 67.3913 15.1937 66.9265 15.2294C66.4617 15.2652 66.0255 15.3046 65.6178 15.3478C65.2101 15.3909 64.809 15.4417 64.4144 15.5002C64.0199 15.5586 63.6401 15.626 63.2752 15.7023C62.9103 15.7786 62.5834 15.8549 62.2945 15.9313C62.0056 16.0076 61.7175 16.0911 61.4302 16.1817C61.143 16.2723 60.8801 16.352 60.6417 16.4207C60.4033 16.4895 60.2026 16.5453 60.0396 16.5883C59.8767 16.6313 59.7428 16.6631 59.6381 16.6837C59.5334 16.7043 59.4586 16.7156 59.4138 16.7177C59.3691 16.7197 59.3427 16.7136 59.3348 16.6992C59.3268 16.6848 59.3585 16.6471 59.4297 16.5859C59.501 16.5248 59.6114 16.4488 59.7612 16.358C59.9109 16.2673 60.0981 16.1649 60.3228 16.051C60.5474 15.9371 60.7984 15.8167 61.0758 15.6897C61.3532 15.5628 61.6419 15.4424 61.9419 15.3287C62.2419 15.2151 62.5426 15.1074 62.8439 15.0058C63.1452 14.9042 63.5302 14.778 63.999 14.6271C64.4677 14.4763 64.7715 14.3805 64.9105 14.3399C65.0494 14.2992 65.1725 14.2665 65.2798 14.2415C65.3871 14.2166 65.4436 14.2035 65.4493 14.2021L65.4528 14.2013L65.4461 14.2028C65.4383 14.2046 65.3607 14.2221 65.2134 14.2553C65.066 14.2886 64.7763 14.3406 64.3441 14.4115C63.912 14.4823 63.5578 14.5385 63.2816 14.5801C63.0054 14.6217 62.7198 14.6672 62.4248 14.7164C62.1299 14.7657 61.8288 14.8227 61.5215 14.8873C61.2143 14.9519 60.8979 15.0218 60.5726 15.097C60.2472 15.1722 59.9339 15.2469 59.6325 15.321C59.3311 15.3952 59.0389 15.4585 58.7559 15.5111C58.4728 15.5636 58.2295 15.6051 58.0258 15.6357C57.8221 15.6663 57.6343 15.6877 57.4623 15.6997C57.2904 15.7118 57.104 15.7195 56.9032 15.7227C56.7024 15.726 56.5799 15.725 56.5358 15.7198C56.4916 15.7146 56.4609 15.7028 56.4435 15.6842C56.4262 15.6656 56.4194 15.6419 56.4231 15.613C56.4269 15.584 56.4587 15.5436 56.5187 15.4918C56.5787 15.44 56.6607 15.3754 56.7646 15.298C56.8685 15.2206 56.9842 15.1375 57.1119 15.0485C57.2395 14.9596 57.3694 14.8718 57.5014 14.7852C57.6334 14.6985 57.7674 14.6139 57.9033 14.5313C58.0392 14.4487 58.228 14.3419 58.4695 14.2107C58.711 14.0795 58.8743 13.9958 58.9592 13.9595C59.0441 13.9231 59.1252 13.895 59.2027 13.8752C59.2802 13.8553 59.2977 13.8772 59.2552 13.9409C59.2127 14.0046 59.143 14.0798 59.0459 14.1665C58.9489 14.2533 58.8307 14.3506 58.6913 14.4585C58.5519 14.5664 58.4057 14.6773 58.2526 14.7912C58.0995 14.9051 57.9448 15.0255 57.7884 15.1525C57.6319 15.2794 57.4691 15.4088 57.3 15.5405C57.1308 15.6723 56.9557 15.798 56.7749 15.9177C56.594 16.0374 56.4267 16.1448 56.2729 16.2397C56.1192 16.3346 55.9767 16.4212 55.8456 16.4994C55.7144 16.5776 55.5991 16.6423 55.4995 16.6935C55.3999 16.7447 55.2844 16.7942 55.153 16.8419C55.0215 16.8896 54.9242 16.9166 54.861 16.9227C54.7978 16.9289 54.7647 16.8859 54.7617 16.7939C54.7586 16.7018 54.7678 16.5888 54.7892 16.455C54.8106 16.3212 54.8189 16.2231 54.8141 16.1607C54.8094 16.0983 54.7831 16.0513 54.7353 16.0199C54.6875 15.9884 54.6272 15.9662 54.5543 15.9533C54.4815 15.9404 54.4077 15.931 54.3328 15.9252C54.258 15.9193 54.1987 15.9085 54.1549 15.8927C54.1112 15.877 54.0883 15.9147 54.0862 16.0057C54.0841 16.0966 54.085 16.2211 54.0888 16.3791C54.0927 16.5371 54.0909 16.6984 54.0834 16.8631C54.0758 17.0277 54.0727 17.1897 54.074 17.349C54.0753 17.5084 54.0994 17.6816 54.1463 17.8687C54.1932 18.0557 54.2253 18.2147 54.2427 18.3455C54.2601 18.4763 54.2698 18.6618 54.2719 18.902C54.2741 19.1421 54.2763 19.3198 54.2785 19.4348C54.2807 19.5499 54.272 19.6467 54.2525 19.7253C54.233 19.8039 54.2178 19.8745 54.2069 19.9369C54.1961 19.9994 54.2146 20.0358 54.2623 20.046C54.31 20.0562 54.37 20.0613 54.4423 20.0614C54.5146 20.0614 54.6613 20.0262 54.8822 19.9557C55.1032 19.8852 55.2644 19.8385 55.3657 19.8154C55.4671 19.7924 55.5897 19.768 55.7337 19.7423C55.8777 19.7166 56.0168 19.6815 56.1509 19.6372C56.2851 19.5928 56.4404 19.5332 56.6168 19.4582C56.7932 19.3833 56.9758 19.3066 57.1645 19.2281C57.3532 19.1497 57.4937 19.0942 57.5859 19.0615C57.6781 19.0289 57.7731 18.9993 57.8707 18.9728C57.9684 18.9463 58.0708 18.9227 58.178 18.902C58.2851 18.8813 58.4564 18.8518 58.6919 18.8135C58.9273 18.7752 59.1044 18.7433 59.2232 18.7177C59.342 18.6921 59.5299 18.6457 59.7869 18.5784C60.0439 18.5111 60.3865 18.4176 60.8147 18.298C61.2429 18.1783 61.5276 18.1012 61.6686 18.0667C61.8096 18.0321 61.9612 17.9968 62.1234 17.9607C62.2856 17.9246 62.4451 17.8921 62.6019 17.8632C62.7588 17.8342 62.9084 17.8084 63.0507 17.7857C63.1931 17.763 63.3345 17.7424 63.475 17.7238C63.6155 17.7053 63.7523 17.6888 63.8856 17.6744C64.0189 17.6601 64.2217 17.6433 64.4941 17.624C64.7664 17.6047 64.9334 17.5949 64.9949 17.5945C65.0564 17.594 65.0888 17.5938 65.0921 17.5938L65.0933 17.5938L65.0811 17.5936C65.0704 17.5935 64.9662 17.5925 64.7684 17.5907C64.5706 17.5889 64.3979 17.5925 64.2501 17.6015C64.1024 17.6105 63.9481 17.6217 63.7872 17.6351C63.6264 17.6485 63.4502 17.6595 63.2587 17.6682C63.0672 17.6768 62.8573 17.6815 62.629 17.6824C62.4006 17.6833 62.1729 17.6846 61.9459 17.6864C61.7188 17.6883 61.4864 17.6966 61.2485 17.7113C61.0107 17.7261 60.7581 17.7494 60.4909 17.7815C60.2236 17.8135 59.9673 17.8556 59.722 17.9077C59.4766 17.9598 59.2351 18.0182 58.9974 18.0828C58.7597 18.1473 58.5261 18.2189 58.2966 18.2976C58.0672 18.3762 57.8523 18.4566 57.6519 18.5387C57.4516 18.6209 57.2666 18.6994 57.097 18.7742C56.9274 18.8491 56.7708 18.9227 56.6271 18.9951C56.4834 19.0675 56.3667 19.129 56.2768 19.1796C56.1869 19.2302 56.1203 19.2707 56.077 19.3011C56.0337 19.3315 56.0052 19.3555 55.9915 19.3731C55.9777 19.3908 56.0081 19.4081 56.0826 19.4252C56.1571 19.4423 56.2902 19.4541 56.4819 19.4607C56.6736 19.4673 56.887 19.4699 57.1222 19.4684C57.3573 19.4669 57.4605 20.1776 57.5823 20.1702C57.7041 20.1627 57.9661 19.4424 58.2177 19.4397C58.4693 19.437 58.6497 19.4418 58.7589 19.4543C58.8681 19.4668 58.9669 19.4846 59.0554 19.5077C59.1438 19.5308 59.2267 19.5551 59.3041 19.5807C59.3816 19.6063 59.5021 19.6583 59.6657 19.7367C59.8294 19.8151 59.9373 19.8654 59.9896 19.8876C60.0418 19.9098 60.133 19.9384 60.263 19.9734C60.3931 20.0084 60.5006 20.0293 60.5855 20.0361C60.6705 20.043 60.8092 20.0459 61.0018 20.0449C61.1943 20.0439 61.3426 20.0343 61.4466 20.0161C61.5506 19.9979 61.8609 19.9312 62.3776 19.8161C62.8943 19.701 63.2115 19.6311 63.3293 19.6066C63.4471 19.5821 63.5708 19.5595 63.7004 19.539C63.8299 19.5185 63.9526 19.501 64.0684 19.4865C64.1842 19.4719 64.2949 19.4603 64.4004 19.4515C64.5059 19.4428 64.6322 19.437 64.7794 19.4341C64.9266 19.4313 65.0249 19.4307 65.0744 19.4324C65.1239 19.4341 65.1715 19.4454 65.2172 19.4663C65.263 19.4871 65.2797 19.5095 65.2675 19.5335C65.2552 19.5574 65.1693 19.5899 65.0096 19.631C64.8499 19.672 64.7039 19.7045 64.5715 19.7284C64.4391 19.7523 64.2356 19.7816 63.9609 19.8164C63.6862 19.8512 63.4002 19.8839 63.1029 19.9143C62.8056 19.9448 62.5773 19.9688 62.418 19.9864C62.2587 20.004 62.1022 20.0237 61.9486 20.0456C61.7951 20.0675 61.6448 20.0911 61.4977 20.1166C61.3507 20.142 61.1399 20.1846 60.8652 20.2445C60.5906 20.3043 60.3644 20.355 60.1866 20.3966C60.0089 20.4382 59.8955 20.4625 59.8466 20.4697C59.7977 20.4768 59.7717 20.4806 59.7686 20.4811L59.7665 20.4814L59.7696 20.4813C59.7733 20.481 59.8048 20.4783 59.8639 20.4733C59.9231 20.4683 60.2088 20.3958 60.7208 20.2558C61.2329 20.1158 61.578 20.0201 61.7562 19.9685C61.9344 19.9169 62.2109 19.8325 62.5857 19.7152C62.9605 19.5979 63.2438 19.5083 63.4356 19.4463C63.6273 19.3842 63.8185 19.3258 64.0091 19.271C64.1997 19.2163 64.4733 19.145 64.8299 19.0572C65.1864 18.9694 65.4495 18.9082 65.6192 18.8734C65.7889 18.8386 65.9571 18.8077 66.1236 18.7806C66.2901 18.7535 66.5261 18.7213 66.8314 18.6839C67.1368 18.6465 67.4328 18.6127 67.7193 18.5825C68.0059 18.5524 68.2895 18.5251 68.57 18.5008C68.8505 18.4764 69.0544 18.4574 69.1817 18.4437C69.3091 18.43 69.552 18.3982 69.9106 18.3483C70.2692 18.2985 70.5472 18.2592 70.7446 18.2307C70.9421 18.2022 71.1189 18.1786 71.2752 18.16C71.4315 18.1414 71.554 18.1251 71.6426 18.111C71.7312 18.0968 71.7865 18.0816 71.8084 18.0654C71.8304 18.0492 71.8206 18.0335 71.7789 18.0184C71.7372 18.0032 71.6728 17.9858 71.5857 17.9663C71.4985 17.9467 71.3837 17.9269 71.2414 17.9069C71.099 17.8869 70.9258 17.8669 70.7217 17.8468C70.5177 17.8268 70.2964 17.8076 70.0578 17.7893C69.8193 17.771 69.5634 17.7547 69.2901 17.7403C69.0168 17.726 68.7393 17.7173 68.4575 17.7141C68.1758 17.7109 67.9051 17.7182 67.6454 17.7359C67.3857 17.7537 67.1139 17.7868 66.83 17.8355C66.5462 17.8841 66.2798 17.9362 66.0308 17.9917C65.7818 18.0472 65.5402 18.1075 65.3061 18.1724C65.0721 18.2373 64.8501 18.3011 64.6404 18.3638C64.4307 18.4265 64.2529 18.4808 64.1072 18.5266C63.9615 18.5725 63.8207 18.6202 63.6848 18.6697C63.5489 18.7193 63.4883 18.7462 63.5031 18.7504C63.5179 18.7546 63.5548 18.7651 63.6139 18.7819C63.673 18.7987 63.7602 18.812 63.8755 18.8218C63.9908 18.8316 64.133 18.8395 64.3021 18.8457C64.4711 18.8519 64.777 18.8553 65.2198 18.856C65.6626 18.8567 66.0181 18.8517 66.2865 18.8409C66.5548 18.8302 66.8261 18.8171 67.1004 18.8018C67.3746 18.7865 67.6509 18.7753 67.9293 18.7683C68.2076 18.7612 68.4673 18.7564 68.7083 18.754C68.9493 18.7515 69.1812 18.7538 69.4041 18.7609C69.627 18.7679 69.8318 18.7853 70.0185 18.8131C70.2053 18.8409 70.3765 18.8759 70.5324 18.9183C70.6882 18.9606 70.8236 19.0056 70.9385 19.0532C71.0535 19.1008 71.1527 19.1523 71.2363 19.2078C71.3198 19.2632 71.3894 19.3189 71.4449 19.3747C71.5005 19.4306 71.5427 19.4848 71.5716 19.5372C71.6005 19.5897 71.6196 19.6542 71.6288 19.731C71.638 19.8077 71.6317 19.8567 71.6099 19.8779C71.5881 19.8991 71.5281 19.9158 71.4298 19.9278C71.3315 19.9399 71.2415 19.9461 71.1599 19.9464C71.0782 19.9466 70.9873 19.9423 70.8872 19.9333C70.7871 19.9243 70.6724 19.9103 70.5432 19.8914C70.4139 19.8724 70.2787 19.8547 70.1376 19.8382C69.9965 19.8218 69.8511 19.8073 69.7013 19.7949C69.5516 19.7825 69.3142 19.7747 68.9894 19.7714C68.6644 19.7681 68.4141 19.7665 68.2384 19.7665C68.0627 19.7664 67.8893 19.7746 67.7181 19.7909C67.547 19.8072 67.3761 19.8286 67.2055 19.8552C67.0349 19.8819 66.803 19.9263 66.5099 19.9885C66.2168 20.0508 66.0239 20.0932 65.9313 20.1159C65.8386 20.1385 65.7506 20.1626 65.6671 20.1881C65.5836 20.2135 65.5522 20.2402 65.5728 20.268C65.5935 20.2958 65.6424 20.3199 65.7194 20.3403C65.7965 20.3607 65.9073 20.3714 66.0521 20.3723C66.1968 20.3733 66.3175 20.372 66.4141 20.3685C66.5107 20.3651 66.7768 20.331 67.2125 20.2663C67.6482 20.2015 67.9872 20.1531 68.2296 20.1209C68.4719 20.0887 68.7575 20.0523 69.0864 20.0118C69.4152 19.9712 69.679 19.9378 69.8779 19.9116C70.0767 19.8854 70.2616 19.863 70.4325 19.8444C70.6033 19.8259 70.7599 19.8067 70.902 19.7868C71.0442 19.7669 71.2021 19.7392 71.3758 19.7035C71.5494 19.6679 71.6884 19.6417 71.7929 19.6251C71.8973 19.6085 71.9971 19.597 72.0922 19.5905C72.1872 19.5841 72.3259 19.5807 72.5082 19.5805C72.6905 19.5802 72.8347 19.5772 72.9406 19.5715C73.0466 19.5657 73.2299 19.5413 73.4906 19.4983C73.7512 19.4552 73.9528 19.4236 74.0951 19.4033C74.2375 19.3831 74.3775 19.3685 74.5149 19.3598C74.6524 19.351 74.7824 19.3464 74.905 19.3459C75.0276 19.3455 75.1694 19.3607 75.3306 19.3916C75.4918 19.4225 75.6379 19.4395 75.7691 19.4425C75.9002 19.4455 76.0036 19.4461 76.0791 19.4444C76.1545 19.4427 76.2313 19.4336 76.3094 19.4171C76.3876 19.4007 76.4666 19.38 76.5464 19.3551C76.6263 19.3302 76.7448 19.2888 76.9019 19.2309C77.0591 19.173 77.21 19.1206 77.3546 19.0737C77.4992 19.0268 77.6601 18.9827 77.8372 18.9415C78.0143 18.9002 78.1494 18.8676 78.2426 18.8437C78.3357 18.8198 78.4562 18.7801 78.6041 18.7247C78.752 18.6693 78.8655 18.6225 78.9447 18.5843C79.0238 18.5461 79.0877 18.5107 79.1362 18.4781C79.1847 18.4455 79.2149 18.4205 79.227 18.4032C79.239 18.3859 79.1904 18.376 79.0812 18.3736C78.972 18.3712 78.8736 18.3709 78.7861 18.3726C78.6986 18.3744 78.5421 18.3878 78.3166 18.4128C78.0912 18.4379 77.8648 18.4586 77.6376 18.4749C77.4103 18.4912 77.1918 18.5036 76.9821 18.5121C76.7723 18.5206 76.5405 18.5251 76.2868 18.5255C76.033 18.526 75.8743 18.5253 75.8107 18.5236C75.7471 18.5219 75.6708 18.5124 75.5818 18.4951C75.4927 18.4779 73.6592 17.5727 73.6279 17.5527C73.5966 17.5326 75.3555 18.4002 75.358 18.382C75.3605 18.3639 75.4013 18.3401 75.4806 18.3107C75.5599 18.2813 75.6343 18.2604 75.7039 18.248C75.7735 18.2357 75.9003 18.2249 76.0843 18.2158C76.2682 18.2066 76.4462 18.2029 76.6182 18.2047C76.7902 18.2065 76.9807 18.2278 77.1897 18.2687C77.3987 18.3096 77.557 18.3365 77.6644 18.3493C77.7718 18.3622 77.8858 18.3698 78.0065 18.3722C78.1271 18.3746 78.2103 18.3637 78.256 18.3396C78.3017 18.3154 78.3636 18.2566 78.4419 18.1632C78.5201 18.0697 78.5923 17.9739 78.6585 17.8758C78.7247 17.7776 78.7909 17.6718 78.8569 17.5583C78.923 17.4448 78.9779 17.3531 79.0215 17.2834C79.0652 17.2136 79.1303 17.1179 79.2167 16.9963C79.3031 16.8747 79.3719 16.794 79.423 16.7543C79.4741 16.7146 79.5217 16.6834 79.5659 16.6606C79.61 16.6377 79.6427 16.626 79.664 16.6253C79.6853 16.6246 79.6981 16.6587 79.7024 16.7275C79.7067 16.7963 79.6964 16.9 79.6713 17.0387C79.6462 17.1774 79.6292 17.3286 79.6203 17.4925C79.6114 17.6563 79.602 17.8659 79.592 18.1213C79.5821 18.3766 79.5741 18.5478 79.5681 18.6348C79.562 18.7218 79.5598 18.8141 79.5615 18.9115C79.5633 19.0089 79.5731 19.096 79.591 19.1728C79.609 19.2496 79.6182 19.3453 79.6187 19.4598C79.6192 19.5744 79.6183 19.6862 79.6161 19.7955C79.6139 19.9047 79.61 19.9745 79.6043 20.005C79.5987 20.0355 79.5736 20.0727 79.5292 20.1165C79.4848 20.1602 79.4351 20.1954 79.3803 20.2221C79.3254 20.2487 79.2641 20.2675 79.1964 20.2784C79.1287 20.2893 79.0408 20.2969 78.9328 20.3013C78.8248 20.3056 78.5087 20.3078 77.9846 20.3078C77.4604 20.3078 77.1017 20.305 76.9083 20.2992C76.7149 20.2935 76.5085 20.283 76.2891 20.2676C76.0696 20.2522 75.8446 20.2393 75.6142 20.2288C75.3837 20.2184 75.1542 20.2129 74.9256 20.2125C74.697 20.212 74.4865 20.2193 74.2941 20.2342C74.1016 20.2492 73.9481 20.2711 73.8336 20.2999" fill="none" opacity="1" stroke="#ffffff" stroke-linecap="round" stroke-linejoin="round" stroke-width="3.37796" vectornator:layerName="path"/>
</g>
</g>
</g>
<g opacity="1" vectornator:layerName="path 2">
<clipPath clip-rule="nonzero" id="ClipPath_5">
<path d="M51.6285 11.5445L83.0458 11.5445L83.0458 9.65221L51.6285 9.65221L51.6285 11.5445Z"/>
</clipPath>
<g clip-path="url(#ClipPath_5)">
<clipPath clip-rule="nonzero" id="ClipPath_6">
<path d="M51.6285 11.5445L83.0458 11.5445L83.0458 9.65221L51.6285 9.65221L51.6285 11.5445Z"/>
</clipPath>
<g clip-path="url(#ClipPath_6)">
<path d="M52.3371 10.5213C52.5641 10.5278 52.7979 10.5164 53.0388 10.4871C53.1988 10.4677 53.3877 10.4529 53.6056 10.4429C53.8234 10.4329 54.4448 10.4315 55.47 10.4389C56.4951 10.4463 57.333 10.4502 57.9836 10.4506C58.6343 10.4511 59.3605 10.4491 60.1624 10.4447C60.9643 10.4404 62.3492 10.4303 64.3172 10.4144C66.2851 10.3985 67.7743 10.3861 68.7847 10.3772C69.7952 10.3683 71.2736 10.3634 73.2201 10.3624C75.1667 10.3614 76.558 10.3782 77.3942 10.4127C78.6192 10.4632 80.2668 10.6042 82.3372 10.8358" fill="none" opacity="1" stroke="#000000" stroke-linecap="round" stroke-linejoin="round" stroke-width="1.29926" vectornator:layerName="path"/>
</g>
</g>
</g>
<g opacity="1" vectornator:layerName="path 3">
<clipPath clip-rule="nonzero" id="ClipPath_7">
<path d="M50.9006 21.6346L52.8052 21.6346L52.8052 10.2518L50.9006 10.2518L50.9006 21.6346Z"/>
</clipPath>
<g clip-path="url(#ClipPath_7)">
<clipPath clip-rule="nonzero" id="ClipPath_8">
<path d="M50.9006 21.6346L52.8052 21.6346L52.8052 10.2518L50.9006 10.2518L50.9006 21.6346Z"/>
</clipPath>
<g clip-path="url(#ClipPath_8)">
<path d="M52.0965 10.9605C52.0713 12.1663 52.0583 12.9319 52.0576 13.2572C52.0572 13.4836 52.0496 13.8121 52.0348 14.243C52.0201 14.6738 51.9983 15.1362 51.9695 15.6301C51.9407 16.124 51.9096 16.621 51.8762 17.1212C51.8278 17.8458 51.7389 19.1141 51.6092 20.9259" fill="none" opacity="1" stroke="#000000" stroke-linecap="round" stroke-linejoin="round" stroke-width="1.29922" vectornator:layerName="path"/>
</g>
</g>
</g>
<g opacity="1" vectornator:layerName="path 4">
<clipPath clip-rule="nonzero" id="ClipPath_9">
<path d="M51.3697 23.6467L81.141 23.6467L81.141 21.6388L51.3697 21.6388L51.3697 23.6467Z"/>
</clipPath>
<g clip-path="url(#ClipPath_9)">
<clipPath clip-rule="nonzero" id="ClipPath_10">
<path d="M51.3697 23.6467L81.141 23.6467L81.141 21.6388L51.3697 21.6388L51.3697 23.6467Z"/>
</clipPath>
<g clip-path="url(#ClipPath_10)">
<path d="M52.2739 22.3552C52.1435 22.3501 52.0875 22.3539 52.1057 22.3666C52.1188 22.3757 52.1513 22.3984 52.2034 22.4348C52.2555 22.4712 52.3879 22.5061 52.6006 22.5395C52.8133 22.5729 53.0193 22.5981 53.2188 22.6153C53.4182 22.6324 53.8771 22.6539 54.5956 22.6797C55.314 22.7055 57.441 22.7191 60.9766 22.7205C64.5122 22.7218 66.7275 22.7189 67.6226 22.7115C68.5178 22.7042 69.4242 22.6983 70.3421 22.6939C71.2599 22.6895 72.1546 22.6871 73.0263 22.6866C73.898 22.6862 74.7233 22.6915 75.5021 22.7024C76.639 22.7184 78.2824 22.7969 80.4323 22.938" fill="none" opacity="1" stroke="#000000" stroke-linecap="round" stroke-linejoin="round" stroke-width="1.29922" vectornator:layerName="path"/>
</g>
</g>
</g>
<g opacity="1" vectornator:layerName="path 5">
<clipPath clip-rule="nonzero" id="ClipPath_11">
<path d="M80.9302 23.4025L82.4633 23.4025L82.4633 11.2186L80.9302 11.2186L80.9302 23.4025Z"/>
</clipPath>
<g clip-path="url(#ClipPath_11)">
<clipPath clip-rule="nonzero" id="ClipPath_12">
<path d="M80.9302 23.4025L82.4633 23.4025L82.4633 11.2186L80.9302 11.2186L80.9302 23.4025Z"/>
</clipPath>
<g clip-path="url(#ClipPath_12)">
<path d="M81.6389 11.9272C81.6792 12.3427 81.7081 12.7953 81.7256 13.2849C81.743 13.7745 81.7522 15.0202 81.7531 17.0219C81.754 19.0237 81.7159 20.9143 81.6388 22.6937" fill="none" opacity="1" stroke="#000000" stroke-linecap="round" stroke-linejoin="round" stroke-width="1.29924" vectornator:layerName="path"/>
</g>
</g>
</g>
<g opacity="1" vectornator:layerName="path 6">
<clipPath clip-rule="nonzero" id="ClipPath_13">
<path d="M55.3253 20.0214L60.8419 20.0214L60.8419 13.3076L55.3253 13.3076L55.3253 20.0214Z"/>
</clipPath>
<g clip-path="url(#ClipPath_13)">
<clipPath clip-rule="nonzero" id="ClipPath_14">
<path d="M55.3253 20.0214L60.8419 20.0214L60.8419 13.3076L55.3253 13.3076L55.3253 20.0214Z"/>
</clipPath>
<g clip-path="url(#ClipPath_14)">
<path d="M56.6834 14.6919C56.5507 14.7129 56.4294 14.8177 56.3194 15.0062C56.2462 15.1317 56.1918 15.2643 56.1563 15.4041C56.1208 15.5439 56.0935 15.7038 56.0745 15.8836C56.0555 16.0635 56.0439 16.2478 56.0399 16.4366C56.0359 16.6254 56.0362 16.8121 56.0407 16.9969C56.0452 17.1816 56.0744 17.3741 56.1283 17.5741C56.1821 17.7742 56.25 17.9645 56.332 18.1449C56.414 18.3254 56.5051 18.49 56.6053 18.6386C56.7055 18.7873 56.8183 18.9137 56.9435 19.0178C57.0688 19.122 57.2041 19.1972 57.3494 19.2435C57.4947 19.2897 57.6512 19.3125 57.8189 19.3117C57.9866 19.3109 58.1681 19.267 58.3634 19.1801C58.5586 19.0932 58.7454 18.9828 58.9237 18.8489C59.102 18.715 59.2626 18.57 59.4055 18.4138C59.5484 18.2576 59.6755 18.0863 59.7867 17.8998C59.898 17.7134 59.9795 17.5356 60.0314 17.3663C60.0833 17.197 60.1132 17.0297 60.1212 16.8646C60.1292 16.6994 60.1182 16.5409 60.0881 16.3889C60.0579 16.237 59.9992 16.0908 59.9119 15.9505C59.8246 15.8101 59.714 15.6731 59.5802 15.5393C59.4464 15.4055 59.2874 15.2669 59.1033 15.1234C58.9192 14.98 58.7308 14.8398 58.5382 14.7027C58.3455 14.5657 58.1682 14.4469 58.0063 14.3463C57.8444 14.2457 57.6928 14.1688 57.5516 14.1156C57.4103 14.0624 57.2852 14.0331 57.1762 14.0277C57.02 14.0201 56.8322 14.1711 56.6127 14.4808" fill="none" opacity="1" stroke="#000000" stroke-linecap="round" stroke-linejoin="round" stroke-width="1.29921" vectornator:layerName="path"/>
</g>
</g>
</g>
<g opacity="1" vectornator:layerName="path 7">
<clipPath clip-rule="nonzero" id="ClipPath_15">
<path d="M61.6475 19.361L63.365 19.361L63.365 14.1944L61.6475 14.1944L61.6475 19.361Z"/>
</clipPath>
<g clip-path="url(#ClipPath_15)">
<clipPath clip-rule="nonzero" id="ClipPath_16">
<path d="M61.6475 19.361L63.365 19.361L63.365 14.1944L61.6475 14.1944L61.6475 19.361Z"/>
</clipPath>
<g clip-path="url(#ClipPath_16)">
<path d="M62.4171 14.9031C62.384 15.0883 62.3656 15.2777 62.3619 15.4711C62.3581 15.6646 62.3562 15.9465 62.3562 16.317C62.3562 16.6875 62.359 16.96 62.3646 17.1348C62.3702 17.3095 62.3821 17.4785 62.4002 17.6417C62.4184 17.805 62.4371 17.9522 62.4565 18.0833C62.4853 18.2787 62.5519 18.4683 62.6563 18.6524" fill="none" opacity="1" stroke="#000000" stroke-linecap="round" stroke-linejoin="round" stroke-width="1.29922" vectornator:layerName="path"/>
</g>
</g>
</g>
<g opacity="1" vectornator:layerName="path 8">
<clipPath clip-rule="nonzero" id="ClipPath_17">
<path d="M60.4746 20.6042L66.1914 20.6042L66.1914 13.4369L60.4746 13.4369L60.4746 20.6042Z"/>
</clipPath>
<g clip-path="url(#ClipPath_17)">
<clipPath clip-rule="nonzero" id="ClipPath_18">
<path d="M60.4746 20.6042L66.1914 20.6042L66.1914 13.4369L60.4746 13.4369L60.4746 20.6042Z"/>
</clipPath>
<g clip-path="url(#ClipPath_18)">
<path d="M61.4316 14.518C61.4108 14.4074 61.4296 14.3177 61.4879 14.2487C61.5279 14.2014 61.6156 14.1726 61.7511 14.1622C61.8865 14.1518 62.0764 14.1465 62.3207 14.1461C62.565 14.1458 62.7591 14.1584 62.903 14.1839C63.0468 14.2094 63.1958 14.245 63.35 14.2908C63.5042 14.3365 63.6659 14.3975 63.8352 14.4737C64.0045 14.5499 64.1626 14.6365 64.3095 14.7335C64.4564 14.8304 64.5984 14.9451 64.7353 15.0775C64.8723 15.2098 64.9912 15.3528 65.092 15.5064C65.1927 15.66 65.2724 15.8211 65.331 15.9896C65.3895 16.158 65.4295 16.3476 65.4508 16.5583C65.4721 16.769 65.4736 16.9819 65.4554 17.1968C65.4371 17.4117 65.3786 17.6244 65.2798 17.8348C65.181 18.0453 65.045 18.2467 64.8714 18.4391C64.6978 18.6314 64.4962 18.8049 64.2667 18.9596C64.0371 19.1143 63.81 19.2465 63.5854 19.3562C63.3608 19.4659 63.1326 19.5593 62.9008 19.6366C62.6689 19.7138 62.4483 19.7717 62.2389 19.8103C61.9308 19.8672 61.5789 19.8319 61.1833 19.7043" fill="none" opacity="1" stroke="#000000" stroke-linecap="round" stroke-linejoin="round" stroke-width="1.29921" vectornator:layerName="path"/>
</g>
</g>
</g>
<g opacity="1" vectornator:layerName="path 9">
<clipPath clip-rule="nonzero" id="ClipPath_19">
<path d="M66.5944 19.6611L71.2736 19.6611L71.2736 14.0815L66.5944 14.0815L66.5944 19.6611Z"/>
</clipPath>
<g clip-path="url(#ClipPath_19)">
<clipPath clip-rule="nonzero" id="ClipPath_20">
<path d="M66.5944 19.6611L71.2736 19.6611L71.2736 14.0815L66.5944 14.0815L66.5944 19.6611Z"/>
</clipPath>
<g clip-path="url(#ClipPath_20)">
<path d="M67.8566 14.7902C67.7789 14.7966 67.7176 14.8448 67.6726 14.9349C67.6419 14.996 67.5929 15.1407 67.5254 15.3689C67.4579 15.5971 67.4108 15.7853 67.3842 15.9335C67.3576 16.0817 67.338 16.2334 67.3255 16.3886C67.313 16.5437 67.3062 16.6993 67.3049 16.8552C67.3037 17.011 67.3195 17.1618 67.3524 17.3075C67.3853 17.4531 67.4353 17.597 67.5026 17.7392C67.5698 17.8813 67.6503 18.0157 67.7442 18.1423C67.838 18.2689 67.9406 18.382 68.0518 18.4815C68.1631 18.581 68.2805 18.6664 68.4041 18.7377C68.5276 18.809 68.6581 18.861 68.7955 18.8937C68.9329 18.9263 69.0774 18.9443 69.2288 18.9475C69.3803 18.9508 69.5338 18.9386 69.6895 18.911C69.9163 18.8707 70.2082 18.7355 70.565 18.5055" fill="none" opacity="1" stroke="#000000" stroke-linecap="round" stroke-linejoin="round" stroke-width="1.29921" vectornator:layerName="path"/>
</g>
</g>
</g>
<g opacity="1" vectornator:layerName="path 10">
<clipPath clip-rule="nonzero" id="ClipPath_21">
<path d="M67.1435 14.9938L71.0822 14.9938L71.0822 13.223L67.1435 13.223L67.1435 14.9938Z"/>
</clipPath>
<g clip-path="url(#ClipPath_21)">
<clipPath clip-rule="nonzero" id="ClipPath_22">
<path d="M67.1435 14.9938L71.0822 14.9938L71.0822 13.223L67.1435 13.223L67.1435 14.9938Z"/>
</clipPath>
<g clip-path="url(#ClipPath_22)">
<path d="M68.0218 14.2851C67.9087 14.241 67.8923 14.1956 67.9727 14.1489C68.0312 14.1149 68.1565 14.0798 68.3485 14.0436C68.5406 14.0074 68.7046 13.9821 68.8405 13.9676C68.9763 13.9532 69.1189 13.944 69.2681 13.9401C69.4842 13.9344 69.8526 13.9888 70.3735 14.1031" fill="none" opacity="1" stroke="#000000" stroke-linecap="round" stroke-linejoin="round" stroke-width="1.29923" vectornator:layerName="path"/>
</g>
</g>
</g>
<g opacity="1" vectornator:layerName="path 11">
<clipPath clip-rule="nonzero" id="ClipPath_23">
<path d="M66.658 17.3629L70.7257 17.3629L70.7257 15.7939L66.658 15.7939L66.658 17.3629Z"/>
</clipPath>
<g clip-path="url(#ClipPath_23)">
<clipPath clip-rule="nonzero" id="ClipPath_24">
<path d="M66.658 17.3629L70.7257 17.3629L70.7257 15.7939L66.658 15.7939L66.658 17.3629Z"/>
</clipPath>
<g clip-path="url(#ClipPath_24)">
<path d="M67.3666 16.5886C67.6457 16.5313 68.5291 16.5532 70.017 16.6543" fill="none" opacity="1" stroke="#000000" stroke-linecap="round" stroke-linejoin="round" stroke-width="1.29918" vectornator:layerName="path"/>
</g>
</g>
</g>
<g opacity="1" vectornator:layerName="path 12">
<clipPath clip-rule="nonzero" id="ClipPath_25">
<path d="M72.0747 19.5355L73.6079 19.5355L73.6079 13.9982L72.0747 13.9982L72.0747 19.5355Z"/>
</clipPath>
<g clip-path="url(#ClipPath_25)">
<clipPath clip-rule="nonzero" id="ClipPath_26">
<path d="M72.0747 19.5355L73.6079 19.5355L73.6079 13.9982L72.0747 13.9982L72.0747 19.5355Z"/>
</clipPath>
<g clip-path="url(#ClipPath_26)">
<path d="M72.8647 14.7068C72.8685 14.981 72.8569 15.4764 72.8298 16.1929C72.813 16.6358 72.8017 16.9764 72.7959 17.2146C72.7875 17.5612 72.822 18.0986 72.8991 18.8268" fill="none" opacity="1" stroke="#000000" stroke-linecap="round" stroke-linejoin="round" stroke-width="1.29917" vectornator:layerName="path"/>
</g>
</g>
</g>
<g opacity="1" vectornator:layerName="path 13">
<clipPath clip-rule="nonzero" id="ClipPath_27">
<path d="M71.5793 19.3902L77.8629 19.3902L77.8629 13.0969L71.5793 13.0969L71.5793 19.3902Z"/>
</clipPath>
<g clip-path="url(#ClipPath_27)">
<clipPath clip-rule="nonzero" id="ClipPath_28">
<path d="M71.5793 19.3902L77.8629 19.3902L77.8629 13.0969L71.5793 13.0969L71.5793 19.3902Z"/>
</clipPath>
<g clip-path="url(#ClipPath_28)">
<path d="M72.3257 14.3543C72.3005 14.2431 72.3338 14.1517 72.4255 14.0802C72.4887 14.0308 72.5572 13.9925 72.6311 13.9652C72.7051 13.9378 72.7907 13.9127 72.888 13.8899C72.9853 13.867 73.0947 13.8493 73.2162 13.8367C73.3376 13.8241 73.5241 13.8157 73.7755 13.8117C74.027 13.8076 74.2182 13.8168 74.3489 13.8393C74.4797 13.8619 74.6065 13.8922 74.7292 13.9303C74.8519 13.9684 74.9707 14.0136 75.0855 14.066C75.2004 14.1184 75.3018 14.1803 75.3899 14.2518C75.4779 14.3233 75.5506 14.3997 75.6079 14.481C75.6652 14.5622 75.7069 14.6491 75.733 14.7416C75.7591 14.8342 75.7749 14.927 75.7803 15.0202C75.7857 15.1134 75.7785 15.2081 75.7587 15.3043C75.7388 15.4004 75.6932 15.4968 75.6216 15.5933C75.5501 15.6897 75.4636 15.7838 75.3623 15.8754C75.261 15.967 75.1466 16.053 75.0192 16.1333C74.8917 16.2136 74.7615 16.2848 74.6287 16.3468C74.4958 16.4088 74.3689 16.4569 74.2481 16.4911C74.1273 16.5253 74.0036 16.5517 73.877 16.5703C73.7504 16.5889 73.6256 16.6016 73.5027 16.6084C73.3797 16.6152 73.2221 16.6189 73.0301 16.6197C72.838 16.6204 72.7283 16.6176 72.7012 16.6113C72.6741 16.6049 72.6574 16.6009 72.6512 16.5995C72.6449 16.598 72.6625 16.5967 72.7039 16.5955C72.7452 16.5943 72.8558 16.5911 73.0356 16.586C73.2154 16.5809 73.379 16.5911 73.5266 16.6166C73.6742 16.6421 73.8376 16.6828 74.017 16.7388C74.1964 16.7947 74.3315 16.8398 74.4223 16.874C74.5131 16.9082 74.6498 16.9665 74.8324 17.0489C75.015 17.1313 75.1998 17.2226 75.3867 17.3226C75.5736 17.4226 75.7519 17.5262 75.9217 17.6334C76.0914 17.7405 76.2434 17.8454 76.3778 17.9479C76.5738 18.0974 76.8326 18.342 77.1543 18.6817" fill="none" opacity="1" stroke="#000000" stroke-linecap="round" stroke-linejoin="round" stroke-width="1.29922" vectornator:layerName="path"/>
</g>
</g>
</g>
<g opacity="1" vectornator:layerName="path 14">
<clipPath clip-rule="nonzero" id="ClipPath_29">
<path d="M53.0238 10.3063L54.4842 10.3063L54.4842 8.63671L53.0238 8.63671L53.0238 10.3063Z"/>
</clipPath>
<g clip-path="url(#ClipPath_29)">
<clipPath clip-rule="nonzero" id="ClipPath_30">
<path d="M53.0238 10.3063L54.4842 10.3063L54.4842 8.63671L53.0238 8.63671L53.0238 10.3063Z"/>
</clipPath>
<g clip-path="url(#ClipPath_30)">
<path d="M53.7325 9.34537C53.7468 9.42947 53.7612 9.51358 53.7755 9.59758" fill="none" opacity="1" stroke="#000000" stroke-linecap="round" stroke-linejoin="round" stroke-width="1.29925" vectornator:layerName="path"/>
</g>
</g>
</g>
<g opacity="1" vectornator:layerName="path 15">
<clipPath clip-rule="nonzero" id="ClipPath_31">
<path d="M56.2386 10.6915L57.6858 10.6915L57.6858 8.61242L56.2386 8.61242L56.2386 10.6915Z"/>
</clipPath>
<g clip-path="url(#ClipPath_31)">
<clipPath clip-rule="nonzero" id="ClipPath_32">
<path d="M56.2386 10.6915L57.6858 10.6915L57.6858 8.61242L56.2386 8.61242L56.2386 10.6915Z"/>
</clipPath>
<g clip-path="url(#ClipPath_32)">
<path d="M56.9473 9.32109C56.9572 9.5417 56.9672 9.7623 56.9771 9.98291" fill="none" opacity="1" stroke="#000000" stroke-linecap="round" stroke-linejoin="round" stroke-width="1.29924" vectornator:layerName="path"/>
</g>
</g>
</g>
<g opacity="1" vectornator:layerName="path 16">
<clipPath clip-rule="nonzero" id="ClipPath_33">
<path d="M59.6064 10.5685L61.1018 10.5685L61.1018 8.57152L59.6064 8.57152L59.6064 10.5685Z"/>
</clipPath>
<g clip-path="url(#ClipPath_33)">
<clipPath clip-rule="nonzero" id="ClipPath_34">
<path d="M59.6064 10.5685L61.1018 10.5685L61.1018 8.57152L59.6064 8.57152L59.6064 10.5685Z"/>
</clipPath>
<g clip-path="url(#ClipPath_34)">
<path d="M60.3602 9.28013C60.3301 9.54523 60.3411 9.73842 60.3931 9.85992" fill="none" opacity="1" stroke="#000000" stroke-linecap="round" stroke-linejoin="round" stroke-width="1.29924" vectornator:layerName="path"/>
</g>
</g>
</g>
<g opacity="1" vectornator:layerName="path 17">
<clipPath clip-rule="nonzero" id="ClipPath_35">
<path d="M62.8074 10.4509L64.2595 10.4509L64.2595 8.52221L62.8074 8.52221L62.8074 10.4509Z"/>
</clipPath>
<g clip-path="url(#ClipPath_35)">
<clipPath clip-rule="nonzero" id="ClipPath_36">
<path d="M62.8074 10.4509L64.2595 10.4509L64.2595 8.52221L62.8074 8.52221L62.8074 10.4509Z"/>
</clipPath>
<g clip-path="url(#ClipPath_36)">
<path d="M63.5161 9.2309C63.5277 9.40131 63.5393 9.57181 63.5508 9.74221" fill="none" opacity="1" stroke="#000000" stroke-linecap="round" stroke-linejoin="round" stroke-width="1.29921" vectornator:layerName="path"/>
</g>
</g>
</g>
<g opacity="1" vectornator:layerName="path 18">
<clipPath clip-rule="nonzero" id="ClipPath_37">
<path d="M69.2744 10.4325L70.8208 10.4325L70.8208 8.30144L69.2744 8.30144L69.2744 10.4325Z"/>
</clipPath>
<g clip-path="url(#ClipPath_37)">
<clipPath clip-rule="nonzero" id="ClipPath_38">
<path d="M69.2744 10.4325L70.8208 10.4325L70.8208 8.30144L69.2744 8.30144L69.2744 10.4325Z"/>
</clipPath>
<g clip-path="url(#ClipPath_38)">
<path d="M69.9831 9.01005C70.026 9.03505 70.0516 9.07644 70.0601 9.13414C70.0723 9.21704 70.0897 9.41364 70.1121 9.72393" fill="none" opacity="1" stroke="#000000" stroke-linecap="round" stroke-linejoin="round" stroke-width="1.29921" vectornator:layerName="path"/>
</g>
</g>
</g>
<g opacity="1" vectornator:layerName="path 19">
<clipPath clip-rule="nonzero" id="ClipPath_39">
<path d="M72.6996 10.3523L74.2135 10.3523L74.2135 8.15105L72.6996 8.15105L72.6996 10.3523Z"/>
</clipPath>
<g clip-path="url(#ClipPath_39)">
<clipPath clip-rule="nonzero" id="ClipPath_40">
<path d="M72.6996 10.3523L74.2135 10.3523L74.2135 8.15105L72.6996 8.15105L72.6996 10.3523Z"/>
</clipPath>
<g clip-path="url(#ClipPath_40)">
<path d="M73.4082 8.85965C73.4486 8.85965 73.4737 8.88535 73.4836 8.93675C73.4978 9.01025 73.5036 9.24595 73.5011 9.64364" fill="none" opacity="1" stroke="#000000" stroke-linecap="round" stroke-linejoin="round" stroke-width="1.29918" vectornator:layerName="path"/>
</g>
</g>
</g>
<g opacity="1" vectornator:layerName="path 20">
<clipPath clip-rule="nonzero" id="ClipPath_41">
<path d="M76.4924 10.3071L77.9528 10.3071L77.9528 8.28295L76.4924 8.28295L76.4924 10.3071Z"/>
</clipPath>
<g clip-path="url(#ClipPath_41)">
<clipPath clip-rule="nonzero" id="ClipPath_42">
<path d="M76.4924 10.3071L77.9528 10.3071L77.9528 8.28295L76.4924 8.28295L76.4924 10.3071Z"/>
</clipPath>
<g clip-path="url(#ClipPath_42)">
<path d="M77.2011 8.99155C77.2297 9.09044 77.2341 9.29274 77.2143 9.59843" fill="none" opacity="1" stroke="#000000" stroke-linecap="round" stroke-linejoin="round" stroke-width="1.29921" vectornator:layerName="path"/>
</g>
</g>
</g>
<g opacity="1" vectornator:layerName="path 21">
<clipPath clip-rule="nonzero" id="ClipPath_43">
<path d="M79.8334 10.5355L81.3032 10.5355L81.3032 8.43346L79.8334 8.43346L79.8334 10.5355Z"/>
</clipPath>
<g clip-path="url(#ClipPath_43)">
<clipPath clip-rule="nonzero" id="ClipPath_44">
<path d="M79.8334 10.5355L81.3032 10.5355L81.3032 8.43346L79.8334 8.43346L79.8334 10.5355Z"/>
</clipPath>
<g clip-path="url(#ClipPath_44)">
<path d="M80.5518 9.14208C80.5454 9.45747 80.5596 9.68576 80.5945 9.82685" fill="none" opacity="1" stroke="#000000" stroke-linecap="round" stroke-linejoin="round" stroke-width="1.29922" vectornator:layerName="path"/>
</g>
</g>
</g>
<g opacity="1" vectornator:layerName="path 22">
<clipPath clip-rule="nonzero" id="ClipPath_45">
<path d="M50.0113 13.6626L52.1958 13.6626L52.1958 12.209L50.0113 12.209L50.0113 13.6626Z"/>
</clipPath>
<g clip-path="url(#ClipPath_45)">
<clipPath clip-rule="nonzero" id="ClipPath_46">
<path d="M50.0113 13.6626L52.1958 13.6626L52.1958 12.209L50.0113 12.209L50.0113 13.6626Z"/>
</clipPath>
<g clip-path="url(#ClipPath_46)">
<path d="M50.7199 12.9477C50.8886 12.9277 51.1444 12.9299 51.4871 12.954" fill="none" opacity="1" stroke="#000000" stroke-linecap="round" stroke-linejoin="round" stroke-width="1.29925" vectornator:layerName="path"/>
</g>
</g>
</g>
<g opacity="1" vectornator:layerName="path 23">
<clipPath clip-rule="nonzero" id="ClipPath_47">
<path d="M49.7955 17.0684L52.1567 17.0684L52.1567 15.6385L49.7955 15.6385L49.7955 17.0684Z"/>
</clipPath>
<g clip-path="url(#ClipPath_47)">
<clipPath clip-rule="nonzero" id="ClipPath_48">
<path d="M49.7955 17.0684L52.1567 17.0684L52.1567 15.6385L49.7955 15.6385L49.7955 17.0684Z"/>
</clipPath>
<g clip-path="url(#ClipPath_48)">
<path d="M50.5042 16.3472C50.8188 16.3514 51.1334 16.3556 51.448 16.3598" fill="none" opacity="1" stroke="#000000" stroke-linecap="round" stroke-linejoin="round" stroke-width="1.29918" vectornator:layerName="path"/>
</g>
</g>
</g>
<g opacity="1" vectornator:layerName="path 24">
<clipPath clip-rule="nonzero" id="ClipPath_49">
<path d="M49.6343 20.723L51.8084 20.723L51.8084 19.2335L49.6343 19.2335L49.6343 20.723Z"/>
</clipPath>
<g clip-path="url(#ClipPath_49)">
<clipPath clip-rule="nonzero" id="ClipPath_50">
<path d="M49.6343 20.723L51.8084 20.723L51.8084 19.2335L49.6343 19.2335L49.6343 20.723Z"/>
</clipPath>
<g clip-path="url(#ClipPath_50)">
<path d="M50.343 19.9777C50.4174 19.954 50.5091 19.9431 50.6179 19.9448C50.7808 19.9473 50.9414 19.9705 51.0997 20.0144" fill="none" opacity="1" stroke="#000000" stroke-linecap="round" stroke-linejoin="round" stroke-width="1.29922" vectornator:layerName="path"/>
</g>
</g>
</g>
<g opacity="1" vectornator:layerName="path 25">
<clipPath clip-rule="nonzero" id="ClipPath_51">
<path d="M81.5312 14.2139L83.9483 14.2139L83.9483 12.7194L81.5312 12.7194L81.5312 14.2139Z"/>
</clipPath>
<g clip-path="url(#ClipPath_51)">
<clipPath clip-rule="nonzero" id="ClipPath_52">
<path d="M81.5312 14.2139L83.9483 14.2139L83.9483 12.7194L81.5312 12.7194L81.5312 14.2139Z"/>
</clipPath>
<g clip-path="url(#ClipPath_52)">
<path d="M82.2399 13.5053C82.7118 13.4633 83.0451 13.4376 83.2397 13.4281" fill="none" opacity="1" stroke="#000000" stroke-linecap="round" stroke-linejoin="round" stroke-width="1.29925" vectornator:layerName="path"/>
</g>
</g>
</g>
<g opacity="1" vectornator:layerName="path 26">
<clipPath clip-rule="nonzero" id="ClipPath_53">
<path d="M81.5014 17.752L84.0086 17.752L84.0086 16.3162L81.5014 16.3162L81.5014 17.752Z"/>
</clipPath>
<g clip-path="url(#ClipPath_53)">
<clipPath clip-rule="nonzero" id="ClipPath_54">
<path d="M81.5014 17.752L84.0086 17.752L84.0086 16.3162L81.5014 16.3162L81.5014 17.752Z"/>
</clipPath>
<g clip-path="url(#ClipPath_54)">
<path d="M82.21 17.0248C82.5733 17.031 82.9366 17.0371 83.2999 17.0433" fill="none" opacity="1" stroke="#000000" stroke-linecap="round" stroke-linejoin="round" stroke-width="1.2992" vectornator:layerName="path"/>
</g>
</g>
</g>
<g opacity="1" vectornator:layerName="path 27">
<clipPath clip-rule="nonzero" id="ClipPath_55">
<path d="M81.344 21.8849L83.7932 21.8849L83.7932 20.3422L81.344 20.3422L81.344 21.8849Z"/>
</clipPath>
<g clip-path="url(#ClipPath_55)">
<clipPath clip-rule="nonzero" id="ClipPath_56">
<path d="M81.344 21.8849L83.7932 21.8849L83.7932 20.3422L81.344 20.3422L81.344 21.8849Z"/>
</clipPath>
<g clip-path="url(#ClipPath_56)">
<path d="M82.0527 21.0509C82.1987 21.0781 82.3462 21.0986 82.4953 21.1125C82.7237 21.1338 82.92 21.1551 83.0845 21.1762" fill="none" opacity="1" stroke="#000000" stroke-linecap="round" stroke-linejoin="round" stroke-width="1.29925" vectornator:layerName="path"/>
</g>
</g>
</g>
<g opacity="1" vectornator:layerName="path 28">
<clipPath clip-rule="nonzero" id="ClipPath_57">
<path d="M60.9272 25.3123L62.4452 25.3123L62.4452 22.7428L60.9272 22.7428L60.9272 25.3123Z"/>
</clipPath>
<g clip-path="url(#ClipPath_57)">
<clipPath clip-rule="nonzero" id="ClipPath_58">
<path d="M60.9272 25.3123L62.4452 25.3123L62.4452 22.7428L60.9272 22.7428L60.9272 25.3123Z"/>
</clipPath>
<g clip-path="url(#ClipPath_58)">
<path d="M61.6358 23.4515C61.6588 23.6328 61.6763 23.8348 61.6884 24.0575C61.7004 24.2802 61.7165 24.4623 61.7365 24.6038" fill="none" opacity="1" stroke="#000000" stroke-linecap="round" stroke-linejoin="round" stroke-width="1.29917" vectornator:layerName="path"/>
</g>
</g>
</g>
<g opacity="1" vectornator:layerName="path 29">
<clipPath clip-rule="nonzero" id="ClipPath_59">
<path d="M64.5581 25.1199L66.0293 25.1199L66.0293 22.6896L64.5581 22.6896L64.5581 25.1199Z"/>
</clipPath>
<g clip-path="url(#ClipPath_59)">
<clipPath clip-rule="nonzero" id="ClipPath_60">
<path d="M64.5581 25.1199L66.0293 25.1199L66.0293 22.6896L64.5581 22.6896L64.5581 25.1199Z"/>
</clipPath>
<g clip-path="url(#ClipPath_60)">
<path d="M65.2804 23.3983C65.2713 23.9049 65.2847 24.2425 65.3206 24.4112" fill="none" opacity="1" stroke="#000000" stroke-linecap="round" stroke-linejoin="round" stroke-width="1.29924" vectornator:layerName="path"/>
</g>
</g>
</g>
<g opacity="1" vectornator:layerName="path 30">
<clipPath clip-rule="nonzero" id="ClipPath_61">
<path d="M68.1318 25.1758L69.6273 25.1758L69.6273 22.5517L68.1318 22.5517L68.1318 25.1758Z"/>
</clipPath>
<g clip-path="url(#ClipPath_61)">
<clipPath clip-rule="nonzero" id="ClipPath_62">
<path d="M68.1318 25.1758L69.6273 25.1758L69.6273 22.5517L68.1318 22.5517L68.1318 25.1758Z"/>
</clipPath>
<g clip-path="url(#ClipPath_62)">
<path d="M68.8663 23.2604C68.8491 23.4293 68.8666 23.8315 68.9187 24.4671" fill="none" opacity="1" stroke="#000000" stroke-linecap="round" stroke-linejoin="round" stroke-width="1.29925" vectornator:layerName="path"/>
</g>
</g>
</g>
<g opacity="1" vectornator:layerName="path 31">
<clipPath clip-rule="nonzero" id="ClipPath_63">
<path d="M71.2259 25.0944L72.8203 25.0944L72.8203 22.5276L71.2259 22.5276L71.2259 25.0944Z"/>
</clipPath>
<g clip-path="url(#ClipPath_63)">
<clipPath clip-rule="nonzero" id="ClipPath_64">
<path d="M71.2259 25.0944L72.8203 25.0944L72.8203 22.5276L71.2259 22.5276L71.2259 25.0944Z"/>
</clipPath>
<g clip-path="url(#ClipPath_64)">
<path d="M71.9345 23.2362C71.9738 23.2397 72.0032 23.3806 72.0226 23.6589C72.0421 23.937 72.0717 24.1794 72.1116 24.3857" fill="none" opacity="1" stroke="#000000" stroke-linecap="round" stroke-linejoin="round" stroke-width="1.29919" vectornator:layerName="path"/>
</g>
</g>
</g>
<g opacity="1" vectornator:layerName="path 32">
<clipPath clip-rule="nonzero" id="ClipPath_65">
<path d="M53.0843 24.8389L54.5451 24.8389L54.5451 22.5304L53.0843 22.5304L53.0843 24.8389Z"/>
</clipPath>
<g clip-path="url(#ClipPath_65)">
<clipPath clip-rule="nonzero" id="ClipPath_66">
<path d="M53.0843 24.8389L54.5451 24.8389L54.5451 22.5304L53.0843 22.5304L53.0843 24.8389Z"/>
</clipPath>
<g clip-path="url(#ClipPath_66)">
<path d="M53.7929 23.2391C53.817 23.5295 53.8315 23.8266 53.8365 24.1303" fill="none" opacity="1" stroke="#000000" stroke-linecap="round" stroke-linejoin="round" stroke-width="1.29915" vectornator:layerName="path"/>
</g>
</g>
</g>
<g opacity="1" vectornator:layerName="path 33">
<clipPath clip-rule="nonzero" id="ClipPath_67">
<path d="M78.3142 25.3483L79.8411 25.3483L79.8411 22.7059L78.3142 22.7059L78.3142 25.3483Z"/>
</clipPath>
<g clip-path="url(#ClipPath_67)">
<clipPath clip-rule="nonzero" id="ClipPath_68">
<path d="M78.3142 25.3483L79.8411 25.3483L79.8411 22.7059L78.3142 22.7059L78.3142 25.3483Z"/>
</clipPath>
<g clip-path="url(#ClipPath_68)">
<path d="M79.0228 23.5156C79.0311 23.4639 79.036 23.4335 79.0374 23.4242C79.0385 23.4177 79.0405 23.4206 79.0435 23.4327C79.0466 23.4448 79.0545 23.4764 79.0673 23.5275C79.0801 23.5785 79.0925 23.7008 79.1046 23.8944C79.1231 24.1922 79.1238 24.4407 79.1066 24.6398" fill="none" opacity="1" stroke="#000000" stroke-linecap="round" stroke-linejoin="round" stroke-width="1.2992" vectornator:layerName="path"/>
</g>
</g>
</g>
</g>
</g>
</svg>
